%TF.GenerationSoftware,KiCad,Pcbnew,8.0.7*%
%TF.CreationDate,2025-01-02T12:18:17+01:00*%
%TF.ProjectId,redroid_go,72656472-6f69-4645-9f67-6f2e6b696361,rev?*%
%TF.SameCoordinates,Original*%
%TF.FileFunction,Soldermask,Top*%
%TF.FilePolarity,Negative*%
%FSLAX46Y46*%
G04 Gerber Fmt 4.6, Leading zero omitted, Abs format (unit mm)*
G04 Created by KiCad (PCBNEW 8.0.7) date 2025-01-02 12:18:17*
%MOMM*%
%LPD*%
G01*
G04 APERTURE LIST*
G04 Aperture macros list*
%AMRoundRect*
0 Rectangle with rounded corners*
0 $1 Rounding radius*
0 $2 $3 $4 $5 $6 $7 $8 $9 X,Y pos of 4 corners*
0 Add a 4 corners polygon primitive as box body*
4,1,4,$2,$3,$4,$5,$6,$7,$8,$9,$2,$3,0*
0 Add four circle primitives for the rounded corners*
1,1,$1+$1,$2,$3*
1,1,$1+$1,$4,$5*
1,1,$1+$1,$6,$7*
1,1,$1+$1,$8,$9*
0 Add four rect primitives between the rounded corners*
20,1,$1+$1,$2,$3,$4,$5,0*
20,1,$1+$1,$4,$5,$6,$7,0*
20,1,$1+$1,$6,$7,$8,$9,0*
20,1,$1+$1,$8,$9,$2,$3,0*%
G04 Aperture macros list end*
%ADD10C,0.000000*%
%ADD11C,0.508000*%
%ADD12RoundRect,0.351600X-0.258809X-0.965928X0.258829X0.965923X0.258809X0.965928X-0.258829X-0.965923X0*%
%ADD13RoundRect,0.351600X-0.258829X0.965923X0.258809X-0.965928X0.258829X-0.965923X-0.258809X0.965928X0*%
%ADD14RoundRect,0.351600X0.965923X0.258829X-0.965928X-0.258809X-0.965923X-0.258829X0.965928X0.258809X0*%
%ADD15RoundRect,0.351600X-0.965928X0.258809X0.965923X-0.258829X0.965928X-0.258809X-0.965923X0.258829X0*%
%ADD16C,1.500000*%
%ADD17C,3.800000*%
%ADD18R,1.700000X1.700000*%
%ADD19O,1.700000X1.700000*%
%ADD20RoundRect,0.351600X0.965928X-0.258809X-0.965923X0.258829X-0.965928X0.258809X0.965923X-0.258829X0*%
%ADD21RoundRect,0.351600X-0.965923X-0.258829X0.965928X0.258809X0.965923X0.258829X-0.965928X-0.258809X0*%
%ADD22RoundRect,0.177800X-0.673800X-0.177800X0.673800X-0.177800X0.673800X0.177800X-0.673800X0.177800X0*%
%ADD23RoundRect,0.177800X0.673800X0.177800X-0.673800X0.177800X-0.673800X-0.177800X0.673800X-0.177800X0*%
%ADD24RoundRect,0.237500X-0.237500X0.250000X-0.237500X-0.250000X0.237500X-0.250000X0.237500X0.250000X0*%
%ADD25R,1.800000X1.800000*%
%ADD26C,1.800000*%
%ADD27RoundRect,0.351600X0.258809X0.965928X-0.258829X-0.965923X-0.258809X-0.965928X0.258829X0.965923X0*%
%ADD28RoundRect,0.351600X0.258829X-0.965923X-0.258809X0.965928X-0.258829X0.965923X0.258809X-0.965928X0*%
%ADD29RoundRect,0.237500X-0.250000X-0.237500X0.250000X-0.237500X0.250000X0.237500X-0.250000X0.237500X0*%
%ADD30RoundRect,0.162500X-0.617500X-0.162500X0.617500X-0.162500X0.617500X0.162500X-0.617500X0.162500X0*%
%ADD31RoundRect,0.237500X0.237500X-0.250000X0.237500X0.250000X-0.237500X0.250000X-0.237500X-0.250000X0*%
%ADD32RoundRect,0.237500X0.250000X0.237500X-0.250000X0.237500X-0.250000X-0.237500X0.250000X-0.237500X0*%
%ADD33C,0.650000*%
%ADD34O,2.304000X1.204000*%
%ADD35O,2.004000X1.204000*%
%ADD36C,0.900000*%
%ADD37C,1.000000*%
G04 APERTURE END LIST*
D10*
%TO.C,SW3*%
G36*
X137580878Y-117992691D02*
G01*
X138765843Y-118136092D01*
X138817075Y-118628918D01*
X138890793Y-119010482D01*
X138997489Y-119384174D01*
X139136343Y-119747130D01*
X139306308Y-120096616D01*
X139590859Y-120571412D01*
X139086431Y-120735676D01*
X138716949Y-120814465D01*
X138341254Y-120854201D01*
X137963465Y-120854448D01*
X137587720Y-120815205D01*
X137218134Y-120736899D01*
X136858760Y-120620391D01*
X136513531Y-120466957D01*
X136186232Y-120278276D01*
X135880448Y-120056417D01*
X135599531Y-119803811D01*
X135346557Y-119523224D01*
X135122333Y-119215031D01*
X134717631Y-118422041D01*
X135388256Y-118221211D01*
X135927861Y-118102714D01*
X136474814Y-118024873D01*
X137026054Y-117988124D01*
X137580878Y-117992691D01*
G37*
G36*
X138341254Y-114545799D02*
G01*
X138716949Y-114585535D01*
X139086431Y-114664324D01*
X139590859Y-114828588D01*
X139306308Y-115303384D01*
X139136343Y-115652870D01*
X138997489Y-116015826D01*
X138890793Y-116389518D01*
X138817075Y-116771082D01*
X138765843Y-117263908D01*
X137580878Y-117407309D01*
X137026054Y-117411876D01*
X136474814Y-117375127D01*
X135927861Y-117297286D01*
X135388256Y-117178789D01*
X134717631Y-116977959D01*
X135122333Y-116184969D01*
X135346557Y-115876776D01*
X135599531Y-115596189D01*
X135880448Y-115343583D01*
X136186232Y-115121724D01*
X136513531Y-114933043D01*
X136858760Y-114779609D01*
X137218134Y-114663101D01*
X137587720Y-114584795D01*
X137963465Y-114545552D01*
X138341254Y-114545799D01*
G37*
%TO.C,SW1*%
G36*
X146915031Y-107522333D02*
G01*
X147223224Y-107746557D01*
X147503811Y-107999531D01*
X147756417Y-108280448D01*
X147978276Y-108586232D01*
X148166957Y-108913531D01*
X148320391Y-109258760D01*
X148436899Y-109618134D01*
X148515205Y-109987720D01*
X148554448Y-110363465D01*
X148554201Y-110741254D01*
X148514465Y-111116949D01*
X148435676Y-111486431D01*
X148271412Y-111990859D01*
X147796616Y-111706308D01*
X147447130Y-111536343D01*
X147084174Y-111397489D01*
X146710482Y-111290793D01*
X146328918Y-111217075D01*
X145836092Y-111165843D01*
X145692691Y-109980878D01*
X145688124Y-109426054D01*
X145724873Y-108874814D01*
X145802714Y-108327861D01*
X145921211Y-107788256D01*
X146122041Y-107117631D01*
X146915031Y-107522333D01*
G37*
G36*
X144878789Y-107788256D02*
G01*
X144997286Y-108327861D01*
X145075127Y-108874814D01*
X145111876Y-109426054D01*
X145107309Y-109980878D01*
X144963908Y-111165843D01*
X144471082Y-111217075D01*
X144089518Y-111290793D01*
X143715826Y-111397489D01*
X143352870Y-111536343D01*
X143003384Y-111706308D01*
X142528588Y-111990859D01*
X142364324Y-111486431D01*
X142285535Y-111116949D01*
X142245799Y-110741254D01*
X142245552Y-110363465D01*
X142284795Y-109987720D01*
X142363101Y-109618134D01*
X142479609Y-109258760D01*
X142633043Y-108913531D01*
X142821724Y-108586232D01*
X143043583Y-108280448D01*
X143296189Y-107999531D01*
X143576776Y-107746557D01*
X143884969Y-107522333D01*
X144677959Y-107117631D01*
X144878789Y-107788256D01*
G37*
%TO.C,SW2*%
G36*
X143003384Y-122893692D02*
G01*
X143352870Y-123063657D01*
X143715826Y-123202511D01*
X144089518Y-123309207D01*
X144471082Y-123382925D01*
X144963908Y-123434157D01*
X145107309Y-124619122D01*
X145111876Y-125173946D01*
X145075127Y-125725186D01*
X144997286Y-126272139D01*
X144878789Y-126811744D01*
X144677959Y-127482369D01*
X143884969Y-127077667D01*
X143576776Y-126853443D01*
X143296189Y-126600469D01*
X143043583Y-126319552D01*
X142821724Y-126013768D01*
X142633043Y-125686469D01*
X142479609Y-125341240D01*
X142363101Y-124981866D01*
X142284795Y-124612280D01*
X142245552Y-124236535D01*
X142245799Y-123858746D01*
X142285535Y-123483051D01*
X142364324Y-123113569D01*
X142528588Y-122609141D01*
X143003384Y-122893692D01*
G37*
G36*
X148435676Y-123113569D02*
G01*
X148514465Y-123483051D01*
X148554201Y-123858746D01*
X148554448Y-124236535D01*
X148515205Y-124612280D01*
X148436899Y-124981866D01*
X148320391Y-125341240D01*
X148166957Y-125686469D01*
X147978276Y-126013768D01*
X147756417Y-126319552D01*
X147503811Y-126600469D01*
X147223224Y-126853443D01*
X146915031Y-127077667D01*
X146122041Y-127482369D01*
X145921211Y-126811744D01*
X145802714Y-126272139D01*
X145724873Y-125725186D01*
X145688124Y-125173946D01*
X145692691Y-124619122D01*
X145836092Y-123434157D01*
X146328918Y-123382925D01*
X146710482Y-123309207D01*
X147084174Y-123202511D01*
X147447130Y-123063657D01*
X147796616Y-122893692D01*
X148271412Y-122609141D01*
X148435676Y-123113569D01*
G37*
D11*
%TO.C,SW8*%
X189100000Y-99650000D02*
X186200000Y-99650000D01*
X190300000Y-102650000D02*
X185600000Y-102650000D01*
X190500000Y-103150000D02*
X187600000Y-103150000D01*
X190600000Y-100650000D02*
X185400000Y-100650000D01*
X190700000Y-101650000D02*
X185300000Y-101650000D01*
X191100000Y-100150000D02*
X186400000Y-100150000D01*
X191300000Y-102150000D02*
X186100000Y-102150000D01*
X191500000Y-101150000D02*
X186000000Y-101150000D01*
X186850000Y-103400000D02*
G75*
G02*
X186850000Y-99400000I352654J2000000D01*
G01*
X189850000Y-99400000D02*
G75*
G02*
X189850000Y-103400000I-352654J-2000000D01*
G01*
%TO.C,SW9*%
X175500000Y-117250000D02*
X180900000Y-117250000D01*
X176100000Y-119250000D02*
X179900000Y-119250000D01*
X176500000Y-116750000D02*
X181400000Y-116750000D01*
X176600000Y-118750000D02*
X181200000Y-118750000D01*
X177500000Y-119750000D02*
X180500000Y-119750000D01*
X179500000Y-115250000D02*
X176500000Y-115250000D01*
X180400000Y-116250000D02*
X175800000Y-116250000D01*
X180500000Y-118250000D02*
X175600000Y-118250000D01*
X180900000Y-115750000D02*
X177100000Y-115750000D01*
X181500000Y-117750000D02*
X176100000Y-117750000D01*
X178000000Y-120500000D02*
G75*
G02*
X177999998Y-114500000I528980J3000000D01*
G01*
X179000000Y-114500000D02*
G75*
G02*
X179000002Y-120500000I-528980J-3000000D01*
G01*
%TO.C,SW7*%
X176550000Y-99800000D02*
X173650000Y-99800000D01*
X177750000Y-102800000D02*
X173050000Y-102800000D01*
X177950000Y-103300000D02*
X175050000Y-103300000D01*
X178050000Y-100800000D02*
X172850000Y-100800000D01*
X178150000Y-101800000D02*
X172750000Y-101800000D01*
X178550000Y-100300000D02*
X173850000Y-100300000D01*
X178750000Y-102300000D02*
X173550000Y-102300000D01*
X178950000Y-101300000D02*
X173450000Y-101300000D01*
X174300000Y-103550000D02*
G75*
G02*
X174300000Y-99550000I352654J2000000D01*
G01*
X177300000Y-99550000D02*
G75*
G02*
X177300000Y-103550000I-352654J-2000000D01*
G01*
D10*
%TO.C,SW4*%
G36*
X154025186Y-118024873D02*
G01*
X154572139Y-118102714D01*
X155111744Y-118221211D01*
X155782369Y-118422041D01*
X155377667Y-119215031D01*
X155153443Y-119523224D01*
X154900469Y-119803811D01*
X154619552Y-120056417D01*
X154313768Y-120278276D01*
X153986469Y-120466957D01*
X153641240Y-120620391D01*
X153281866Y-120736899D01*
X152912280Y-120815205D01*
X152536535Y-120854448D01*
X152158746Y-120854201D01*
X151783051Y-120814465D01*
X151413569Y-120735676D01*
X150909141Y-120571412D01*
X151193692Y-120096616D01*
X151363657Y-119747130D01*
X151502511Y-119384174D01*
X151609207Y-119010482D01*
X151682925Y-118628918D01*
X151734157Y-118136092D01*
X152919122Y-117992691D01*
X153473946Y-117988124D01*
X154025186Y-118024873D01*
G37*
G36*
X152912280Y-114584795D02*
G01*
X153281866Y-114663101D01*
X153641240Y-114779609D01*
X153986469Y-114933043D01*
X154313768Y-115121724D01*
X154619552Y-115343583D01*
X154900469Y-115596189D01*
X155153443Y-115876776D01*
X155377667Y-116184969D01*
X155782369Y-116977959D01*
X155111744Y-117178789D01*
X154572139Y-117297286D01*
X154025186Y-117375127D01*
X153473946Y-117411876D01*
X152919122Y-117407309D01*
X151734157Y-117263908D01*
X151682925Y-116771082D01*
X151609207Y-116389518D01*
X151502511Y-116015826D01*
X151363657Y-115652870D01*
X151193692Y-115303384D01*
X150909141Y-114828588D01*
X151413569Y-114664324D01*
X151783051Y-114585535D01*
X152158746Y-114545799D01*
X152536535Y-114545552D01*
X152912280Y-114584795D01*
G37*
D11*
%TO.C,SW5*%
X138250000Y-100250000D02*
X135350000Y-100250000D01*
X139450000Y-103250000D02*
X134750000Y-103250000D01*
X139650000Y-103750000D02*
X136750000Y-103750000D01*
X139750000Y-101250000D02*
X134550000Y-101250000D01*
X139850000Y-102250000D02*
X134450000Y-102250000D01*
X140250000Y-100750000D02*
X135550000Y-100750000D01*
X140450000Y-102750000D02*
X135250000Y-102750000D01*
X140650000Y-101750000D02*
X135150000Y-101750000D01*
X136000000Y-104000000D02*
G75*
G02*
X136000000Y-100000000I352654J2000000D01*
G01*
X139000000Y-100000000D02*
G75*
G02*
X139000000Y-104000000I-352654J-2000000D01*
G01*
%TO.C,SW10*%
X186375000Y-114375000D02*
X191775000Y-114375000D01*
X186975000Y-116375000D02*
X190775000Y-116375000D01*
X187375000Y-113875000D02*
X192275000Y-113875000D01*
X187475000Y-115875000D02*
X192075000Y-115875000D01*
X188375000Y-116875000D02*
X191375000Y-116875000D01*
X190375000Y-112375000D02*
X187375000Y-112375000D01*
X191275000Y-113375000D02*
X186675000Y-113375000D01*
X191375000Y-115375000D02*
X186475000Y-115375000D01*
X191775000Y-112875000D02*
X187975000Y-112875000D01*
X192375000Y-114875000D02*
X186975000Y-114875000D01*
X188875000Y-117625000D02*
G75*
G02*
X188874998Y-111625000I528980J3000000D01*
G01*
X189875000Y-111625000D02*
G75*
G02*
X189875002Y-117625000I-528980J-3000000D01*
G01*
%TO.C,SW6*%
X148825000Y-100075000D02*
X145925000Y-100075000D01*
X150025000Y-103075000D02*
X145325000Y-103075000D01*
X150225000Y-103575000D02*
X147325000Y-103575000D01*
X150325000Y-101075000D02*
X145125000Y-101075000D01*
X150425000Y-102075000D02*
X145025000Y-102075000D01*
X150825000Y-100575000D02*
X146125000Y-100575000D01*
X151025000Y-102575000D02*
X145825000Y-102575000D01*
X151225000Y-101575000D02*
X145725000Y-101575000D01*
X146575000Y-103825000D02*
G75*
G02*
X146575000Y-99825000I352654J2000000D01*
G01*
X149575000Y-99825000D02*
G75*
G02*
X149575000Y-103825000I-352654J-2000000D01*
G01*
%TD*%
D12*
%TO.C,SW3*%
X139000000Y-116000000D03*
D13*
X138000000Y-119400000D03*
%TD*%
D14*
%TO.C,SW1*%
X143700000Y-110400000D03*
D15*
X147100000Y-111400000D03*
%TD*%
D16*
%TO.C,TP12*%
X163000000Y-111000000D03*
%TD*%
D17*
%TO.C,H4*%
X196050000Y-72500000D03*
%TD*%
%TO.C,H3*%
X131650000Y-130250000D03*
%TD*%
%TO.C,H2*%
X131550000Y-46500000D03*
%TD*%
%TO.C,H1*%
X196000000Y-114500000D03*
%TD*%
D18*
%TO.C,J4*%
X164000000Y-49500000D03*
D19*
X161460000Y-49500000D03*
X158920000Y-49500000D03*
X156380000Y-49500000D03*
X153840000Y-49500000D03*
X151300000Y-49500000D03*
X148760000Y-49500000D03*
X146220000Y-49500000D03*
X143680000Y-49500000D03*
X141140000Y-49500000D03*
%TD*%
D20*
%TO.C,SW2*%
X143700000Y-123200000D03*
D21*
X147100000Y-124200000D03*
%TD*%
D22*
%TO.C,SW8*%
X190475000Y-99275000D03*
D23*
X186225000Y-103525000D03*
%TD*%
D24*
%TO.C,R15*%
X186100000Y-105487500D03*
X186100000Y-107312500D03*
%TD*%
D22*
%TO.C,SW9*%
X179625000Y-114375000D03*
D23*
X177375000Y-120625000D03*
%TD*%
D22*
%TO.C,SW7*%
X177925000Y-99425000D03*
D23*
X173675000Y-103675000D03*
%TD*%
D16*
%TO.C,TP9*%
X173500000Y-118500000D03*
%TD*%
D25*
%TO.C,D3*%
X163000000Y-106270000D03*
D26*
X163000000Y-103730000D03*
%TD*%
D16*
%TO.C,TP8*%
X182550000Y-101550000D03*
%TD*%
D27*
%TO.C,SW4*%
X151500000Y-119400000D03*
D28*
X152500000Y-116000000D03*
%TD*%
D22*
%TO.C,SW5*%
X139625000Y-99875000D03*
D23*
X135375000Y-104125000D03*
%TD*%
D29*
%TO.C,R13*%
X137587500Y-110500000D03*
X139412500Y-110500000D03*
%TD*%
D22*
%TO.C,SW10*%
X190500000Y-111500000D03*
D23*
X188250000Y-117750000D03*
%TD*%
D16*
%TO.C,TP5*%
X140000000Y-107500000D03*
%TD*%
%TO.C,TP6*%
X139500000Y-125500000D03*
%TD*%
D22*
%TO.C,SW6*%
X150200000Y-99700000D03*
D23*
X145950000Y-103950000D03*
%TD*%
D30*
%TO.C,U9*%
X148150000Y-53550000D03*
X148150000Y-54500000D03*
X148150000Y-55450000D03*
X150850000Y-55450000D03*
X150850000Y-53550000D03*
%TD*%
D29*
%TO.C,R11*%
X151675000Y-111412500D03*
X153500000Y-111412500D03*
%TD*%
D31*
%TO.C,R12*%
X151500000Y-126912500D03*
X151500000Y-125087500D03*
%TD*%
D25*
%TO.C,D2*%
X131500000Y-65040000D03*
D26*
X131500000Y-62500000D03*
%TD*%
D24*
%TO.C,R16*%
X150000000Y-105675000D03*
X150000000Y-107500000D03*
%TD*%
D29*
%TO.C,R14*%
X136175000Y-123500000D03*
X138000000Y-123500000D03*
%TD*%
D16*
%TO.C,TP7*%
X170350000Y-101750000D03*
%TD*%
%TO.C,TP10*%
X184000000Y-115500000D03*
%TD*%
D30*
%TO.C,U8*%
X154800000Y-53500000D03*
X154800000Y-54450000D03*
X154800000Y-55400000D03*
X157500000Y-55400000D03*
X157500000Y-53500000D03*
%TD*%
%TO.C,U7*%
X161300000Y-53500000D03*
X161300000Y-54450000D03*
X161300000Y-55400000D03*
X164000000Y-55400000D03*
X164000000Y-53500000D03*
%TD*%
D32*
%TO.C,R18*%
X157912500Y-103750000D03*
X156087500Y-103750000D03*
%TD*%
D16*
%TO.C,TP3*%
X132150000Y-102100000D03*
%TD*%
%TO.C,TP4*%
X142650000Y-101950000D03*
%TD*%
D33*
%TO.C,J1*%
X133680000Y-57890000D03*
X133680000Y-52110000D03*
D34*
X134180000Y-59320000D03*
X134180000Y-50680000D03*
D35*
X130000000Y-59320000D03*
X130000000Y-50680000D03*
%TD*%
D36*
%TO.C,SW11*%
X197500000Y-81500000D03*
X197500000Y-86500000D03*
%TD*%
D37*
%TO.C,U6*%
X129950000Y-104450000D03*
X129950000Y-96450000D03*
%TD*%
M02*
