%TF.GenerationSoftware,KiCad,Pcbnew,8.0.7*%
%TF.CreationDate,2025-01-02T12:18:17+01:00*%
%TF.ProjectId,redroid_go,72656472-6f69-4645-9f67-6f2e6b696361,rev?*%
%TF.SameCoordinates,Original*%
%TF.FileFunction,Legend,Bot*%
%TF.FilePolarity,Positive*%
%FSLAX46Y46*%
G04 Gerber Fmt 4.6, Leading zero omitted, Abs format (unit mm)*
G04 Created by KiCad (PCBNEW 8.0.7) date 2025-01-02 12:18:17*
%MOMM*%
%LPD*%
G01*
G04 APERTURE LIST*
%ADD10C,0.150000*%
%ADD11C,0.100000*%
%ADD12C,0.152400*%
%ADD13C,0.120000*%
%ADD14C,0.200000*%
G04 APERTURE END LIST*
D10*
X167648544Y-101185629D02*
X167648544Y-100376106D01*
X167648544Y-100376106D02*
X167696163Y-100280868D01*
X167696163Y-100280868D02*
X167743782Y-100233249D01*
X167743782Y-100233249D02*
X167839020Y-100185629D01*
X167839020Y-100185629D02*
X168029496Y-100185629D01*
X168029496Y-100185629D02*
X168124734Y-100233249D01*
X168124734Y-100233249D02*
X168172353Y-100280868D01*
X168172353Y-100280868D02*
X168219972Y-100376106D01*
X168219972Y-100376106D02*
X168219972Y-101185629D01*
X168600925Y-101185629D02*
X169219972Y-101185629D01*
X169219972Y-101185629D02*
X168886639Y-100804677D01*
X168886639Y-100804677D02*
X169029496Y-100804677D01*
X169029496Y-100804677D02*
X169124734Y-100757058D01*
X169124734Y-100757058D02*
X169172353Y-100709439D01*
X169172353Y-100709439D02*
X169219972Y-100614201D01*
X169219972Y-100614201D02*
X169219972Y-100376106D01*
X169219972Y-100376106D02*
X169172353Y-100280868D01*
X169172353Y-100280868D02*
X169124734Y-100233249D01*
X169124734Y-100233249D02*
X169029496Y-100185629D01*
X169029496Y-100185629D02*
X168743782Y-100185629D01*
X168743782Y-100185629D02*
X168648544Y-100233249D01*
X168648544Y-100233249D02*
X168600925Y-100280868D01*
X166803198Y-102568868D02*
X166803198Y-102806963D01*
X167041293Y-102711725D02*
X166803198Y-102806963D01*
X166803198Y-102806963D02*
X166565103Y-102711725D01*
X166946055Y-102997439D02*
X166803198Y-102806963D01*
X166803198Y-102806963D02*
X166660341Y-102997439D01*
X166803199Y-103659229D02*
X166803199Y-103421134D01*
X166565104Y-103516372D02*
X166803199Y-103421134D01*
X166803199Y-103421134D02*
X167041294Y-103516372D01*
X166660342Y-103230658D02*
X166803199Y-103421134D01*
X166803199Y-103421134D02*
X166946056Y-103230658D01*
X184511904Y-59788229D02*
X184511904Y-60597752D01*
X184511904Y-60597752D02*
X184464285Y-60692990D01*
X184464285Y-60692990D02*
X184416666Y-60740610D01*
X184416666Y-60740610D02*
X184321428Y-60788229D01*
X184321428Y-60788229D02*
X184130952Y-60788229D01*
X184130952Y-60788229D02*
X184035714Y-60740610D01*
X184035714Y-60740610D02*
X183988095Y-60692990D01*
X183988095Y-60692990D02*
X183940476Y-60597752D01*
X183940476Y-60597752D02*
X183940476Y-59788229D01*
X182940476Y-60788229D02*
X183511904Y-60788229D01*
X183226190Y-60788229D02*
X183226190Y-59788229D01*
X183226190Y-59788229D02*
X183321428Y-59931086D01*
X183321428Y-59931086D02*
X183416666Y-60026324D01*
X183416666Y-60026324D02*
X183511904Y-60073943D01*
X161395180Y-77183333D02*
X160680895Y-77183333D01*
X160680895Y-77183333D02*
X160538038Y-77230952D01*
X160538038Y-77230952D02*
X160442800Y-77326190D01*
X160442800Y-77326190D02*
X160395180Y-77469047D01*
X160395180Y-77469047D02*
X160395180Y-77564285D01*
X161299942Y-76754761D02*
X161347561Y-76707142D01*
X161347561Y-76707142D02*
X161395180Y-76611904D01*
X161395180Y-76611904D02*
X161395180Y-76373809D01*
X161395180Y-76373809D02*
X161347561Y-76278571D01*
X161347561Y-76278571D02*
X161299942Y-76230952D01*
X161299942Y-76230952D02*
X161204704Y-76183333D01*
X161204704Y-76183333D02*
X161109466Y-76183333D01*
X161109466Y-76183333D02*
X160966609Y-76230952D01*
X160966609Y-76230952D02*
X160395180Y-76802380D01*
X160395180Y-76802380D02*
X160395180Y-76183333D01*
X163935180Y-80897619D02*
X163935180Y-81373809D01*
X163935180Y-81373809D02*
X163458990Y-81421428D01*
X163458990Y-81421428D02*
X163506609Y-81373809D01*
X163506609Y-81373809D02*
X163554228Y-81278571D01*
X163554228Y-81278571D02*
X163554228Y-81040476D01*
X163554228Y-81040476D02*
X163506609Y-80945238D01*
X163506609Y-80945238D02*
X163458990Y-80897619D01*
X163458990Y-80897619D02*
X163363752Y-80850000D01*
X163363752Y-80850000D02*
X163125657Y-80850000D01*
X163125657Y-80850000D02*
X163030419Y-80897619D01*
X163030419Y-80897619D02*
X162982800Y-80945238D01*
X162982800Y-80945238D02*
X162935180Y-81040476D01*
X162935180Y-81040476D02*
X162935180Y-81278571D01*
X162935180Y-81278571D02*
X162982800Y-81373809D01*
X162982800Y-81373809D02*
X163030419Y-81421428D01*
X163935180Y-80230952D02*
X163935180Y-80135714D01*
X163935180Y-80135714D02*
X163887561Y-80040476D01*
X163887561Y-80040476D02*
X163839942Y-79992857D01*
X163839942Y-79992857D02*
X163744704Y-79945238D01*
X163744704Y-79945238D02*
X163554228Y-79897619D01*
X163554228Y-79897619D02*
X163316133Y-79897619D01*
X163316133Y-79897619D02*
X163125657Y-79945238D01*
X163125657Y-79945238D02*
X163030419Y-79992857D01*
X163030419Y-79992857D02*
X162982800Y-80040476D01*
X162982800Y-80040476D02*
X162935180Y-80135714D01*
X162935180Y-80135714D02*
X162935180Y-80230952D01*
X162935180Y-80230952D02*
X162982800Y-80326190D01*
X162982800Y-80326190D02*
X163030419Y-80373809D01*
X163030419Y-80373809D02*
X163125657Y-80421428D01*
X163125657Y-80421428D02*
X163316133Y-80469047D01*
X163316133Y-80469047D02*
X163554228Y-80469047D01*
X163554228Y-80469047D02*
X163744704Y-80421428D01*
X163744704Y-80421428D02*
X163839942Y-80373809D01*
X163839942Y-80373809D02*
X163887561Y-80326190D01*
X163887561Y-80326190D02*
X163935180Y-80230952D01*
X163935180Y-78992857D02*
X163935180Y-79469047D01*
X163935180Y-79469047D02*
X163458990Y-79516666D01*
X163458990Y-79516666D02*
X163506609Y-79469047D01*
X163506609Y-79469047D02*
X163554228Y-79373809D01*
X163554228Y-79373809D02*
X163554228Y-79135714D01*
X163554228Y-79135714D02*
X163506609Y-79040476D01*
X163506609Y-79040476D02*
X163458990Y-78992857D01*
X163458990Y-78992857D02*
X163363752Y-78945238D01*
X163363752Y-78945238D02*
X163125657Y-78945238D01*
X163125657Y-78945238D02*
X163030419Y-78992857D01*
X163030419Y-78992857D02*
X162982800Y-79040476D01*
X162982800Y-79040476D02*
X162935180Y-79135714D01*
X162935180Y-79135714D02*
X162935180Y-79373809D01*
X162935180Y-79373809D02*
X162982800Y-79469047D01*
X162982800Y-79469047D02*
X163030419Y-79516666D01*
X162935180Y-77992857D02*
X162935180Y-78564285D01*
X162935180Y-78278571D02*
X163935180Y-78278571D01*
X163935180Y-78278571D02*
X163792323Y-78373809D01*
X163792323Y-78373809D02*
X163697085Y-78469047D01*
X163697085Y-78469047D02*
X163649466Y-78564285D01*
X162935180Y-77040476D02*
X162935180Y-77611904D01*
X162935180Y-77326190D02*
X163935180Y-77326190D01*
X163935180Y-77326190D02*
X163792323Y-77421428D01*
X163792323Y-77421428D02*
X163697085Y-77516666D01*
X163697085Y-77516666D02*
X163649466Y-77611904D01*
X163935180Y-76421428D02*
X163935180Y-76326190D01*
X163935180Y-76326190D02*
X163887561Y-76230952D01*
X163887561Y-76230952D02*
X163839942Y-76183333D01*
X163839942Y-76183333D02*
X163744704Y-76135714D01*
X163744704Y-76135714D02*
X163554228Y-76088095D01*
X163554228Y-76088095D02*
X163316133Y-76088095D01*
X163316133Y-76088095D02*
X163125657Y-76135714D01*
X163125657Y-76135714D02*
X163030419Y-76183333D01*
X163030419Y-76183333D02*
X162982800Y-76230952D01*
X162982800Y-76230952D02*
X162935180Y-76326190D01*
X162935180Y-76326190D02*
X162935180Y-76421428D01*
X162935180Y-76421428D02*
X162982800Y-76516666D01*
X162982800Y-76516666D02*
X163030419Y-76564285D01*
X163030419Y-76564285D02*
X163125657Y-76611904D01*
X163125657Y-76611904D02*
X163316133Y-76659523D01*
X163316133Y-76659523D02*
X163554228Y-76659523D01*
X163554228Y-76659523D02*
X163744704Y-76611904D01*
X163744704Y-76611904D02*
X163839942Y-76564285D01*
X163839942Y-76564285D02*
X163887561Y-76516666D01*
X163887561Y-76516666D02*
X163935180Y-76421428D01*
X162935180Y-75135714D02*
X162935180Y-75707142D01*
X162935180Y-75421428D02*
X163935180Y-75421428D01*
X163935180Y-75421428D02*
X163792323Y-75516666D01*
X163792323Y-75516666D02*
X163697085Y-75611904D01*
X163697085Y-75611904D02*
X163649466Y-75707142D01*
X163506609Y-74564285D02*
X163554228Y-74659523D01*
X163554228Y-74659523D02*
X163601847Y-74707142D01*
X163601847Y-74707142D02*
X163697085Y-74754761D01*
X163697085Y-74754761D02*
X163744704Y-74754761D01*
X163744704Y-74754761D02*
X163839942Y-74707142D01*
X163839942Y-74707142D02*
X163887561Y-74659523D01*
X163887561Y-74659523D02*
X163935180Y-74564285D01*
X163935180Y-74564285D02*
X163935180Y-74373809D01*
X163935180Y-74373809D02*
X163887561Y-74278571D01*
X163887561Y-74278571D02*
X163839942Y-74230952D01*
X163839942Y-74230952D02*
X163744704Y-74183333D01*
X163744704Y-74183333D02*
X163697085Y-74183333D01*
X163697085Y-74183333D02*
X163601847Y-74230952D01*
X163601847Y-74230952D02*
X163554228Y-74278571D01*
X163554228Y-74278571D02*
X163506609Y-74373809D01*
X163506609Y-74373809D02*
X163506609Y-74564285D01*
X163506609Y-74564285D02*
X163458990Y-74659523D01*
X163458990Y-74659523D02*
X163411371Y-74707142D01*
X163411371Y-74707142D02*
X163316133Y-74754761D01*
X163316133Y-74754761D02*
X163125657Y-74754761D01*
X163125657Y-74754761D02*
X163030419Y-74707142D01*
X163030419Y-74707142D02*
X162982800Y-74659523D01*
X162982800Y-74659523D02*
X162935180Y-74564285D01*
X162935180Y-74564285D02*
X162935180Y-74373809D01*
X162935180Y-74373809D02*
X162982800Y-74278571D01*
X162982800Y-74278571D02*
X163030419Y-74230952D01*
X163030419Y-74230952D02*
X163125657Y-74183333D01*
X163125657Y-74183333D02*
X163316133Y-74183333D01*
X163316133Y-74183333D02*
X163411371Y-74230952D01*
X163411371Y-74230952D02*
X163458990Y-74278571D01*
X163458990Y-74278571D02*
X163506609Y-74373809D01*
X162935180Y-73707142D02*
X162935180Y-73516666D01*
X162935180Y-73516666D02*
X162982800Y-73421428D01*
X162982800Y-73421428D02*
X163030419Y-73373809D01*
X163030419Y-73373809D02*
X163173276Y-73278571D01*
X163173276Y-73278571D02*
X163363752Y-73230952D01*
X163363752Y-73230952D02*
X163744704Y-73230952D01*
X163744704Y-73230952D02*
X163839942Y-73278571D01*
X163839942Y-73278571D02*
X163887561Y-73326190D01*
X163887561Y-73326190D02*
X163935180Y-73421428D01*
X163935180Y-73421428D02*
X163935180Y-73611904D01*
X163935180Y-73611904D02*
X163887561Y-73707142D01*
X163887561Y-73707142D02*
X163839942Y-73754761D01*
X163839942Y-73754761D02*
X163744704Y-73802380D01*
X163744704Y-73802380D02*
X163506609Y-73802380D01*
X163506609Y-73802380D02*
X163411371Y-73754761D01*
X163411371Y-73754761D02*
X163363752Y-73707142D01*
X163363752Y-73707142D02*
X163316133Y-73611904D01*
X163316133Y-73611904D02*
X163316133Y-73421428D01*
X163316133Y-73421428D02*
X163363752Y-73326190D01*
X163363752Y-73326190D02*
X163411371Y-73278571D01*
X163411371Y-73278571D02*
X163506609Y-73230952D01*
X163839942Y-72849999D02*
X163887561Y-72802380D01*
X163887561Y-72802380D02*
X163935180Y-72707142D01*
X163935180Y-72707142D02*
X163935180Y-72469047D01*
X163935180Y-72469047D02*
X163887561Y-72373809D01*
X163887561Y-72373809D02*
X163839942Y-72326190D01*
X163839942Y-72326190D02*
X163744704Y-72278571D01*
X163744704Y-72278571D02*
X163649466Y-72278571D01*
X163649466Y-72278571D02*
X163506609Y-72326190D01*
X163506609Y-72326190D02*
X162935180Y-72897618D01*
X162935180Y-72897618D02*
X162935180Y-72278571D01*
X157238094Y-108306819D02*
X156666666Y-108306819D01*
X156952380Y-109306819D02*
X156952380Y-108306819D01*
X156333332Y-109306819D02*
X156333332Y-108306819D01*
X156333332Y-108306819D02*
X155952380Y-108306819D01*
X155952380Y-108306819D02*
X155857142Y-108354438D01*
X155857142Y-108354438D02*
X155809523Y-108402057D01*
X155809523Y-108402057D02*
X155761904Y-108497295D01*
X155761904Y-108497295D02*
X155761904Y-108640152D01*
X155761904Y-108640152D02*
X155809523Y-108735390D01*
X155809523Y-108735390D02*
X155857142Y-108783009D01*
X155857142Y-108783009D02*
X155952380Y-108830628D01*
X155952380Y-108830628D02*
X156333332Y-108830628D01*
X154809523Y-109306819D02*
X155380951Y-109306819D01*
X155095237Y-109306819D02*
X155095237Y-108306819D01*
X155095237Y-108306819D02*
X155190475Y-108449676D01*
X155190475Y-108449676D02*
X155285713Y-108544914D01*
X155285713Y-108544914D02*
X155380951Y-108592533D01*
X153857142Y-109306819D02*
X154428570Y-109306819D01*
X154142856Y-109306819D02*
X154142856Y-108306819D01*
X154142856Y-108306819D02*
X154238094Y-108449676D01*
X154238094Y-108449676D02*
X154333332Y-108544914D01*
X154333332Y-108544914D02*
X154428570Y-108592533D01*
X165238094Y-126806819D02*
X164666666Y-126806819D01*
X164952380Y-127806819D02*
X164952380Y-126806819D01*
X164333332Y-127806819D02*
X164333332Y-126806819D01*
X164333332Y-126806819D02*
X163952380Y-126806819D01*
X163952380Y-126806819D02*
X163857142Y-126854438D01*
X163857142Y-126854438D02*
X163809523Y-126902057D01*
X163809523Y-126902057D02*
X163761904Y-126997295D01*
X163761904Y-126997295D02*
X163761904Y-127140152D01*
X163761904Y-127140152D02*
X163809523Y-127235390D01*
X163809523Y-127235390D02*
X163857142Y-127283009D01*
X163857142Y-127283009D02*
X163952380Y-127330628D01*
X163952380Y-127330628D02*
X164333332Y-127330628D01*
X162809523Y-127806819D02*
X163380951Y-127806819D01*
X163095237Y-127806819D02*
X163095237Y-126806819D01*
X163095237Y-126806819D02*
X163190475Y-126949676D01*
X163190475Y-126949676D02*
X163285713Y-127044914D01*
X163285713Y-127044914D02*
X163380951Y-127092533D01*
X162476189Y-126806819D02*
X161857142Y-126806819D01*
X161857142Y-126806819D02*
X162190475Y-127187771D01*
X162190475Y-127187771D02*
X162047618Y-127187771D01*
X162047618Y-127187771D02*
X161952380Y-127235390D01*
X161952380Y-127235390D02*
X161904761Y-127283009D01*
X161904761Y-127283009D02*
X161857142Y-127378247D01*
X161857142Y-127378247D02*
X161857142Y-127616342D01*
X161857142Y-127616342D02*
X161904761Y-127711580D01*
X161904761Y-127711580D02*
X161952380Y-127759200D01*
X161952380Y-127759200D02*
X162047618Y-127806819D01*
X162047618Y-127806819D02*
X162333332Y-127806819D01*
X162333332Y-127806819D02*
X162428570Y-127759200D01*
X162428570Y-127759200D02*
X162476189Y-127711580D01*
X197092857Y-66989580D02*
X197140476Y-67037200D01*
X197140476Y-67037200D02*
X197283333Y-67084819D01*
X197283333Y-67084819D02*
X197378571Y-67084819D01*
X197378571Y-67084819D02*
X197521428Y-67037200D01*
X197521428Y-67037200D02*
X197616666Y-66941961D01*
X197616666Y-66941961D02*
X197664285Y-66846723D01*
X197664285Y-66846723D02*
X197711904Y-66656247D01*
X197711904Y-66656247D02*
X197711904Y-66513390D01*
X197711904Y-66513390D02*
X197664285Y-66322914D01*
X197664285Y-66322914D02*
X197616666Y-66227676D01*
X197616666Y-66227676D02*
X197521428Y-66132438D01*
X197521428Y-66132438D02*
X197378571Y-66084819D01*
X197378571Y-66084819D02*
X197283333Y-66084819D01*
X197283333Y-66084819D02*
X197140476Y-66132438D01*
X197140476Y-66132438D02*
X197092857Y-66180057D01*
X196711904Y-66180057D02*
X196664285Y-66132438D01*
X196664285Y-66132438D02*
X196569047Y-66084819D01*
X196569047Y-66084819D02*
X196330952Y-66084819D01*
X196330952Y-66084819D02*
X196235714Y-66132438D01*
X196235714Y-66132438D02*
X196188095Y-66180057D01*
X196188095Y-66180057D02*
X196140476Y-66275295D01*
X196140476Y-66275295D02*
X196140476Y-66370533D01*
X196140476Y-66370533D02*
X196188095Y-66513390D01*
X196188095Y-66513390D02*
X196759523Y-67084819D01*
X196759523Y-67084819D02*
X196140476Y-67084819D01*
X195521428Y-66084819D02*
X195426190Y-66084819D01*
X195426190Y-66084819D02*
X195330952Y-66132438D01*
X195330952Y-66132438D02*
X195283333Y-66180057D01*
X195283333Y-66180057D02*
X195235714Y-66275295D01*
X195235714Y-66275295D02*
X195188095Y-66465771D01*
X195188095Y-66465771D02*
X195188095Y-66703866D01*
X195188095Y-66703866D02*
X195235714Y-66894342D01*
X195235714Y-66894342D02*
X195283333Y-66989580D01*
X195283333Y-66989580D02*
X195330952Y-67037200D01*
X195330952Y-67037200D02*
X195426190Y-67084819D01*
X195426190Y-67084819D02*
X195521428Y-67084819D01*
X195521428Y-67084819D02*
X195616666Y-67037200D01*
X195616666Y-67037200D02*
X195664285Y-66989580D01*
X195664285Y-66989580D02*
X195711904Y-66894342D01*
X195711904Y-66894342D02*
X195759523Y-66703866D01*
X195759523Y-66703866D02*
X195759523Y-66465771D01*
X195759523Y-66465771D02*
X195711904Y-66275295D01*
X195711904Y-66275295D02*
X195664285Y-66180057D01*
X195664285Y-66180057D02*
X195616666Y-66132438D01*
X195616666Y-66132438D02*
X195521428Y-66084819D01*
X164142857Y-121024819D02*
X164476190Y-120548628D01*
X164714285Y-121024819D02*
X164714285Y-120024819D01*
X164714285Y-120024819D02*
X164333333Y-120024819D01*
X164333333Y-120024819D02*
X164238095Y-120072438D01*
X164238095Y-120072438D02*
X164190476Y-120120057D01*
X164190476Y-120120057D02*
X164142857Y-120215295D01*
X164142857Y-120215295D02*
X164142857Y-120358152D01*
X164142857Y-120358152D02*
X164190476Y-120453390D01*
X164190476Y-120453390D02*
X164238095Y-120501009D01*
X164238095Y-120501009D02*
X164333333Y-120548628D01*
X164333333Y-120548628D02*
X164714285Y-120548628D01*
X163190476Y-121024819D02*
X163761904Y-121024819D01*
X163476190Y-121024819D02*
X163476190Y-120024819D01*
X163476190Y-120024819D02*
X163571428Y-120167676D01*
X163571428Y-120167676D02*
X163666666Y-120262914D01*
X163666666Y-120262914D02*
X163761904Y-120310533D01*
X162571428Y-120024819D02*
X162476190Y-120024819D01*
X162476190Y-120024819D02*
X162380952Y-120072438D01*
X162380952Y-120072438D02*
X162333333Y-120120057D01*
X162333333Y-120120057D02*
X162285714Y-120215295D01*
X162285714Y-120215295D02*
X162238095Y-120405771D01*
X162238095Y-120405771D02*
X162238095Y-120643866D01*
X162238095Y-120643866D02*
X162285714Y-120834342D01*
X162285714Y-120834342D02*
X162333333Y-120929580D01*
X162333333Y-120929580D02*
X162380952Y-120977200D01*
X162380952Y-120977200D02*
X162476190Y-121024819D01*
X162476190Y-121024819D02*
X162571428Y-121024819D01*
X162571428Y-121024819D02*
X162666666Y-120977200D01*
X162666666Y-120977200D02*
X162714285Y-120929580D01*
X162714285Y-120929580D02*
X162761904Y-120834342D01*
X162761904Y-120834342D02*
X162809523Y-120643866D01*
X162809523Y-120643866D02*
X162809523Y-120405771D01*
X162809523Y-120405771D02*
X162761904Y-120215295D01*
X162761904Y-120215295D02*
X162714285Y-120120057D01*
X162714285Y-120120057D02*
X162666666Y-120072438D01*
X162666666Y-120072438D02*
X162571428Y-120024819D01*
X175200029Y-95473782D02*
X175247649Y-95426163D01*
X175247649Y-95426163D02*
X175295268Y-95283306D01*
X175295268Y-95283306D02*
X175295268Y-95188068D01*
X175295268Y-95188068D02*
X175247649Y-95045211D01*
X175247649Y-95045211D02*
X175152410Y-94949973D01*
X175152410Y-94949973D02*
X175057172Y-94902354D01*
X175057172Y-94902354D02*
X174866696Y-94854735D01*
X174866696Y-94854735D02*
X174723839Y-94854735D01*
X174723839Y-94854735D02*
X174533363Y-94902354D01*
X174533363Y-94902354D02*
X174438125Y-94949973D01*
X174438125Y-94949973D02*
X174342887Y-95045211D01*
X174342887Y-95045211D02*
X174295268Y-95188068D01*
X174295268Y-95188068D02*
X174295268Y-95283306D01*
X174295268Y-95283306D02*
X174342887Y-95426163D01*
X174342887Y-95426163D02*
X174390506Y-95473782D01*
X174295268Y-95807116D02*
X174295268Y-96426163D01*
X174295268Y-96426163D02*
X174676220Y-96092830D01*
X174676220Y-96092830D02*
X174676220Y-96235687D01*
X174676220Y-96235687D02*
X174723839Y-96330925D01*
X174723839Y-96330925D02*
X174771458Y-96378544D01*
X174771458Y-96378544D02*
X174866696Y-96426163D01*
X174866696Y-96426163D02*
X175104791Y-96426163D01*
X175104791Y-96426163D02*
X175200029Y-96378544D01*
X175200029Y-96378544D02*
X175247649Y-96330925D01*
X175247649Y-96330925D02*
X175295268Y-96235687D01*
X175295268Y-96235687D02*
X175295268Y-95949973D01*
X175295268Y-95949973D02*
X175247649Y-95854735D01*
X175247649Y-95854735D02*
X175200029Y-95807116D01*
X138361009Y-122666666D02*
X138361009Y-122333333D01*
X138884819Y-122333333D02*
X137884819Y-122333333D01*
X137884819Y-122333333D02*
X137884819Y-122809523D01*
X138361009Y-123523809D02*
X138408628Y-123666666D01*
X138408628Y-123666666D02*
X138456247Y-123714285D01*
X138456247Y-123714285D02*
X138551485Y-123761904D01*
X138551485Y-123761904D02*
X138694342Y-123761904D01*
X138694342Y-123761904D02*
X138789580Y-123714285D01*
X138789580Y-123714285D02*
X138837200Y-123666666D01*
X138837200Y-123666666D02*
X138884819Y-123571428D01*
X138884819Y-123571428D02*
X138884819Y-123190476D01*
X138884819Y-123190476D02*
X137884819Y-123190476D01*
X137884819Y-123190476D02*
X137884819Y-123523809D01*
X137884819Y-123523809D02*
X137932438Y-123619047D01*
X137932438Y-123619047D02*
X137980057Y-123666666D01*
X137980057Y-123666666D02*
X138075295Y-123714285D01*
X138075295Y-123714285D02*
X138170533Y-123714285D01*
X138170533Y-123714285D02*
X138265771Y-123666666D01*
X138265771Y-123666666D02*
X138313390Y-123619047D01*
X138313390Y-123619047D02*
X138361009Y-123523809D01*
X138361009Y-123523809D02*
X138361009Y-123190476D01*
X137980057Y-124142857D02*
X137932438Y-124190476D01*
X137932438Y-124190476D02*
X137884819Y-124285714D01*
X137884819Y-124285714D02*
X137884819Y-124523809D01*
X137884819Y-124523809D02*
X137932438Y-124619047D01*
X137932438Y-124619047D02*
X137980057Y-124666666D01*
X137980057Y-124666666D02*
X138075295Y-124714285D01*
X138075295Y-124714285D02*
X138170533Y-124714285D01*
X138170533Y-124714285D02*
X138313390Y-124666666D01*
X138313390Y-124666666D02*
X138884819Y-124095238D01*
X138884819Y-124095238D02*
X138884819Y-124714285D01*
X159011043Y-100095268D02*
X159011043Y-99095268D01*
X159011043Y-99095268D02*
X158772948Y-99095268D01*
X158772948Y-99095268D02*
X158630091Y-99142887D01*
X158630091Y-99142887D02*
X158534853Y-99238125D01*
X158534853Y-99238125D02*
X158487234Y-99333363D01*
X158487234Y-99333363D02*
X158439615Y-99523839D01*
X158439615Y-99523839D02*
X158439615Y-99666696D01*
X158439615Y-99666696D02*
X158487234Y-99857172D01*
X158487234Y-99857172D02*
X158534853Y-99952410D01*
X158534853Y-99952410D02*
X158630091Y-100047649D01*
X158630091Y-100047649D02*
X158772948Y-100095268D01*
X158772948Y-100095268D02*
X159011043Y-100095268D01*
X157487234Y-100095268D02*
X158058662Y-100095268D01*
X157772948Y-100095268D02*
X157772948Y-99095268D01*
X157772948Y-99095268D02*
X157868186Y-99238125D01*
X157868186Y-99238125D02*
X157963424Y-99333363D01*
X157963424Y-99333363D02*
X158058662Y-99380982D01*
X157454819Y-116238095D02*
X158264342Y-116238095D01*
X158264342Y-116238095D02*
X158359580Y-116285714D01*
X158359580Y-116285714D02*
X158407200Y-116333333D01*
X158407200Y-116333333D02*
X158454819Y-116428571D01*
X158454819Y-116428571D02*
X158454819Y-116619047D01*
X158454819Y-116619047D02*
X158407200Y-116714285D01*
X158407200Y-116714285D02*
X158359580Y-116761904D01*
X158359580Y-116761904D02*
X158264342Y-116809523D01*
X158264342Y-116809523D02*
X157454819Y-116809523D01*
X157788152Y-117714285D02*
X158454819Y-117714285D01*
X157407200Y-117476190D02*
X158121485Y-117238095D01*
X158121485Y-117238095D02*
X158121485Y-117857142D01*
X160055819Y-119651000D02*
X160293914Y-119651000D01*
X160198676Y-119412905D02*
X160293914Y-119651000D01*
X160293914Y-119651000D02*
X160198676Y-119889095D01*
X160484390Y-119508143D02*
X160293914Y-119651000D01*
X160293914Y-119651000D02*
X160484390Y-119793857D01*
X161146180Y-119650999D02*
X160908085Y-119650999D01*
X161003323Y-119889094D02*
X160908085Y-119650999D01*
X160908085Y-119650999D02*
X161003323Y-119412904D01*
X160717609Y-119793856D02*
X160908085Y-119650999D01*
X160908085Y-119650999D02*
X160717609Y-119508142D01*
X132429580Y-122857142D02*
X132477200Y-122809523D01*
X132477200Y-122809523D02*
X132524819Y-122666666D01*
X132524819Y-122666666D02*
X132524819Y-122571428D01*
X132524819Y-122571428D02*
X132477200Y-122428571D01*
X132477200Y-122428571D02*
X132381961Y-122333333D01*
X132381961Y-122333333D02*
X132286723Y-122285714D01*
X132286723Y-122285714D02*
X132096247Y-122238095D01*
X132096247Y-122238095D02*
X131953390Y-122238095D01*
X131953390Y-122238095D02*
X131762914Y-122285714D01*
X131762914Y-122285714D02*
X131667676Y-122333333D01*
X131667676Y-122333333D02*
X131572438Y-122428571D01*
X131572438Y-122428571D02*
X131524819Y-122571428D01*
X131524819Y-122571428D02*
X131524819Y-122666666D01*
X131524819Y-122666666D02*
X131572438Y-122809523D01*
X131572438Y-122809523D02*
X131620057Y-122857142D01*
X132524819Y-123809523D02*
X132524819Y-123238095D01*
X132524819Y-123523809D02*
X131524819Y-123523809D01*
X131524819Y-123523809D02*
X131667676Y-123428571D01*
X131667676Y-123428571D02*
X131762914Y-123333333D01*
X131762914Y-123333333D02*
X131810533Y-123238095D01*
X131858152Y-124666666D02*
X132524819Y-124666666D01*
X131477200Y-124428571D02*
X132191485Y-124190476D01*
X132191485Y-124190476D02*
X132191485Y-124809523D01*
X138238094Y-63306819D02*
X137666666Y-63306819D01*
X137952380Y-64306819D02*
X137952380Y-63306819D01*
X137333332Y-64306819D02*
X137333332Y-63306819D01*
X137333332Y-63306819D02*
X136952380Y-63306819D01*
X136952380Y-63306819D02*
X136857142Y-63354438D01*
X136857142Y-63354438D02*
X136809523Y-63402057D01*
X136809523Y-63402057D02*
X136761904Y-63497295D01*
X136761904Y-63497295D02*
X136761904Y-63640152D01*
X136761904Y-63640152D02*
X136809523Y-63735390D01*
X136809523Y-63735390D02*
X136857142Y-63783009D01*
X136857142Y-63783009D02*
X136952380Y-63830628D01*
X136952380Y-63830628D02*
X137333332Y-63830628D01*
X135809523Y-64306819D02*
X136380951Y-64306819D01*
X136095237Y-64306819D02*
X136095237Y-63306819D01*
X136095237Y-63306819D02*
X136190475Y-63449676D01*
X136190475Y-63449676D02*
X136285713Y-63544914D01*
X136285713Y-63544914D02*
X136380951Y-63592533D01*
X134952380Y-63640152D02*
X134952380Y-64306819D01*
X135190475Y-63259200D02*
X135428570Y-63973485D01*
X135428570Y-63973485D02*
X134809523Y-63973485D01*
X139166666Y-54384819D02*
X139499999Y-53908628D01*
X139738094Y-54384819D02*
X139738094Y-53384819D01*
X139738094Y-53384819D02*
X139357142Y-53384819D01*
X139357142Y-53384819D02*
X139261904Y-53432438D01*
X139261904Y-53432438D02*
X139214285Y-53480057D01*
X139214285Y-53480057D02*
X139166666Y-53575295D01*
X139166666Y-53575295D02*
X139166666Y-53718152D01*
X139166666Y-53718152D02*
X139214285Y-53813390D01*
X139214285Y-53813390D02*
X139261904Y-53861009D01*
X139261904Y-53861009D02*
X139357142Y-53908628D01*
X139357142Y-53908628D02*
X139738094Y-53908628D01*
X138785713Y-53480057D02*
X138738094Y-53432438D01*
X138738094Y-53432438D02*
X138642856Y-53384819D01*
X138642856Y-53384819D02*
X138404761Y-53384819D01*
X138404761Y-53384819D02*
X138309523Y-53432438D01*
X138309523Y-53432438D02*
X138261904Y-53480057D01*
X138261904Y-53480057D02*
X138214285Y-53575295D01*
X138214285Y-53575295D02*
X138214285Y-53670533D01*
X138214285Y-53670533D02*
X138261904Y-53813390D01*
X138261904Y-53813390D02*
X138833332Y-54384819D01*
X138833332Y-54384819D02*
X138214285Y-54384819D01*
X157931009Y-130214285D02*
X157978628Y-130357142D01*
X157978628Y-130357142D02*
X158026247Y-130404761D01*
X158026247Y-130404761D02*
X158121485Y-130452380D01*
X158121485Y-130452380D02*
X158264342Y-130452380D01*
X158264342Y-130452380D02*
X158359580Y-130404761D01*
X158359580Y-130404761D02*
X158407200Y-130357142D01*
X158407200Y-130357142D02*
X158454819Y-130261904D01*
X158454819Y-130261904D02*
X158454819Y-129880952D01*
X158454819Y-129880952D02*
X157454819Y-129880952D01*
X157454819Y-129880952D02*
X157454819Y-130214285D01*
X157454819Y-130214285D02*
X157502438Y-130309523D01*
X157502438Y-130309523D02*
X157550057Y-130357142D01*
X157550057Y-130357142D02*
X157645295Y-130404761D01*
X157645295Y-130404761D02*
X157740533Y-130404761D01*
X157740533Y-130404761D02*
X157835771Y-130357142D01*
X157835771Y-130357142D02*
X157883390Y-130309523D01*
X157883390Y-130309523D02*
X157931009Y-130214285D01*
X157931009Y-130214285D02*
X157931009Y-129880952D01*
X157454819Y-130738095D02*
X157454819Y-131309523D01*
X158454819Y-131023809D02*
X157454819Y-131023809D01*
X158454819Y-132166666D02*
X158454819Y-131595238D01*
X158454819Y-131880952D02*
X157454819Y-131880952D01*
X157454819Y-131880952D02*
X157597676Y-131785714D01*
X157597676Y-131785714D02*
X157692914Y-131690476D01*
X157692914Y-131690476D02*
X157740533Y-131595238D01*
X130954819Y-54666666D02*
X131669104Y-54666666D01*
X131669104Y-54666666D02*
X131811961Y-54619047D01*
X131811961Y-54619047D02*
X131907200Y-54523809D01*
X131907200Y-54523809D02*
X131954819Y-54380952D01*
X131954819Y-54380952D02*
X131954819Y-54285714D01*
X131954819Y-55666666D02*
X131954819Y-55095238D01*
X131954819Y-55380952D02*
X130954819Y-55380952D01*
X130954819Y-55380952D02*
X131097676Y-55285714D01*
X131097676Y-55285714D02*
X131192914Y-55190476D01*
X131192914Y-55190476D02*
X131240533Y-55095238D01*
D11*
X202834800Y-79190476D02*
X202882419Y-79333333D01*
X202882419Y-79333333D02*
X202882419Y-79571428D01*
X202882419Y-79571428D02*
X202834800Y-79666666D01*
X202834800Y-79666666D02*
X202787180Y-79714285D01*
X202787180Y-79714285D02*
X202691942Y-79761904D01*
X202691942Y-79761904D02*
X202596704Y-79761904D01*
X202596704Y-79761904D02*
X202501466Y-79714285D01*
X202501466Y-79714285D02*
X202453847Y-79666666D01*
X202453847Y-79666666D02*
X202406228Y-79571428D01*
X202406228Y-79571428D02*
X202358609Y-79380952D01*
X202358609Y-79380952D02*
X202310990Y-79285714D01*
X202310990Y-79285714D02*
X202263371Y-79238095D01*
X202263371Y-79238095D02*
X202168133Y-79190476D01*
X202168133Y-79190476D02*
X202072895Y-79190476D01*
X202072895Y-79190476D02*
X201977657Y-79238095D01*
X201977657Y-79238095D02*
X201930038Y-79285714D01*
X201930038Y-79285714D02*
X201882419Y-79380952D01*
X201882419Y-79380952D02*
X201882419Y-79619047D01*
X201882419Y-79619047D02*
X201930038Y-79761904D01*
X201882419Y-80095238D02*
X202882419Y-80333333D01*
X202882419Y-80333333D02*
X202168133Y-80523809D01*
X202168133Y-80523809D02*
X202882419Y-80714285D01*
X202882419Y-80714285D02*
X201882419Y-80952381D01*
X202882419Y-81857142D02*
X202882419Y-81285714D01*
X202882419Y-81571428D02*
X201882419Y-81571428D01*
X201882419Y-81571428D02*
X202025276Y-81476190D01*
X202025276Y-81476190D02*
X202120514Y-81380952D01*
X202120514Y-81380952D02*
X202168133Y-81285714D01*
X202882419Y-82809523D02*
X202882419Y-82238095D01*
X202882419Y-82523809D02*
X201882419Y-82523809D01*
X201882419Y-82523809D02*
X202025276Y-82428571D01*
X202025276Y-82428571D02*
X202120514Y-82333333D01*
X202120514Y-82333333D02*
X202168133Y-82238095D01*
D10*
X164642857Y-80034819D02*
X164976190Y-79558628D01*
X165214285Y-80034819D02*
X165214285Y-79034819D01*
X165214285Y-79034819D02*
X164833333Y-79034819D01*
X164833333Y-79034819D02*
X164738095Y-79082438D01*
X164738095Y-79082438D02*
X164690476Y-79130057D01*
X164690476Y-79130057D02*
X164642857Y-79225295D01*
X164642857Y-79225295D02*
X164642857Y-79368152D01*
X164642857Y-79368152D02*
X164690476Y-79463390D01*
X164690476Y-79463390D02*
X164738095Y-79511009D01*
X164738095Y-79511009D02*
X164833333Y-79558628D01*
X164833333Y-79558628D02*
X165214285Y-79558628D01*
X164261904Y-79130057D02*
X164214285Y-79082438D01*
X164214285Y-79082438D02*
X164119047Y-79034819D01*
X164119047Y-79034819D02*
X163880952Y-79034819D01*
X163880952Y-79034819D02*
X163785714Y-79082438D01*
X163785714Y-79082438D02*
X163738095Y-79130057D01*
X163738095Y-79130057D02*
X163690476Y-79225295D01*
X163690476Y-79225295D02*
X163690476Y-79320533D01*
X163690476Y-79320533D02*
X163738095Y-79463390D01*
X163738095Y-79463390D02*
X164309523Y-80034819D01*
X164309523Y-80034819D02*
X163690476Y-80034819D01*
X162738095Y-80034819D02*
X163309523Y-80034819D01*
X163023809Y-80034819D02*
X163023809Y-79034819D01*
X163023809Y-79034819D02*
X163119047Y-79177676D01*
X163119047Y-79177676D02*
X163214285Y-79272914D01*
X163214285Y-79272914D02*
X163309523Y-79320533D01*
X144909580Y-60433333D02*
X144957200Y-60385714D01*
X144957200Y-60385714D02*
X145004819Y-60242857D01*
X145004819Y-60242857D02*
X145004819Y-60147619D01*
X145004819Y-60147619D02*
X144957200Y-60004762D01*
X144957200Y-60004762D02*
X144861961Y-59909524D01*
X144861961Y-59909524D02*
X144766723Y-59861905D01*
X144766723Y-59861905D02*
X144576247Y-59814286D01*
X144576247Y-59814286D02*
X144433390Y-59814286D01*
X144433390Y-59814286D02*
X144242914Y-59861905D01*
X144242914Y-59861905D02*
X144147676Y-59909524D01*
X144147676Y-59909524D02*
X144052438Y-60004762D01*
X144052438Y-60004762D02*
X144004819Y-60147619D01*
X144004819Y-60147619D02*
X144004819Y-60242857D01*
X144004819Y-60242857D02*
X144052438Y-60385714D01*
X144052438Y-60385714D02*
X144100057Y-60433333D01*
X145004819Y-61385714D02*
X145004819Y-60814286D01*
X145004819Y-61100000D02*
X144004819Y-61100000D01*
X144004819Y-61100000D02*
X144147676Y-61004762D01*
X144147676Y-61004762D02*
X144242914Y-60909524D01*
X144242914Y-60909524D02*
X144290533Y-60814286D01*
X145789580Y-111769642D02*
X145837200Y-111722023D01*
X145837200Y-111722023D02*
X145884819Y-111579166D01*
X145884819Y-111579166D02*
X145884819Y-111483928D01*
X145884819Y-111483928D02*
X145837200Y-111341071D01*
X145837200Y-111341071D02*
X145741961Y-111245833D01*
X145741961Y-111245833D02*
X145646723Y-111198214D01*
X145646723Y-111198214D02*
X145456247Y-111150595D01*
X145456247Y-111150595D02*
X145313390Y-111150595D01*
X145313390Y-111150595D02*
X145122914Y-111198214D01*
X145122914Y-111198214D02*
X145027676Y-111245833D01*
X145027676Y-111245833D02*
X144932438Y-111341071D01*
X144932438Y-111341071D02*
X144884819Y-111483928D01*
X144884819Y-111483928D02*
X144884819Y-111579166D01*
X144884819Y-111579166D02*
X144932438Y-111722023D01*
X144932438Y-111722023D02*
X144980057Y-111769642D01*
X145884819Y-112722023D02*
X145884819Y-112150595D01*
X145884819Y-112436309D02*
X144884819Y-112436309D01*
X144884819Y-112436309D02*
X145027676Y-112341071D01*
X145027676Y-112341071D02*
X145122914Y-112245833D01*
X145122914Y-112245833D02*
X145170533Y-112150595D01*
X145884819Y-113674404D02*
X145884819Y-113102976D01*
X145884819Y-113388690D02*
X144884819Y-113388690D01*
X144884819Y-113388690D02*
X145027676Y-113293452D01*
X145027676Y-113293452D02*
X145122914Y-113198214D01*
X145122914Y-113198214D02*
X145170533Y-113102976D01*
X164730357Y-81024819D02*
X165063690Y-80548628D01*
X165301785Y-81024819D02*
X165301785Y-80024819D01*
X165301785Y-80024819D02*
X164920833Y-80024819D01*
X164920833Y-80024819D02*
X164825595Y-80072438D01*
X164825595Y-80072438D02*
X164777976Y-80120057D01*
X164777976Y-80120057D02*
X164730357Y-80215295D01*
X164730357Y-80215295D02*
X164730357Y-80358152D01*
X164730357Y-80358152D02*
X164777976Y-80453390D01*
X164777976Y-80453390D02*
X164825595Y-80501009D01*
X164825595Y-80501009D02*
X164920833Y-80548628D01*
X164920833Y-80548628D02*
X165301785Y-80548628D01*
X164349404Y-80120057D02*
X164301785Y-80072438D01*
X164301785Y-80072438D02*
X164206547Y-80024819D01*
X164206547Y-80024819D02*
X163968452Y-80024819D01*
X163968452Y-80024819D02*
X163873214Y-80072438D01*
X163873214Y-80072438D02*
X163825595Y-80120057D01*
X163825595Y-80120057D02*
X163777976Y-80215295D01*
X163777976Y-80215295D02*
X163777976Y-80310533D01*
X163777976Y-80310533D02*
X163825595Y-80453390D01*
X163825595Y-80453390D02*
X164397023Y-81024819D01*
X164397023Y-81024819D02*
X163777976Y-81024819D01*
X162873214Y-80024819D02*
X163349404Y-80024819D01*
X163349404Y-80024819D02*
X163397023Y-80501009D01*
X163397023Y-80501009D02*
X163349404Y-80453390D01*
X163349404Y-80453390D02*
X163254166Y-80405771D01*
X163254166Y-80405771D02*
X163016071Y-80405771D01*
X163016071Y-80405771D02*
X162920833Y-80453390D01*
X162920833Y-80453390D02*
X162873214Y-80501009D01*
X162873214Y-80501009D02*
X162825595Y-80596247D01*
X162825595Y-80596247D02*
X162825595Y-80834342D01*
X162825595Y-80834342D02*
X162873214Y-80929580D01*
X162873214Y-80929580D02*
X162920833Y-80977200D01*
X162920833Y-80977200D02*
X163016071Y-81024819D01*
X163016071Y-81024819D02*
X163254166Y-81024819D01*
X163254166Y-81024819D02*
X163349404Y-80977200D01*
X163349404Y-80977200D02*
X163397023Y-80929580D01*
X180672353Y-94447268D02*
X180100925Y-94447268D01*
X180386639Y-95447268D02*
X180386639Y-94447268D01*
X179767591Y-95447268D02*
X179767591Y-94447268D01*
X179767591Y-94447268D02*
X179386639Y-94447268D01*
X179386639Y-94447268D02*
X179291401Y-94494887D01*
X179291401Y-94494887D02*
X179243782Y-94542506D01*
X179243782Y-94542506D02*
X179196163Y-94637744D01*
X179196163Y-94637744D02*
X179196163Y-94780601D01*
X179196163Y-94780601D02*
X179243782Y-94875839D01*
X179243782Y-94875839D02*
X179291401Y-94923458D01*
X179291401Y-94923458D02*
X179386639Y-94971077D01*
X179386639Y-94971077D02*
X179767591Y-94971077D01*
X178243782Y-95447268D02*
X178815210Y-95447268D01*
X178529496Y-95447268D02*
X178529496Y-94447268D01*
X178529496Y-94447268D02*
X178624734Y-94590125D01*
X178624734Y-94590125D02*
X178719972Y-94685363D01*
X178719972Y-94685363D02*
X178815210Y-94732982D01*
X141666666Y-114504819D02*
X141666666Y-113504819D01*
X141666666Y-113504819D02*
X141285714Y-113504819D01*
X141285714Y-113504819D02*
X141190476Y-113552438D01*
X141190476Y-113552438D02*
X141142857Y-113600057D01*
X141142857Y-113600057D02*
X141095238Y-113695295D01*
X141095238Y-113695295D02*
X141095238Y-113838152D01*
X141095238Y-113838152D02*
X141142857Y-113933390D01*
X141142857Y-113933390D02*
X141190476Y-113981009D01*
X141190476Y-113981009D02*
X141285714Y-114028628D01*
X141285714Y-114028628D02*
X141666666Y-114028628D01*
X140714285Y-114219104D02*
X140238095Y-114219104D01*
X140809523Y-114504819D02*
X140476190Y-113504819D01*
X140476190Y-113504819D02*
X140142857Y-114504819D01*
X139809523Y-114504819D02*
X139809523Y-113504819D01*
X139809523Y-113504819D02*
X139476190Y-114219104D01*
X139476190Y-114219104D02*
X139142857Y-113504819D01*
X139142857Y-113504819D02*
X139142857Y-114504819D01*
X138523809Y-113933390D02*
X138619047Y-113885771D01*
X138619047Y-113885771D02*
X138666666Y-113838152D01*
X138666666Y-113838152D02*
X138714285Y-113742914D01*
X138714285Y-113742914D02*
X138714285Y-113695295D01*
X138714285Y-113695295D02*
X138666666Y-113600057D01*
X138666666Y-113600057D02*
X138619047Y-113552438D01*
X138619047Y-113552438D02*
X138523809Y-113504819D01*
X138523809Y-113504819D02*
X138333333Y-113504819D01*
X138333333Y-113504819D02*
X138238095Y-113552438D01*
X138238095Y-113552438D02*
X138190476Y-113600057D01*
X138190476Y-113600057D02*
X138142857Y-113695295D01*
X138142857Y-113695295D02*
X138142857Y-113742914D01*
X138142857Y-113742914D02*
X138190476Y-113838152D01*
X138190476Y-113838152D02*
X138238095Y-113885771D01*
X138238095Y-113885771D02*
X138333333Y-113933390D01*
X138333333Y-113933390D02*
X138523809Y-113933390D01*
X138523809Y-113933390D02*
X138619047Y-113981009D01*
X138619047Y-113981009D02*
X138666666Y-114028628D01*
X138666666Y-114028628D02*
X138714285Y-114123866D01*
X138714285Y-114123866D02*
X138714285Y-114314342D01*
X138714285Y-114314342D02*
X138666666Y-114409580D01*
X138666666Y-114409580D02*
X138619047Y-114457200D01*
X138619047Y-114457200D02*
X138523809Y-114504819D01*
X138523809Y-114504819D02*
X138333333Y-114504819D01*
X138333333Y-114504819D02*
X138238095Y-114457200D01*
X138238095Y-114457200D02*
X138190476Y-114409580D01*
X138190476Y-114409580D02*
X138142857Y-114314342D01*
X138142857Y-114314342D02*
X138142857Y-114123866D01*
X138142857Y-114123866D02*
X138190476Y-114028628D01*
X138190476Y-114028628D02*
X138238095Y-113981009D01*
X138238095Y-113981009D02*
X138333333Y-113933390D01*
X137285714Y-113838152D02*
X137285714Y-114504819D01*
X137523809Y-113457200D02*
X137761904Y-114171485D01*
X137761904Y-114171485D02*
X137142857Y-114171485D01*
X136571428Y-113504819D02*
X136476190Y-113504819D01*
X136476190Y-113504819D02*
X136380952Y-113552438D01*
X136380952Y-113552438D02*
X136333333Y-113600057D01*
X136333333Y-113600057D02*
X136285714Y-113695295D01*
X136285714Y-113695295D02*
X136238095Y-113885771D01*
X136238095Y-113885771D02*
X136238095Y-114123866D01*
X136238095Y-114123866D02*
X136285714Y-114314342D01*
X136285714Y-114314342D02*
X136333333Y-114409580D01*
X136333333Y-114409580D02*
X136380952Y-114457200D01*
X136380952Y-114457200D02*
X136476190Y-114504819D01*
X136476190Y-114504819D02*
X136571428Y-114504819D01*
X136571428Y-114504819D02*
X136666666Y-114457200D01*
X136666666Y-114457200D02*
X136714285Y-114409580D01*
X136714285Y-114409580D02*
X136761904Y-114314342D01*
X136761904Y-114314342D02*
X136809523Y-114123866D01*
X136809523Y-114123866D02*
X136809523Y-113885771D01*
X136809523Y-113885771D02*
X136761904Y-113695295D01*
X136761904Y-113695295D02*
X136714285Y-113600057D01*
X136714285Y-113600057D02*
X136666666Y-113552438D01*
X136666666Y-113552438D02*
X136571428Y-113504819D01*
X135904761Y-113504819D02*
X135285714Y-113504819D01*
X135285714Y-113504819D02*
X135619047Y-113885771D01*
X135619047Y-113885771D02*
X135476190Y-113885771D01*
X135476190Y-113885771D02*
X135380952Y-113933390D01*
X135380952Y-113933390D02*
X135333333Y-113981009D01*
X135333333Y-113981009D02*
X135285714Y-114076247D01*
X135285714Y-114076247D02*
X135285714Y-114314342D01*
X135285714Y-114314342D02*
X135333333Y-114409580D01*
X135333333Y-114409580D02*
X135380952Y-114457200D01*
X135380952Y-114457200D02*
X135476190Y-114504819D01*
X135476190Y-114504819D02*
X135761904Y-114504819D01*
X135761904Y-114504819D02*
X135857142Y-114457200D01*
X135857142Y-114457200D02*
X135904761Y-114409580D01*
X168577115Y-98595268D02*
X169053305Y-98595268D01*
X169053305Y-98595268D02*
X169053305Y-97595268D01*
X167719972Y-98595268D02*
X168291400Y-98595268D01*
X168005686Y-98595268D02*
X168005686Y-97595268D01*
X168005686Y-97595268D02*
X168100924Y-97738125D01*
X168100924Y-97738125D02*
X168196162Y-97833363D01*
X168196162Y-97833363D02*
X168291400Y-97880982D01*
X197042857Y-59224819D02*
X197376190Y-58748628D01*
X197614285Y-59224819D02*
X197614285Y-58224819D01*
X197614285Y-58224819D02*
X197233333Y-58224819D01*
X197233333Y-58224819D02*
X197138095Y-58272438D01*
X197138095Y-58272438D02*
X197090476Y-58320057D01*
X197090476Y-58320057D02*
X197042857Y-58415295D01*
X197042857Y-58415295D02*
X197042857Y-58558152D01*
X197042857Y-58558152D02*
X197090476Y-58653390D01*
X197090476Y-58653390D02*
X197138095Y-58701009D01*
X197138095Y-58701009D02*
X197233333Y-58748628D01*
X197233333Y-58748628D02*
X197614285Y-58748628D01*
X196090476Y-59224819D02*
X196661904Y-59224819D01*
X196376190Y-59224819D02*
X196376190Y-58224819D01*
X196376190Y-58224819D02*
X196471428Y-58367676D01*
X196471428Y-58367676D02*
X196566666Y-58462914D01*
X196566666Y-58462914D02*
X196661904Y-58510533D01*
X195757142Y-58224819D02*
X195090476Y-58224819D01*
X195090476Y-58224819D02*
X195519047Y-59224819D01*
X150261904Y-64354819D02*
X150261904Y-65164342D01*
X150261904Y-65164342D02*
X150214285Y-65259580D01*
X150214285Y-65259580D02*
X150166666Y-65307200D01*
X150166666Y-65307200D02*
X150071428Y-65354819D01*
X150071428Y-65354819D02*
X149880952Y-65354819D01*
X149880952Y-65354819D02*
X149785714Y-65307200D01*
X149785714Y-65307200D02*
X149738095Y-65259580D01*
X149738095Y-65259580D02*
X149690476Y-65164342D01*
X149690476Y-65164342D02*
X149690476Y-64354819D01*
X149261904Y-64450057D02*
X149214285Y-64402438D01*
X149214285Y-64402438D02*
X149119047Y-64354819D01*
X149119047Y-64354819D02*
X148880952Y-64354819D01*
X148880952Y-64354819D02*
X148785714Y-64402438D01*
X148785714Y-64402438D02*
X148738095Y-64450057D01*
X148738095Y-64450057D02*
X148690476Y-64545295D01*
X148690476Y-64545295D02*
X148690476Y-64640533D01*
X148690476Y-64640533D02*
X148738095Y-64783390D01*
X148738095Y-64783390D02*
X149309523Y-65354819D01*
X149309523Y-65354819D02*
X148690476Y-65354819D01*
X141361009Y-122666666D02*
X141361009Y-122333333D01*
X141884819Y-122333333D02*
X140884819Y-122333333D01*
X140884819Y-122333333D02*
X140884819Y-122809523D01*
X141361009Y-123523809D02*
X141408628Y-123666666D01*
X141408628Y-123666666D02*
X141456247Y-123714285D01*
X141456247Y-123714285D02*
X141551485Y-123761904D01*
X141551485Y-123761904D02*
X141694342Y-123761904D01*
X141694342Y-123761904D02*
X141789580Y-123714285D01*
X141789580Y-123714285D02*
X141837200Y-123666666D01*
X141837200Y-123666666D02*
X141884819Y-123571428D01*
X141884819Y-123571428D02*
X141884819Y-123190476D01*
X141884819Y-123190476D02*
X140884819Y-123190476D01*
X140884819Y-123190476D02*
X140884819Y-123523809D01*
X140884819Y-123523809D02*
X140932438Y-123619047D01*
X140932438Y-123619047D02*
X140980057Y-123666666D01*
X140980057Y-123666666D02*
X141075295Y-123714285D01*
X141075295Y-123714285D02*
X141170533Y-123714285D01*
X141170533Y-123714285D02*
X141265771Y-123666666D01*
X141265771Y-123666666D02*
X141313390Y-123619047D01*
X141313390Y-123619047D02*
X141361009Y-123523809D01*
X141361009Y-123523809D02*
X141361009Y-123190476D01*
X141884819Y-124714285D02*
X141884819Y-124142857D01*
X141884819Y-124428571D02*
X140884819Y-124428571D01*
X140884819Y-124428571D02*
X141027676Y-124333333D01*
X141027676Y-124333333D02*
X141122914Y-124238095D01*
X141122914Y-124238095D02*
X141170533Y-124142857D01*
X196616666Y-64489580D02*
X196664285Y-64537200D01*
X196664285Y-64537200D02*
X196807142Y-64584819D01*
X196807142Y-64584819D02*
X196902380Y-64584819D01*
X196902380Y-64584819D02*
X197045237Y-64537200D01*
X197045237Y-64537200D02*
X197140475Y-64441961D01*
X197140475Y-64441961D02*
X197188094Y-64346723D01*
X197188094Y-64346723D02*
X197235713Y-64156247D01*
X197235713Y-64156247D02*
X197235713Y-64013390D01*
X197235713Y-64013390D02*
X197188094Y-63822914D01*
X197188094Y-63822914D02*
X197140475Y-63727676D01*
X197140475Y-63727676D02*
X197045237Y-63632438D01*
X197045237Y-63632438D02*
X196902380Y-63584819D01*
X196902380Y-63584819D02*
X196807142Y-63584819D01*
X196807142Y-63584819D02*
X196664285Y-63632438D01*
X196664285Y-63632438D02*
X196616666Y-63680057D01*
X196140475Y-64584819D02*
X195949999Y-64584819D01*
X195949999Y-64584819D02*
X195854761Y-64537200D01*
X195854761Y-64537200D02*
X195807142Y-64489580D01*
X195807142Y-64489580D02*
X195711904Y-64346723D01*
X195711904Y-64346723D02*
X195664285Y-64156247D01*
X195664285Y-64156247D02*
X195664285Y-63775295D01*
X195664285Y-63775295D02*
X195711904Y-63680057D01*
X195711904Y-63680057D02*
X195759523Y-63632438D01*
X195759523Y-63632438D02*
X195854761Y-63584819D01*
X195854761Y-63584819D02*
X196045237Y-63584819D01*
X196045237Y-63584819D02*
X196140475Y-63632438D01*
X196140475Y-63632438D02*
X196188094Y-63680057D01*
X196188094Y-63680057D02*
X196235713Y-63775295D01*
X196235713Y-63775295D02*
X196235713Y-64013390D01*
X196235713Y-64013390D02*
X196188094Y-64108628D01*
X196188094Y-64108628D02*
X196140475Y-64156247D01*
X196140475Y-64156247D02*
X196045237Y-64203866D01*
X196045237Y-64203866D02*
X195854761Y-64203866D01*
X195854761Y-64203866D02*
X195759523Y-64156247D01*
X195759523Y-64156247D02*
X195711904Y-64108628D01*
X195711904Y-64108628D02*
X195664285Y-64013390D01*
D11*
X135992580Y-106811904D02*
X135183057Y-106811904D01*
X135183057Y-106811904D02*
X135087819Y-106764285D01*
X135087819Y-106764285D02*
X135040200Y-106716666D01*
X135040200Y-106716666D02*
X134992580Y-106621428D01*
X134992580Y-106621428D02*
X134992580Y-106430952D01*
X134992580Y-106430952D02*
X135040200Y-106335714D01*
X135040200Y-106335714D02*
X135087819Y-106288095D01*
X135087819Y-106288095D02*
X135183057Y-106240476D01*
X135183057Y-106240476D02*
X135992580Y-106240476D01*
X135992580Y-105335714D02*
X135992580Y-105526190D01*
X135992580Y-105526190D02*
X135944961Y-105621428D01*
X135944961Y-105621428D02*
X135897342Y-105669047D01*
X135897342Y-105669047D02*
X135754485Y-105764285D01*
X135754485Y-105764285D02*
X135564009Y-105811904D01*
X135564009Y-105811904D02*
X135183057Y-105811904D01*
X135183057Y-105811904D02*
X135087819Y-105764285D01*
X135087819Y-105764285D02*
X135040200Y-105716666D01*
X135040200Y-105716666D02*
X134992580Y-105621428D01*
X134992580Y-105621428D02*
X134992580Y-105430952D01*
X134992580Y-105430952D02*
X135040200Y-105335714D01*
X135040200Y-105335714D02*
X135087819Y-105288095D01*
X135087819Y-105288095D02*
X135183057Y-105240476D01*
X135183057Y-105240476D02*
X135421152Y-105240476D01*
X135421152Y-105240476D02*
X135516390Y-105288095D01*
X135516390Y-105288095D02*
X135564009Y-105335714D01*
X135564009Y-105335714D02*
X135611628Y-105430952D01*
X135611628Y-105430952D02*
X135611628Y-105621428D01*
X135611628Y-105621428D02*
X135564009Y-105716666D01*
X135564009Y-105716666D02*
X135516390Y-105764285D01*
X135516390Y-105764285D02*
X135421152Y-105811904D01*
D10*
X161666666Y-116384819D02*
X161999999Y-115908628D01*
X162238094Y-116384819D02*
X162238094Y-115384819D01*
X162238094Y-115384819D02*
X161857142Y-115384819D01*
X161857142Y-115384819D02*
X161761904Y-115432438D01*
X161761904Y-115432438D02*
X161714285Y-115480057D01*
X161714285Y-115480057D02*
X161666666Y-115575295D01*
X161666666Y-115575295D02*
X161666666Y-115718152D01*
X161666666Y-115718152D02*
X161714285Y-115813390D01*
X161714285Y-115813390D02*
X161761904Y-115861009D01*
X161761904Y-115861009D02*
X161857142Y-115908628D01*
X161857142Y-115908628D02*
X162238094Y-115908628D01*
X160809523Y-115384819D02*
X160999999Y-115384819D01*
X160999999Y-115384819D02*
X161095237Y-115432438D01*
X161095237Y-115432438D02*
X161142856Y-115480057D01*
X161142856Y-115480057D02*
X161238094Y-115622914D01*
X161238094Y-115622914D02*
X161285713Y-115813390D01*
X161285713Y-115813390D02*
X161285713Y-116194342D01*
X161285713Y-116194342D02*
X161238094Y-116289580D01*
X161238094Y-116289580D02*
X161190475Y-116337200D01*
X161190475Y-116337200D02*
X161095237Y-116384819D01*
X161095237Y-116384819D02*
X160904761Y-116384819D01*
X160904761Y-116384819D02*
X160809523Y-116337200D01*
X160809523Y-116337200D02*
X160761904Y-116289580D01*
X160761904Y-116289580D02*
X160714285Y-116194342D01*
X160714285Y-116194342D02*
X160714285Y-115956247D01*
X160714285Y-115956247D02*
X160761904Y-115861009D01*
X160761904Y-115861009D02*
X160809523Y-115813390D01*
X160809523Y-115813390D02*
X160904761Y-115765771D01*
X160904761Y-115765771D02*
X161095237Y-115765771D01*
X161095237Y-115765771D02*
X161190475Y-115813390D01*
X161190475Y-115813390D02*
X161238094Y-115861009D01*
X161238094Y-115861009D02*
X161285713Y-115956247D01*
X139166666Y-59384819D02*
X139499999Y-58908628D01*
X139738094Y-59384819D02*
X139738094Y-58384819D01*
X139738094Y-58384819D02*
X139357142Y-58384819D01*
X139357142Y-58384819D02*
X139261904Y-58432438D01*
X139261904Y-58432438D02*
X139214285Y-58480057D01*
X139214285Y-58480057D02*
X139166666Y-58575295D01*
X139166666Y-58575295D02*
X139166666Y-58718152D01*
X139166666Y-58718152D02*
X139214285Y-58813390D01*
X139214285Y-58813390D02*
X139261904Y-58861009D01*
X139261904Y-58861009D02*
X139357142Y-58908628D01*
X139357142Y-58908628D02*
X139738094Y-58908628D01*
X138214285Y-59384819D02*
X138785713Y-59384819D01*
X138499999Y-59384819D02*
X138499999Y-58384819D01*
X138499999Y-58384819D02*
X138595237Y-58527676D01*
X138595237Y-58527676D02*
X138690475Y-58622914D01*
X138690475Y-58622914D02*
X138785713Y-58670533D01*
X135754166Y-61524819D02*
X136087499Y-61048628D01*
X136325594Y-61524819D02*
X136325594Y-60524819D01*
X136325594Y-60524819D02*
X135944642Y-60524819D01*
X135944642Y-60524819D02*
X135849404Y-60572438D01*
X135849404Y-60572438D02*
X135801785Y-60620057D01*
X135801785Y-60620057D02*
X135754166Y-60715295D01*
X135754166Y-60715295D02*
X135754166Y-60858152D01*
X135754166Y-60858152D02*
X135801785Y-60953390D01*
X135801785Y-60953390D02*
X135849404Y-61001009D01*
X135849404Y-61001009D02*
X135944642Y-61048628D01*
X135944642Y-61048628D02*
X136325594Y-61048628D01*
X135182737Y-60953390D02*
X135277975Y-60905771D01*
X135277975Y-60905771D02*
X135325594Y-60858152D01*
X135325594Y-60858152D02*
X135373213Y-60762914D01*
X135373213Y-60762914D02*
X135373213Y-60715295D01*
X135373213Y-60715295D02*
X135325594Y-60620057D01*
X135325594Y-60620057D02*
X135277975Y-60572438D01*
X135277975Y-60572438D02*
X135182737Y-60524819D01*
X135182737Y-60524819D02*
X134992261Y-60524819D01*
X134992261Y-60524819D02*
X134897023Y-60572438D01*
X134897023Y-60572438D02*
X134849404Y-60620057D01*
X134849404Y-60620057D02*
X134801785Y-60715295D01*
X134801785Y-60715295D02*
X134801785Y-60762914D01*
X134801785Y-60762914D02*
X134849404Y-60858152D01*
X134849404Y-60858152D02*
X134897023Y-60905771D01*
X134897023Y-60905771D02*
X134992261Y-60953390D01*
X134992261Y-60953390D02*
X135182737Y-60953390D01*
X135182737Y-60953390D02*
X135277975Y-61001009D01*
X135277975Y-61001009D02*
X135325594Y-61048628D01*
X135325594Y-61048628D02*
X135373213Y-61143866D01*
X135373213Y-61143866D02*
X135373213Y-61334342D01*
X135373213Y-61334342D02*
X135325594Y-61429580D01*
X135325594Y-61429580D02*
X135277975Y-61477200D01*
X135277975Y-61477200D02*
X135182737Y-61524819D01*
X135182737Y-61524819D02*
X134992261Y-61524819D01*
X134992261Y-61524819D02*
X134897023Y-61477200D01*
X134897023Y-61477200D02*
X134849404Y-61429580D01*
X134849404Y-61429580D02*
X134801785Y-61334342D01*
X134801785Y-61334342D02*
X134801785Y-61143866D01*
X134801785Y-61143866D02*
X134849404Y-61048628D01*
X134849404Y-61048628D02*
X134897023Y-61001009D01*
X134897023Y-61001009D02*
X134992261Y-60953390D01*
X169142857Y-76024819D02*
X169476190Y-75548628D01*
X169714285Y-76024819D02*
X169714285Y-75024819D01*
X169714285Y-75024819D02*
X169333333Y-75024819D01*
X169333333Y-75024819D02*
X169238095Y-75072438D01*
X169238095Y-75072438D02*
X169190476Y-75120057D01*
X169190476Y-75120057D02*
X169142857Y-75215295D01*
X169142857Y-75215295D02*
X169142857Y-75358152D01*
X169142857Y-75358152D02*
X169190476Y-75453390D01*
X169190476Y-75453390D02*
X169238095Y-75501009D01*
X169238095Y-75501009D02*
X169333333Y-75548628D01*
X169333333Y-75548628D02*
X169714285Y-75548628D01*
X168761904Y-75120057D02*
X168714285Y-75072438D01*
X168714285Y-75072438D02*
X168619047Y-75024819D01*
X168619047Y-75024819D02*
X168380952Y-75024819D01*
X168380952Y-75024819D02*
X168285714Y-75072438D01*
X168285714Y-75072438D02*
X168238095Y-75120057D01*
X168238095Y-75120057D02*
X168190476Y-75215295D01*
X168190476Y-75215295D02*
X168190476Y-75310533D01*
X168190476Y-75310533D02*
X168238095Y-75453390D01*
X168238095Y-75453390D02*
X168809523Y-76024819D01*
X168809523Y-76024819D02*
X168190476Y-76024819D01*
X167571428Y-75024819D02*
X167476190Y-75024819D01*
X167476190Y-75024819D02*
X167380952Y-75072438D01*
X167380952Y-75072438D02*
X167333333Y-75120057D01*
X167333333Y-75120057D02*
X167285714Y-75215295D01*
X167285714Y-75215295D02*
X167238095Y-75405771D01*
X167238095Y-75405771D02*
X167238095Y-75643866D01*
X167238095Y-75643866D02*
X167285714Y-75834342D01*
X167285714Y-75834342D02*
X167333333Y-75929580D01*
X167333333Y-75929580D02*
X167380952Y-75977200D01*
X167380952Y-75977200D02*
X167476190Y-76024819D01*
X167476190Y-76024819D02*
X167571428Y-76024819D01*
X167571428Y-76024819D02*
X167666666Y-75977200D01*
X167666666Y-75977200D02*
X167714285Y-75929580D01*
X167714285Y-75929580D02*
X167761904Y-75834342D01*
X167761904Y-75834342D02*
X167809523Y-75643866D01*
X167809523Y-75643866D02*
X167809523Y-75405771D01*
X167809523Y-75405771D02*
X167761904Y-75215295D01*
X167761904Y-75215295D02*
X167714285Y-75120057D01*
X167714285Y-75120057D02*
X167666666Y-75072438D01*
X167666666Y-75072438D02*
X167571428Y-75024819D01*
X197039580Y-52933333D02*
X197087200Y-52885714D01*
X197087200Y-52885714D02*
X197134819Y-52742857D01*
X197134819Y-52742857D02*
X197134819Y-52647619D01*
X197134819Y-52647619D02*
X197087200Y-52504762D01*
X197087200Y-52504762D02*
X196991961Y-52409524D01*
X196991961Y-52409524D02*
X196896723Y-52361905D01*
X196896723Y-52361905D02*
X196706247Y-52314286D01*
X196706247Y-52314286D02*
X196563390Y-52314286D01*
X196563390Y-52314286D02*
X196372914Y-52361905D01*
X196372914Y-52361905D02*
X196277676Y-52409524D01*
X196277676Y-52409524D02*
X196182438Y-52504762D01*
X196182438Y-52504762D02*
X196134819Y-52647619D01*
X196134819Y-52647619D02*
X196134819Y-52742857D01*
X196134819Y-52742857D02*
X196182438Y-52885714D01*
X196182438Y-52885714D02*
X196230057Y-52933333D01*
X196134819Y-53266667D02*
X196134819Y-53933333D01*
X196134819Y-53933333D02*
X197134819Y-53504762D01*
X164730357Y-83474819D02*
X165063690Y-82998628D01*
X165301785Y-83474819D02*
X165301785Y-82474819D01*
X165301785Y-82474819D02*
X164920833Y-82474819D01*
X164920833Y-82474819D02*
X164825595Y-82522438D01*
X164825595Y-82522438D02*
X164777976Y-82570057D01*
X164777976Y-82570057D02*
X164730357Y-82665295D01*
X164730357Y-82665295D02*
X164730357Y-82808152D01*
X164730357Y-82808152D02*
X164777976Y-82903390D01*
X164777976Y-82903390D02*
X164825595Y-82951009D01*
X164825595Y-82951009D02*
X164920833Y-82998628D01*
X164920833Y-82998628D02*
X165301785Y-82998628D01*
X163777976Y-83474819D02*
X164349404Y-83474819D01*
X164063690Y-83474819D02*
X164063690Y-82474819D01*
X164063690Y-82474819D02*
X164158928Y-82617676D01*
X164158928Y-82617676D02*
X164254166Y-82712914D01*
X164254166Y-82712914D02*
X164349404Y-82760533D01*
X163301785Y-83474819D02*
X163111309Y-83474819D01*
X163111309Y-83474819D02*
X163016071Y-83427200D01*
X163016071Y-83427200D02*
X162968452Y-83379580D01*
X162968452Y-83379580D02*
X162873214Y-83236723D01*
X162873214Y-83236723D02*
X162825595Y-83046247D01*
X162825595Y-83046247D02*
X162825595Y-82665295D01*
X162825595Y-82665295D02*
X162873214Y-82570057D01*
X162873214Y-82570057D02*
X162920833Y-82522438D01*
X162920833Y-82522438D02*
X163016071Y-82474819D01*
X163016071Y-82474819D02*
X163206547Y-82474819D01*
X163206547Y-82474819D02*
X163301785Y-82522438D01*
X163301785Y-82522438D02*
X163349404Y-82570057D01*
X163349404Y-82570057D02*
X163397023Y-82665295D01*
X163397023Y-82665295D02*
X163397023Y-82903390D01*
X163397023Y-82903390D02*
X163349404Y-82998628D01*
X163349404Y-82998628D02*
X163301785Y-83046247D01*
X163301785Y-83046247D02*
X163206547Y-83093866D01*
X163206547Y-83093866D02*
X163016071Y-83093866D01*
X163016071Y-83093866D02*
X162920833Y-83046247D01*
X162920833Y-83046247D02*
X162873214Y-82998628D01*
X162873214Y-82998628D02*
X162825595Y-82903390D01*
X164642857Y-78524819D02*
X164976190Y-78048628D01*
X165214285Y-78524819D02*
X165214285Y-77524819D01*
X165214285Y-77524819D02*
X164833333Y-77524819D01*
X164833333Y-77524819D02*
X164738095Y-77572438D01*
X164738095Y-77572438D02*
X164690476Y-77620057D01*
X164690476Y-77620057D02*
X164642857Y-77715295D01*
X164642857Y-77715295D02*
X164642857Y-77858152D01*
X164642857Y-77858152D02*
X164690476Y-77953390D01*
X164690476Y-77953390D02*
X164738095Y-78001009D01*
X164738095Y-78001009D02*
X164833333Y-78048628D01*
X164833333Y-78048628D02*
X165214285Y-78048628D01*
X164261904Y-77620057D02*
X164214285Y-77572438D01*
X164214285Y-77572438D02*
X164119047Y-77524819D01*
X164119047Y-77524819D02*
X163880952Y-77524819D01*
X163880952Y-77524819D02*
X163785714Y-77572438D01*
X163785714Y-77572438D02*
X163738095Y-77620057D01*
X163738095Y-77620057D02*
X163690476Y-77715295D01*
X163690476Y-77715295D02*
X163690476Y-77810533D01*
X163690476Y-77810533D02*
X163738095Y-77953390D01*
X163738095Y-77953390D02*
X164309523Y-78524819D01*
X164309523Y-78524819D02*
X163690476Y-78524819D01*
X162833333Y-77858152D02*
X162833333Y-78524819D01*
X163071428Y-77477200D02*
X163309523Y-78191485D01*
X163309523Y-78191485D02*
X162690476Y-78191485D01*
X139005357Y-111429580D02*
X139052976Y-111477200D01*
X139052976Y-111477200D02*
X139195833Y-111524819D01*
X139195833Y-111524819D02*
X139291071Y-111524819D01*
X139291071Y-111524819D02*
X139433928Y-111477200D01*
X139433928Y-111477200D02*
X139529166Y-111381961D01*
X139529166Y-111381961D02*
X139576785Y-111286723D01*
X139576785Y-111286723D02*
X139624404Y-111096247D01*
X139624404Y-111096247D02*
X139624404Y-110953390D01*
X139624404Y-110953390D02*
X139576785Y-110762914D01*
X139576785Y-110762914D02*
X139529166Y-110667676D01*
X139529166Y-110667676D02*
X139433928Y-110572438D01*
X139433928Y-110572438D02*
X139291071Y-110524819D01*
X139291071Y-110524819D02*
X139195833Y-110524819D01*
X139195833Y-110524819D02*
X139052976Y-110572438D01*
X139052976Y-110572438D02*
X139005357Y-110620057D01*
X138052976Y-111524819D02*
X138624404Y-111524819D01*
X138338690Y-111524819D02*
X138338690Y-110524819D01*
X138338690Y-110524819D02*
X138433928Y-110667676D01*
X138433928Y-110667676D02*
X138529166Y-110762914D01*
X138529166Y-110762914D02*
X138624404Y-110810533D01*
X137719642Y-110524819D02*
X137100595Y-110524819D01*
X137100595Y-110524819D02*
X137433928Y-110905771D01*
X137433928Y-110905771D02*
X137291071Y-110905771D01*
X137291071Y-110905771D02*
X137195833Y-110953390D01*
X137195833Y-110953390D02*
X137148214Y-111001009D01*
X137148214Y-111001009D02*
X137100595Y-111096247D01*
X137100595Y-111096247D02*
X137100595Y-111334342D01*
X137100595Y-111334342D02*
X137148214Y-111429580D01*
X137148214Y-111429580D02*
X137195833Y-111477200D01*
X137195833Y-111477200D02*
X137291071Y-111524819D01*
X137291071Y-111524819D02*
X137576785Y-111524819D01*
X137576785Y-111524819D02*
X137672023Y-111477200D01*
X137672023Y-111477200D02*
X137719642Y-111429580D01*
X145359580Y-122857142D02*
X145407200Y-122809523D01*
X145407200Y-122809523D02*
X145454819Y-122666666D01*
X145454819Y-122666666D02*
X145454819Y-122571428D01*
X145454819Y-122571428D02*
X145407200Y-122428571D01*
X145407200Y-122428571D02*
X145311961Y-122333333D01*
X145311961Y-122333333D02*
X145216723Y-122285714D01*
X145216723Y-122285714D02*
X145026247Y-122238095D01*
X145026247Y-122238095D02*
X144883390Y-122238095D01*
X144883390Y-122238095D02*
X144692914Y-122285714D01*
X144692914Y-122285714D02*
X144597676Y-122333333D01*
X144597676Y-122333333D02*
X144502438Y-122428571D01*
X144502438Y-122428571D02*
X144454819Y-122571428D01*
X144454819Y-122571428D02*
X144454819Y-122666666D01*
X144454819Y-122666666D02*
X144502438Y-122809523D01*
X144502438Y-122809523D02*
X144550057Y-122857142D01*
X145454819Y-123809523D02*
X145454819Y-123238095D01*
X145454819Y-123523809D02*
X144454819Y-123523809D01*
X144454819Y-123523809D02*
X144597676Y-123428571D01*
X144597676Y-123428571D02*
X144692914Y-123333333D01*
X144692914Y-123333333D02*
X144740533Y-123238095D01*
X144454819Y-124714285D02*
X144454819Y-124238095D01*
X144454819Y-124238095D02*
X144931009Y-124190476D01*
X144931009Y-124190476D02*
X144883390Y-124238095D01*
X144883390Y-124238095D02*
X144835771Y-124333333D01*
X144835771Y-124333333D02*
X144835771Y-124571428D01*
X144835771Y-124571428D02*
X144883390Y-124666666D01*
X144883390Y-124666666D02*
X144931009Y-124714285D01*
X144931009Y-124714285D02*
X145026247Y-124761904D01*
X145026247Y-124761904D02*
X145264342Y-124761904D01*
X145264342Y-124761904D02*
X145359580Y-124714285D01*
X145359580Y-124714285D02*
X145407200Y-124666666D01*
X145407200Y-124666666D02*
X145454819Y-124571428D01*
X145454819Y-124571428D02*
X145454819Y-124333333D01*
X145454819Y-124333333D02*
X145407200Y-124238095D01*
X145407200Y-124238095D02*
X145359580Y-124190476D01*
X199189580Y-52933333D02*
X199237200Y-52885714D01*
X199237200Y-52885714D02*
X199284819Y-52742857D01*
X199284819Y-52742857D02*
X199284819Y-52647619D01*
X199284819Y-52647619D02*
X199237200Y-52504762D01*
X199237200Y-52504762D02*
X199141961Y-52409524D01*
X199141961Y-52409524D02*
X199046723Y-52361905D01*
X199046723Y-52361905D02*
X198856247Y-52314286D01*
X198856247Y-52314286D02*
X198713390Y-52314286D01*
X198713390Y-52314286D02*
X198522914Y-52361905D01*
X198522914Y-52361905D02*
X198427676Y-52409524D01*
X198427676Y-52409524D02*
X198332438Y-52504762D01*
X198332438Y-52504762D02*
X198284819Y-52647619D01*
X198284819Y-52647619D02*
X198284819Y-52742857D01*
X198284819Y-52742857D02*
X198332438Y-52885714D01*
X198332438Y-52885714D02*
X198380057Y-52933333D01*
X198713390Y-53504762D02*
X198665771Y-53409524D01*
X198665771Y-53409524D02*
X198618152Y-53361905D01*
X198618152Y-53361905D02*
X198522914Y-53314286D01*
X198522914Y-53314286D02*
X198475295Y-53314286D01*
X198475295Y-53314286D02*
X198380057Y-53361905D01*
X198380057Y-53361905D02*
X198332438Y-53409524D01*
X198332438Y-53409524D02*
X198284819Y-53504762D01*
X198284819Y-53504762D02*
X198284819Y-53695238D01*
X198284819Y-53695238D02*
X198332438Y-53790476D01*
X198332438Y-53790476D02*
X198380057Y-53838095D01*
X198380057Y-53838095D02*
X198475295Y-53885714D01*
X198475295Y-53885714D02*
X198522914Y-53885714D01*
X198522914Y-53885714D02*
X198618152Y-53838095D01*
X198618152Y-53838095D02*
X198665771Y-53790476D01*
X198665771Y-53790476D02*
X198713390Y-53695238D01*
X198713390Y-53695238D02*
X198713390Y-53504762D01*
X198713390Y-53504762D02*
X198761009Y-53409524D01*
X198761009Y-53409524D02*
X198808628Y-53361905D01*
X198808628Y-53361905D02*
X198903866Y-53314286D01*
X198903866Y-53314286D02*
X199094342Y-53314286D01*
X199094342Y-53314286D02*
X199189580Y-53361905D01*
X199189580Y-53361905D02*
X199237200Y-53409524D01*
X199237200Y-53409524D02*
X199284819Y-53504762D01*
X199284819Y-53504762D02*
X199284819Y-53695238D01*
X199284819Y-53695238D02*
X199237200Y-53790476D01*
X199237200Y-53790476D02*
X199189580Y-53838095D01*
X199189580Y-53838095D02*
X199094342Y-53885714D01*
X199094342Y-53885714D02*
X198903866Y-53885714D01*
X198903866Y-53885714D02*
X198808628Y-53838095D01*
X198808628Y-53838095D02*
X198761009Y-53790476D01*
X198761009Y-53790476D02*
X198713390Y-53695238D01*
X165142319Y-72316666D02*
X165856604Y-72316666D01*
X165856604Y-72316666D02*
X165999461Y-72269047D01*
X165999461Y-72269047D02*
X166094700Y-72173809D01*
X166094700Y-72173809D02*
X166142319Y-72030952D01*
X166142319Y-72030952D02*
X166142319Y-71935714D01*
X166142319Y-72792857D02*
X165142319Y-72792857D01*
X165142319Y-72792857D02*
X165142319Y-73173809D01*
X165142319Y-73173809D02*
X165189938Y-73269047D01*
X165189938Y-73269047D02*
X165237557Y-73316666D01*
X165237557Y-73316666D02*
X165332795Y-73364285D01*
X165332795Y-73364285D02*
X165475652Y-73364285D01*
X165475652Y-73364285D02*
X165570890Y-73316666D01*
X165570890Y-73316666D02*
X165618509Y-73269047D01*
X165618509Y-73269047D02*
X165666128Y-73173809D01*
X165666128Y-73173809D02*
X165666128Y-72792857D01*
X166142319Y-74316666D02*
X166142319Y-73745238D01*
X166142319Y-74030952D02*
X165142319Y-74030952D01*
X165142319Y-74030952D02*
X165285176Y-73935714D01*
X165285176Y-73935714D02*
X165380414Y-73840476D01*
X165380414Y-73840476D02*
X165428033Y-73745238D01*
X163342319Y-70216667D02*
X163342319Y-70835714D01*
X163342319Y-70835714D02*
X163723271Y-70502381D01*
X163723271Y-70502381D02*
X163723271Y-70645238D01*
X163723271Y-70645238D02*
X163770890Y-70740476D01*
X163770890Y-70740476D02*
X163818509Y-70788095D01*
X163818509Y-70788095D02*
X163913747Y-70835714D01*
X163913747Y-70835714D02*
X164151842Y-70835714D01*
X164151842Y-70835714D02*
X164247080Y-70788095D01*
X164247080Y-70788095D02*
X164294700Y-70740476D01*
X164294700Y-70740476D02*
X164342319Y-70645238D01*
X164342319Y-70645238D02*
X164342319Y-70359524D01*
X164342319Y-70359524D02*
X164294700Y-70264286D01*
X164294700Y-70264286D02*
X164247080Y-70216667D01*
X164342319Y-76035714D02*
X164342319Y-75464286D01*
X164342319Y-75750000D02*
X163342319Y-75750000D01*
X163342319Y-75750000D02*
X163485176Y-75654762D01*
X163485176Y-75654762D02*
X163580414Y-75559524D01*
X163580414Y-75559524D02*
X163628033Y-75464286D01*
X163666666Y-126384819D02*
X163999999Y-125908628D01*
X164238094Y-126384819D02*
X164238094Y-125384819D01*
X164238094Y-125384819D02*
X163857142Y-125384819D01*
X163857142Y-125384819D02*
X163761904Y-125432438D01*
X163761904Y-125432438D02*
X163714285Y-125480057D01*
X163714285Y-125480057D02*
X163666666Y-125575295D01*
X163666666Y-125575295D02*
X163666666Y-125718152D01*
X163666666Y-125718152D02*
X163714285Y-125813390D01*
X163714285Y-125813390D02*
X163761904Y-125861009D01*
X163761904Y-125861009D02*
X163857142Y-125908628D01*
X163857142Y-125908628D02*
X164238094Y-125908628D01*
X163190475Y-126384819D02*
X162999999Y-126384819D01*
X162999999Y-126384819D02*
X162904761Y-126337200D01*
X162904761Y-126337200D02*
X162857142Y-126289580D01*
X162857142Y-126289580D02*
X162761904Y-126146723D01*
X162761904Y-126146723D02*
X162714285Y-125956247D01*
X162714285Y-125956247D02*
X162714285Y-125575295D01*
X162714285Y-125575295D02*
X162761904Y-125480057D01*
X162761904Y-125480057D02*
X162809523Y-125432438D01*
X162809523Y-125432438D02*
X162904761Y-125384819D01*
X162904761Y-125384819D02*
X163095237Y-125384819D01*
X163095237Y-125384819D02*
X163190475Y-125432438D01*
X163190475Y-125432438D02*
X163238094Y-125480057D01*
X163238094Y-125480057D02*
X163285713Y-125575295D01*
X163285713Y-125575295D02*
X163285713Y-125813390D01*
X163285713Y-125813390D02*
X163238094Y-125908628D01*
X163238094Y-125908628D02*
X163190475Y-125956247D01*
X163190475Y-125956247D02*
X163095237Y-126003866D01*
X163095237Y-126003866D02*
X162904761Y-126003866D01*
X162904761Y-126003866D02*
X162809523Y-125956247D01*
X162809523Y-125956247D02*
X162761904Y-125908628D01*
X162761904Y-125908628D02*
X162714285Y-125813390D01*
X163243782Y-102501458D02*
X163577115Y-102501458D01*
X163577115Y-103025268D02*
X163577115Y-102025268D01*
X163577115Y-102025268D02*
X163100925Y-102025268D01*
X162196163Y-103025268D02*
X162767591Y-103025268D01*
X162481877Y-103025268D02*
X162481877Y-102025268D01*
X162481877Y-102025268D02*
X162577115Y-102168125D01*
X162577115Y-102168125D02*
X162672353Y-102263363D01*
X162672353Y-102263363D02*
X162767591Y-102310982D01*
X158505687Y-104090506D02*
X158600925Y-104042887D01*
X158600925Y-104042887D02*
X158696163Y-103947649D01*
X158696163Y-103947649D02*
X158839020Y-103804791D01*
X158839020Y-103804791D02*
X158934258Y-103757172D01*
X158934258Y-103757172D02*
X159029496Y-103757172D01*
X158981877Y-103995268D02*
X159077115Y-103947649D01*
X159077115Y-103947649D02*
X159172353Y-103852410D01*
X159172353Y-103852410D02*
X159219972Y-103661934D01*
X159219972Y-103661934D02*
X159219972Y-103328601D01*
X159219972Y-103328601D02*
X159172353Y-103138125D01*
X159172353Y-103138125D02*
X159077115Y-103042887D01*
X159077115Y-103042887D02*
X158981877Y-102995268D01*
X158981877Y-102995268D02*
X158791401Y-102995268D01*
X158791401Y-102995268D02*
X158696163Y-103042887D01*
X158696163Y-103042887D02*
X158600925Y-103138125D01*
X158600925Y-103138125D02*
X158553306Y-103328601D01*
X158553306Y-103328601D02*
X158553306Y-103661934D01*
X158553306Y-103661934D02*
X158600925Y-103852410D01*
X158600925Y-103852410D02*
X158696163Y-103947649D01*
X158696163Y-103947649D02*
X158791401Y-103995268D01*
X158791401Y-103995268D02*
X158981877Y-103995268D01*
X158172353Y-103090506D02*
X158124734Y-103042887D01*
X158124734Y-103042887D02*
X158029496Y-102995268D01*
X158029496Y-102995268D02*
X157791401Y-102995268D01*
X157791401Y-102995268D02*
X157696163Y-103042887D01*
X157696163Y-103042887D02*
X157648544Y-103090506D01*
X157648544Y-103090506D02*
X157600925Y-103185744D01*
X157600925Y-103185744D02*
X157600925Y-103280982D01*
X157600925Y-103280982D02*
X157648544Y-103423839D01*
X157648544Y-103423839D02*
X158219972Y-103995268D01*
X158219972Y-103995268D02*
X157600925Y-103995268D01*
X164680357Y-86624819D02*
X165013690Y-86148628D01*
X165251785Y-86624819D02*
X165251785Y-85624819D01*
X165251785Y-85624819D02*
X164870833Y-85624819D01*
X164870833Y-85624819D02*
X164775595Y-85672438D01*
X164775595Y-85672438D02*
X164727976Y-85720057D01*
X164727976Y-85720057D02*
X164680357Y-85815295D01*
X164680357Y-85815295D02*
X164680357Y-85958152D01*
X164680357Y-85958152D02*
X164727976Y-86053390D01*
X164727976Y-86053390D02*
X164775595Y-86101009D01*
X164775595Y-86101009D02*
X164870833Y-86148628D01*
X164870833Y-86148628D02*
X165251785Y-86148628D01*
X164299404Y-85720057D02*
X164251785Y-85672438D01*
X164251785Y-85672438D02*
X164156547Y-85624819D01*
X164156547Y-85624819D02*
X163918452Y-85624819D01*
X163918452Y-85624819D02*
X163823214Y-85672438D01*
X163823214Y-85672438D02*
X163775595Y-85720057D01*
X163775595Y-85720057D02*
X163727976Y-85815295D01*
X163727976Y-85815295D02*
X163727976Y-85910533D01*
X163727976Y-85910533D02*
X163775595Y-86053390D01*
X163775595Y-86053390D02*
X164347023Y-86624819D01*
X164347023Y-86624819D02*
X163727976Y-86624819D01*
X162870833Y-85624819D02*
X163061309Y-85624819D01*
X163061309Y-85624819D02*
X163156547Y-85672438D01*
X163156547Y-85672438D02*
X163204166Y-85720057D01*
X163204166Y-85720057D02*
X163299404Y-85862914D01*
X163299404Y-85862914D02*
X163347023Y-86053390D01*
X163347023Y-86053390D02*
X163347023Y-86434342D01*
X163347023Y-86434342D02*
X163299404Y-86529580D01*
X163299404Y-86529580D02*
X163251785Y-86577200D01*
X163251785Y-86577200D02*
X163156547Y-86624819D01*
X163156547Y-86624819D02*
X162966071Y-86624819D01*
X162966071Y-86624819D02*
X162870833Y-86577200D01*
X162870833Y-86577200D02*
X162823214Y-86529580D01*
X162823214Y-86529580D02*
X162775595Y-86434342D01*
X162775595Y-86434342D02*
X162775595Y-86196247D01*
X162775595Y-86196247D02*
X162823214Y-86101009D01*
X162823214Y-86101009D02*
X162870833Y-86053390D01*
X162870833Y-86053390D02*
X162966071Y-86005771D01*
X162966071Y-86005771D02*
X163156547Y-86005771D01*
X163156547Y-86005771D02*
X163251785Y-86053390D01*
X163251785Y-86053390D02*
X163299404Y-86101009D01*
X163299404Y-86101009D02*
X163347023Y-86196247D01*
X162152080Y-74357142D02*
X162199700Y-74309523D01*
X162199700Y-74309523D02*
X162247319Y-74166666D01*
X162247319Y-74166666D02*
X162247319Y-74071428D01*
X162247319Y-74071428D02*
X162199700Y-73928571D01*
X162199700Y-73928571D02*
X162104461Y-73833333D01*
X162104461Y-73833333D02*
X162009223Y-73785714D01*
X162009223Y-73785714D02*
X161818747Y-73738095D01*
X161818747Y-73738095D02*
X161675890Y-73738095D01*
X161675890Y-73738095D02*
X161485414Y-73785714D01*
X161485414Y-73785714D02*
X161390176Y-73833333D01*
X161390176Y-73833333D02*
X161294938Y-73928571D01*
X161294938Y-73928571D02*
X161247319Y-74071428D01*
X161247319Y-74071428D02*
X161247319Y-74166666D01*
X161247319Y-74166666D02*
X161294938Y-74309523D01*
X161294938Y-74309523D02*
X161342557Y-74357142D01*
X162247319Y-75309523D02*
X162247319Y-74738095D01*
X162247319Y-75023809D02*
X161247319Y-75023809D01*
X161247319Y-75023809D02*
X161390176Y-74928571D01*
X161390176Y-74928571D02*
X161485414Y-74833333D01*
X161485414Y-74833333D02*
X161533033Y-74738095D01*
X161247319Y-75928571D02*
X161247319Y-76023809D01*
X161247319Y-76023809D02*
X161294938Y-76119047D01*
X161294938Y-76119047D02*
X161342557Y-76166666D01*
X161342557Y-76166666D02*
X161437795Y-76214285D01*
X161437795Y-76214285D02*
X161628271Y-76261904D01*
X161628271Y-76261904D02*
X161866366Y-76261904D01*
X161866366Y-76261904D02*
X162056842Y-76214285D01*
X162056842Y-76214285D02*
X162152080Y-76166666D01*
X162152080Y-76166666D02*
X162199700Y-76119047D01*
X162199700Y-76119047D02*
X162247319Y-76023809D01*
X162247319Y-76023809D02*
X162247319Y-75928571D01*
X162247319Y-75928571D02*
X162199700Y-75833333D01*
X162199700Y-75833333D02*
X162152080Y-75785714D01*
X162152080Y-75785714D02*
X162056842Y-75738095D01*
X162056842Y-75738095D02*
X161866366Y-75690476D01*
X161866366Y-75690476D02*
X161628271Y-75690476D01*
X161628271Y-75690476D02*
X161437795Y-75738095D01*
X161437795Y-75738095D02*
X161342557Y-75785714D01*
X161342557Y-75785714D02*
X161294938Y-75833333D01*
X161294938Y-75833333D02*
X161247319Y-75928571D01*
X164402353Y-92947268D02*
X163830925Y-92947268D01*
X164116639Y-93947268D02*
X164116639Y-92947268D01*
X163497591Y-93947268D02*
X163497591Y-92947268D01*
X163497591Y-92947268D02*
X163116639Y-92947268D01*
X163116639Y-92947268D02*
X163021401Y-92994887D01*
X163021401Y-92994887D02*
X162973782Y-93042506D01*
X162973782Y-93042506D02*
X162926163Y-93137744D01*
X162926163Y-93137744D02*
X162926163Y-93280601D01*
X162926163Y-93280601D02*
X162973782Y-93375839D01*
X162973782Y-93375839D02*
X163021401Y-93423458D01*
X163021401Y-93423458D02*
X163116639Y-93471077D01*
X163116639Y-93471077D02*
X163497591Y-93471077D01*
X162545210Y-93042506D02*
X162497591Y-92994887D01*
X162497591Y-92994887D02*
X162402353Y-92947268D01*
X162402353Y-92947268D02*
X162164258Y-92947268D01*
X162164258Y-92947268D02*
X162069020Y-92994887D01*
X162069020Y-92994887D02*
X162021401Y-93042506D01*
X162021401Y-93042506D02*
X161973782Y-93137744D01*
X161973782Y-93137744D02*
X161973782Y-93232982D01*
X161973782Y-93232982D02*
X162021401Y-93375839D01*
X162021401Y-93375839D02*
X162592829Y-93947268D01*
X162592829Y-93947268D02*
X161973782Y-93947268D01*
X142929580Y-98719642D02*
X142977200Y-98672023D01*
X142977200Y-98672023D02*
X143024819Y-98529166D01*
X143024819Y-98529166D02*
X143024819Y-98433928D01*
X143024819Y-98433928D02*
X142977200Y-98291071D01*
X142977200Y-98291071D02*
X142881961Y-98195833D01*
X142881961Y-98195833D02*
X142786723Y-98148214D01*
X142786723Y-98148214D02*
X142596247Y-98100595D01*
X142596247Y-98100595D02*
X142453390Y-98100595D01*
X142453390Y-98100595D02*
X142262914Y-98148214D01*
X142262914Y-98148214D02*
X142167676Y-98195833D01*
X142167676Y-98195833D02*
X142072438Y-98291071D01*
X142072438Y-98291071D02*
X142024819Y-98433928D01*
X142024819Y-98433928D02*
X142024819Y-98529166D01*
X142024819Y-98529166D02*
X142072438Y-98672023D01*
X142072438Y-98672023D02*
X142120057Y-98719642D01*
X143024819Y-99672023D02*
X143024819Y-99100595D01*
X143024819Y-99386309D02*
X142024819Y-99386309D01*
X142024819Y-99386309D02*
X142167676Y-99291071D01*
X142167676Y-99291071D02*
X142262914Y-99195833D01*
X142262914Y-99195833D02*
X142310533Y-99100595D01*
X142024819Y-100529166D02*
X142024819Y-100338690D01*
X142024819Y-100338690D02*
X142072438Y-100243452D01*
X142072438Y-100243452D02*
X142120057Y-100195833D01*
X142120057Y-100195833D02*
X142262914Y-100100595D01*
X142262914Y-100100595D02*
X142453390Y-100052976D01*
X142453390Y-100052976D02*
X142834342Y-100052976D01*
X142834342Y-100052976D02*
X142929580Y-100100595D01*
X142929580Y-100100595D02*
X142977200Y-100148214D01*
X142977200Y-100148214D02*
X143024819Y-100243452D01*
X143024819Y-100243452D02*
X143024819Y-100433928D01*
X143024819Y-100433928D02*
X142977200Y-100529166D01*
X142977200Y-100529166D02*
X142929580Y-100576785D01*
X142929580Y-100576785D02*
X142834342Y-100624404D01*
X142834342Y-100624404D02*
X142596247Y-100624404D01*
X142596247Y-100624404D02*
X142501009Y-100576785D01*
X142501009Y-100576785D02*
X142453390Y-100529166D01*
X142453390Y-100529166D02*
X142405771Y-100433928D01*
X142405771Y-100433928D02*
X142405771Y-100243452D01*
X142405771Y-100243452D02*
X142453390Y-100148214D01*
X142453390Y-100148214D02*
X142501009Y-100100595D01*
X142501009Y-100100595D02*
X142596247Y-100052976D01*
X167024819Y-80269642D02*
X166548628Y-79936309D01*
X167024819Y-79698214D02*
X166024819Y-79698214D01*
X166024819Y-79698214D02*
X166024819Y-80079166D01*
X166024819Y-80079166D02*
X166072438Y-80174404D01*
X166072438Y-80174404D02*
X166120057Y-80222023D01*
X166120057Y-80222023D02*
X166215295Y-80269642D01*
X166215295Y-80269642D02*
X166358152Y-80269642D01*
X166358152Y-80269642D02*
X166453390Y-80222023D01*
X166453390Y-80222023D02*
X166501009Y-80174404D01*
X166501009Y-80174404D02*
X166548628Y-80079166D01*
X166548628Y-80079166D02*
X166548628Y-79698214D01*
X167024819Y-81222023D02*
X167024819Y-80650595D01*
X167024819Y-80936309D02*
X166024819Y-80936309D01*
X166024819Y-80936309D02*
X166167676Y-80841071D01*
X166167676Y-80841071D02*
X166262914Y-80745833D01*
X166262914Y-80745833D02*
X166310533Y-80650595D01*
X167024819Y-81698214D02*
X167024819Y-81888690D01*
X167024819Y-81888690D02*
X166977200Y-81983928D01*
X166977200Y-81983928D02*
X166929580Y-82031547D01*
X166929580Y-82031547D02*
X166786723Y-82126785D01*
X166786723Y-82126785D02*
X166596247Y-82174404D01*
X166596247Y-82174404D02*
X166215295Y-82174404D01*
X166215295Y-82174404D02*
X166120057Y-82126785D01*
X166120057Y-82126785D02*
X166072438Y-82079166D01*
X166072438Y-82079166D02*
X166024819Y-81983928D01*
X166024819Y-81983928D02*
X166024819Y-81793452D01*
X166024819Y-81793452D02*
X166072438Y-81698214D01*
X166072438Y-81698214D02*
X166120057Y-81650595D01*
X166120057Y-81650595D02*
X166215295Y-81602976D01*
X166215295Y-81602976D02*
X166453390Y-81602976D01*
X166453390Y-81602976D02*
X166548628Y-81650595D01*
X166548628Y-81650595D02*
X166596247Y-81698214D01*
X166596247Y-81698214D02*
X166643866Y-81793452D01*
X166643866Y-81793452D02*
X166643866Y-81983928D01*
X166643866Y-81983928D02*
X166596247Y-82079166D01*
X166596247Y-82079166D02*
X166548628Y-82126785D01*
X166548628Y-82126785D02*
X166453390Y-82174404D01*
X158166666Y-126359580D02*
X158214285Y-126407200D01*
X158214285Y-126407200D02*
X158357142Y-126454819D01*
X158357142Y-126454819D02*
X158452380Y-126454819D01*
X158452380Y-126454819D02*
X158595237Y-126407200D01*
X158595237Y-126407200D02*
X158690475Y-126311961D01*
X158690475Y-126311961D02*
X158738094Y-126216723D01*
X158738094Y-126216723D02*
X158785713Y-126026247D01*
X158785713Y-126026247D02*
X158785713Y-125883390D01*
X158785713Y-125883390D02*
X158738094Y-125692914D01*
X158738094Y-125692914D02*
X158690475Y-125597676D01*
X158690475Y-125597676D02*
X158595237Y-125502438D01*
X158595237Y-125502438D02*
X158452380Y-125454819D01*
X158452380Y-125454819D02*
X158357142Y-125454819D01*
X158357142Y-125454819D02*
X158214285Y-125502438D01*
X158214285Y-125502438D02*
X158166666Y-125550057D01*
X157309523Y-125454819D02*
X157499999Y-125454819D01*
X157499999Y-125454819D02*
X157595237Y-125502438D01*
X157595237Y-125502438D02*
X157642856Y-125550057D01*
X157642856Y-125550057D02*
X157738094Y-125692914D01*
X157738094Y-125692914D02*
X157785713Y-125883390D01*
X157785713Y-125883390D02*
X157785713Y-126264342D01*
X157785713Y-126264342D02*
X157738094Y-126359580D01*
X157738094Y-126359580D02*
X157690475Y-126407200D01*
X157690475Y-126407200D02*
X157595237Y-126454819D01*
X157595237Y-126454819D02*
X157404761Y-126454819D01*
X157404761Y-126454819D02*
X157309523Y-126407200D01*
X157309523Y-126407200D02*
X157261904Y-126359580D01*
X157261904Y-126359580D02*
X157214285Y-126264342D01*
X157214285Y-126264342D02*
X157214285Y-126026247D01*
X157214285Y-126026247D02*
X157261904Y-125931009D01*
X157261904Y-125931009D02*
X157309523Y-125883390D01*
X157309523Y-125883390D02*
X157404761Y-125835771D01*
X157404761Y-125835771D02*
X157595237Y-125835771D01*
X157595237Y-125835771D02*
X157690475Y-125883390D01*
X157690475Y-125883390D02*
X157738094Y-125931009D01*
X157738094Y-125931009D02*
X157785713Y-126026247D01*
X172435268Y-100473782D02*
X171959077Y-100140449D01*
X172435268Y-99902354D02*
X171435268Y-99902354D01*
X171435268Y-99902354D02*
X171435268Y-100283306D01*
X171435268Y-100283306D02*
X171482887Y-100378544D01*
X171482887Y-100378544D02*
X171530506Y-100426163D01*
X171530506Y-100426163D02*
X171625744Y-100473782D01*
X171625744Y-100473782D02*
X171768601Y-100473782D01*
X171768601Y-100473782D02*
X171863839Y-100426163D01*
X171863839Y-100426163D02*
X171911458Y-100378544D01*
X171911458Y-100378544D02*
X171959077Y-100283306D01*
X171959077Y-100283306D02*
X171959077Y-99902354D01*
X171768601Y-101330925D02*
X172435268Y-101330925D01*
X171387649Y-101092830D02*
X172101934Y-100854735D01*
X172101934Y-100854735D02*
X172101934Y-101473782D01*
X131929580Y-111769642D02*
X131977200Y-111722023D01*
X131977200Y-111722023D02*
X132024819Y-111579166D01*
X132024819Y-111579166D02*
X132024819Y-111483928D01*
X132024819Y-111483928D02*
X131977200Y-111341071D01*
X131977200Y-111341071D02*
X131881961Y-111245833D01*
X131881961Y-111245833D02*
X131786723Y-111198214D01*
X131786723Y-111198214D02*
X131596247Y-111150595D01*
X131596247Y-111150595D02*
X131453390Y-111150595D01*
X131453390Y-111150595D02*
X131262914Y-111198214D01*
X131262914Y-111198214D02*
X131167676Y-111245833D01*
X131167676Y-111245833D02*
X131072438Y-111341071D01*
X131072438Y-111341071D02*
X131024819Y-111483928D01*
X131024819Y-111483928D02*
X131024819Y-111579166D01*
X131024819Y-111579166D02*
X131072438Y-111722023D01*
X131072438Y-111722023D02*
X131120057Y-111769642D01*
X132024819Y-112722023D02*
X132024819Y-112150595D01*
X132024819Y-112436309D02*
X131024819Y-112436309D01*
X131024819Y-112436309D02*
X131167676Y-112341071D01*
X131167676Y-112341071D02*
X131262914Y-112245833D01*
X131262914Y-112245833D02*
X131310533Y-112150595D01*
X131120057Y-113102976D02*
X131072438Y-113150595D01*
X131072438Y-113150595D02*
X131024819Y-113245833D01*
X131024819Y-113245833D02*
X131024819Y-113483928D01*
X131024819Y-113483928D02*
X131072438Y-113579166D01*
X131072438Y-113579166D02*
X131120057Y-113626785D01*
X131120057Y-113626785D02*
X131215295Y-113674404D01*
X131215295Y-113674404D02*
X131310533Y-113674404D01*
X131310533Y-113674404D02*
X131453390Y-113626785D01*
X131453390Y-113626785D02*
X132024819Y-113055357D01*
X132024819Y-113055357D02*
X132024819Y-113674404D01*
X132024819Y-115769642D02*
X131548628Y-115436309D01*
X132024819Y-115198214D02*
X131024819Y-115198214D01*
X131024819Y-115198214D02*
X131024819Y-115579166D01*
X131024819Y-115579166D02*
X131072438Y-115674404D01*
X131072438Y-115674404D02*
X131120057Y-115722023D01*
X131120057Y-115722023D02*
X131215295Y-115769642D01*
X131215295Y-115769642D02*
X131358152Y-115769642D01*
X131358152Y-115769642D02*
X131453390Y-115722023D01*
X131453390Y-115722023D02*
X131501009Y-115674404D01*
X131501009Y-115674404D02*
X131548628Y-115579166D01*
X131548628Y-115579166D02*
X131548628Y-115198214D01*
X131120057Y-116150595D02*
X131072438Y-116198214D01*
X131072438Y-116198214D02*
X131024819Y-116293452D01*
X131024819Y-116293452D02*
X131024819Y-116531547D01*
X131024819Y-116531547D02*
X131072438Y-116626785D01*
X131072438Y-116626785D02*
X131120057Y-116674404D01*
X131120057Y-116674404D02*
X131215295Y-116722023D01*
X131215295Y-116722023D02*
X131310533Y-116722023D01*
X131310533Y-116722023D02*
X131453390Y-116674404D01*
X131453390Y-116674404D02*
X132024819Y-116102976D01*
X132024819Y-116102976D02*
X132024819Y-116722023D01*
X131024819Y-117055357D02*
X131024819Y-117674404D01*
X131024819Y-117674404D02*
X131405771Y-117341071D01*
X131405771Y-117341071D02*
X131405771Y-117483928D01*
X131405771Y-117483928D02*
X131453390Y-117579166D01*
X131453390Y-117579166D02*
X131501009Y-117626785D01*
X131501009Y-117626785D02*
X131596247Y-117674404D01*
X131596247Y-117674404D02*
X131834342Y-117674404D01*
X131834342Y-117674404D02*
X131929580Y-117626785D01*
X131929580Y-117626785D02*
X131977200Y-117579166D01*
X131977200Y-117579166D02*
X132024819Y-117483928D01*
X132024819Y-117483928D02*
X132024819Y-117198214D01*
X132024819Y-117198214D02*
X131977200Y-117102976D01*
X131977200Y-117102976D02*
X131929580Y-117055357D01*
X158439615Y-94095268D02*
X158772948Y-93619077D01*
X159011043Y-94095268D02*
X159011043Y-93095268D01*
X159011043Y-93095268D02*
X158630091Y-93095268D01*
X158630091Y-93095268D02*
X158534853Y-93142887D01*
X158534853Y-93142887D02*
X158487234Y-93190506D01*
X158487234Y-93190506D02*
X158439615Y-93285744D01*
X158439615Y-93285744D02*
X158439615Y-93428601D01*
X158439615Y-93428601D02*
X158487234Y-93523839D01*
X158487234Y-93523839D02*
X158534853Y-93571458D01*
X158534853Y-93571458D02*
X158630091Y-93619077D01*
X158630091Y-93619077D02*
X159011043Y-93619077D01*
X158106281Y-93095268D02*
X157487234Y-93095268D01*
X157487234Y-93095268D02*
X157820567Y-93476220D01*
X157820567Y-93476220D02*
X157677710Y-93476220D01*
X157677710Y-93476220D02*
X157582472Y-93523839D01*
X157582472Y-93523839D02*
X157534853Y-93571458D01*
X157534853Y-93571458D02*
X157487234Y-93666696D01*
X157487234Y-93666696D02*
X157487234Y-93904791D01*
X157487234Y-93904791D02*
X157534853Y-94000029D01*
X157534853Y-94000029D02*
X157582472Y-94047649D01*
X157582472Y-94047649D02*
X157677710Y-94095268D01*
X157677710Y-94095268D02*
X157963424Y-94095268D01*
X157963424Y-94095268D02*
X158058662Y-94047649D01*
X158058662Y-94047649D02*
X158106281Y-94000029D01*
X177795268Y-100473782D02*
X177319077Y-100140449D01*
X177795268Y-99902354D02*
X176795268Y-99902354D01*
X176795268Y-99902354D02*
X176795268Y-100283306D01*
X176795268Y-100283306D02*
X176842887Y-100378544D01*
X176842887Y-100378544D02*
X176890506Y-100426163D01*
X176890506Y-100426163D02*
X176985744Y-100473782D01*
X176985744Y-100473782D02*
X177128601Y-100473782D01*
X177128601Y-100473782D02*
X177223839Y-100426163D01*
X177223839Y-100426163D02*
X177271458Y-100378544D01*
X177271458Y-100378544D02*
X177319077Y-100283306D01*
X177319077Y-100283306D02*
X177319077Y-99902354D01*
X176795268Y-101378544D02*
X176795268Y-100902354D01*
X176795268Y-100902354D02*
X177271458Y-100854735D01*
X177271458Y-100854735D02*
X177223839Y-100902354D01*
X177223839Y-100902354D02*
X177176220Y-100997592D01*
X177176220Y-100997592D02*
X177176220Y-101235687D01*
X177176220Y-101235687D02*
X177223839Y-101330925D01*
X177223839Y-101330925D02*
X177271458Y-101378544D01*
X177271458Y-101378544D02*
X177366696Y-101426163D01*
X177366696Y-101426163D02*
X177604791Y-101426163D01*
X177604791Y-101426163D02*
X177700029Y-101378544D01*
X177700029Y-101378544D02*
X177747649Y-101330925D01*
X177747649Y-101330925D02*
X177795268Y-101235687D01*
X177795268Y-101235687D02*
X177795268Y-100997592D01*
X177795268Y-100997592D02*
X177747649Y-100902354D01*
X177747649Y-100902354D02*
X177700029Y-100854735D01*
X177700029Y-95473782D02*
X177747649Y-95426163D01*
X177747649Y-95426163D02*
X177795268Y-95283306D01*
X177795268Y-95283306D02*
X177795268Y-95188068D01*
X177795268Y-95188068D02*
X177747649Y-95045211D01*
X177747649Y-95045211D02*
X177652410Y-94949973D01*
X177652410Y-94949973D02*
X177557172Y-94902354D01*
X177557172Y-94902354D02*
X177366696Y-94854735D01*
X177366696Y-94854735D02*
X177223839Y-94854735D01*
X177223839Y-94854735D02*
X177033363Y-94902354D01*
X177033363Y-94902354D02*
X176938125Y-94949973D01*
X176938125Y-94949973D02*
X176842887Y-95045211D01*
X176842887Y-95045211D02*
X176795268Y-95188068D01*
X176795268Y-95188068D02*
X176795268Y-95283306D01*
X176795268Y-95283306D02*
X176842887Y-95426163D01*
X176842887Y-95426163D02*
X176890506Y-95473782D01*
X177128601Y-96330925D02*
X177795268Y-96330925D01*
X176747649Y-96092830D02*
X177461934Y-95854735D01*
X177461934Y-95854735D02*
X177461934Y-96473782D01*
X145884819Y-115769642D02*
X145408628Y-115436309D01*
X145884819Y-115198214D02*
X144884819Y-115198214D01*
X144884819Y-115198214D02*
X144884819Y-115579166D01*
X144884819Y-115579166D02*
X144932438Y-115674404D01*
X144932438Y-115674404D02*
X144980057Y-115722023D01*
X144980057Y-115722023D02*
X145075295Y-115769642D01*
X145075295Y-115769642D02*
X145218152Y-115769642D01*
X145218152Y-115769642D02*
X145313390Y-115722023D01*
X145313390Y-115722023D02*
X145361009Y-115674404D01*
X145361009Y-115674404D02*
X145408628Y-115579166D01*
X145408628Y-115579166D02*
X145408628Y-115198214D01*
X144980057Y-116150595D02*
X144932438Y-116198214D01*
X144932438Y-116198214D02*
X144884819Y-116293452D01*
X144884819Y-116293452D02*
X144884819Y-116531547D01*
X144884819Y-116531547D02*
X144932438Y-116626785D01*
X144932438Y-116626785D02*
X144980057Y-116674404D01*
X144980057Y-116674404D02*
X145075295Y-116722023D01*
X145075295Y-116722023D02*
X145170533Y-116722023D01*
X145170533Y-116722023D02*
X145313390Y-116674404D01*
X145313390Y-116674404D02*
X145884819Y-116102976D01*
X145884819Y-116102976D02*
X145884819Y-116722023D01*
X144980057Y-117102976D02*
X144932438Y-117150595D01*
X144932438Y-117150595D02*
X144884819Y-117245833D01*
X144884819Y-117245833D02*
X144884819Y-117483928D01*
X144884819Y-117483928D02*
X144932438Y-117579166D01*
X144932438Y-117579166D02*
X144980057Y-117626785D01*
X144980057Y-117626785D02*
X145075295Y-117674404D01*
X145075295Y-117674404D02*
X145170533Y-117674404D01*
X145170533Y-117674404D02*
X145313390Y-117626785D01*
X145313390Y-117626785D02*
X145884819Y-117055357D01*
X145884819Y-117055357D02*
X145884819Y-117674404D01*
X158166666Y-120954819D02*
X158499999Y-120478628D01*
X158738094Y-120954819D02*
X158738094Y-119954819D01*
X158738094Y-119954819D02*
X158357142Y-119954819D01*
X158357142Y-119954819D02*
X158261904Y-120002438D01*
X158261904Y-120002438D02*
X158214285Y-120050057D01*
X158214285Y-120050057D02*
X158166666Y-120145295D01*
X158166666Y-120145295D02*
X158166666Y-120288152D01*
X158166666Y-120288152D02*
X158214285Y-120383390D01*
X158214285Y-120383390D02*
X158261904Y-120431009D01*
X158261904Y-120431009D02*
X158357142Y-120478628D01*
X158357142Y-120478628D02*
X158738094Y-120478628D01*
X157833332Y-119954819D02*
X157166666Y-119954819D01*
X157166666Y-119954819D02*
X157595237Y-120954819D01*
X153666666Y-119359580D02*
X153714285Y-119407200D01*
X153714285Y-119407200D02*
X153857142Y-119454819D01*
X153857142Y-119454819D02*
X153952380Y-119454819D01*
X153952380Y-119454819D02*
X154095237Y-119407200D01*
X154095237Y-119407200D02*
X154190475Y-119311961D01*
X154190475Y-119311961D02*
X154238094Y-119216723D01*
X154238094Y-119216723D02*
X154285713Y-119026247D01*
X154285713Y-119026247D02*
X154285713Y-118883390D01*
X154285713Y-118883390D02*
X154238094Y-118692914D01*
X154238094Y-118692914D02*
X154190475Y-118597676D01*
X154190475Y-118597676D02*
X154095237Y-118502438D01*
X154095237Y-118502438D02*
X153952380Y-118454819D01*
X153952380Y-118454819D02*
X153857142Y-118454819D01*
X153857142Y-118454819D02*
X153714285Y-118502438D01*
X153714285Y-118502438D02*
X153666666Y-118550057D01*
X152761904Y-118454819D02*
X153238094Y-118454819D01*
X153238094Y-118454819D02*
X153285713Y-118931009D01*
X153285713Y-118931009D02*
X153238094Y-118883390D01*
X153238094Y-118883390D02*
X153142856Y-118835771D01*
X153142856Y-118835771D02*
X152904761Y-118835771D01*
X152904761Y-118835771D02*
X152809523Y-118883390D01*
X152809523Y-118883390D02*
X152761904Y-118931009D01*
X152761904Y-118931009D02*
X152714285Y-119026247D01*
X152714285Y-119026247D02*
X152714285Y-119264342D01*
X152714285Y-119264342D02*
X152761904Y-119359580D01*
X152761904Y-119359580D02*
X152809523Y-119407200D01*
X152809523Y-119407200D02*
X152904761Y-119454819D01*
X152904761Y-119454819D02*
X153142856Y-119454819D01*
X153142856Y-119454819D02*
X153238094Y-119407200D01*
X153238094Y-119407200D02*
X153285713Y-119359580D01*
X163077115Y-98070029D02*
X163124734Y-98117649D01*
X163124734Y-98117649D02*
X163267591Y-98165268D01*
X163267591Y-98165268D02*
X163362829Y-98165268D01*
X163362829Y-98165268D02*
X163505686Y-98117649D01*
X163505686Y-98117649D02*
X163600924Y-98022410D01*
X163600924Y-98022410D02*
X163648543Y-97927172D01*
X163648543Y-97927172D02*
X163696162Y-97736696D01*
X163696162Y-97736696D02*
X163696162Y-97593839D01*
X163696162Y-97593839D02*
X163648543Y-97403363D01*
X163648543Y-97403363D02*
X163600924Y-97308125D01*
X163600924Y-97308125D02*
X163505686Y-97212887D01*
X163505686Y-97212887D02*
X163362829Y-97165268D01*
X163362829Y-97165268D02*
X163267591Y-97165268D01*
X163267591Y-97165268D02*
X163124734Y-97212887D01*
X163124734Y-97212887D02*
X163077115Y-97260506D01*
X162696162Y-97260506D02*
X162648543Y-97212887D01*
X162648543Y-97212887D02*
X162553305Y-97165268D01*
X162553305Y-97165268D02*
X162315210Y-97165268D01*
X162315210Y-97165268D02*
X162219972Y-97212887D01*
X162219972Y-97212887D02*
X162172353Y-97260506D01*
X162172353Y-97260506D02*
X162124734Y-97355744D01*
X162124734Y-97355744D02*
X162124734Y-97450982D01*
X162124734Y-97450982D02*
X162172353Y-97593839D01*
X162172353Y-97593839D02*
X162743781Y-98165268D01*
X162743781Y-98165268D02*
X162124734Y-98165268D01*
X138833333Y-125554819D02*
X138833333Y-126269104D01*
X138833333Y-126269104D02*
X138880952Y-126411961D01*
X138880952Y-126411961D02*
X138976190Y-126507200D01*
X138976190Y-126507200D02*
X139119047Y-126554819D01*
X139119047Y-126554819D02*
X139214285Y-126554819D01*
X138452380Y-125554819D02*
X137833333Y-125554819D01*
X137833333Y-125554819D02*
X138166666Y-125935771D01*
X138166666Y-125935771D02*
X138023809Y-125935771D01*
X138023809Y-125935771D02*
X137928571Y-125983390D01*
X137928571Y-125983390D02*
X137880952Y-126031009D01*
X137880952Y-126031009D02*
X137833333Y-126126247D01*
X137833333Y-126126247D02*
X137833333Y-126364342D01*
X137833333Y-126364342D02*
X137880952Y-126459580D01*
X137880952Y-126459580D02*
X137928571Y-126507200D01*
X137928571Y-126507200D02*
X138023809Y-126554819D01*
X138023809Y-126554819D02*
X138309523Y-126554819D01*
X138309523Y-126554819D02*
X138404761Y-126507200D01*
X138404761Y-126507200D02*
X138452380Y-126459580D01*
X171137557Y-72554761D02*
X171089938Y-72459523D01*
X171089938Y-72459523D02*
X170994700Y-72364285D01*
X170994700Y-72364285D02*
X170851842Y-72221428D01*
X170851842Y-72221428D02*
X170804223Y-72126190D01*
X170804223Y-72126190D02*
X170804223Y-72030952D01*
X171042319Y-72078571D02*
X170994700Y-71983333D01*
X170994700Y-71983333D02*
X170899461Y-71888095D01*
X170899461Y-71888095D02*
X170708985Y-71840476D01*
X170708985Y-71840476D02*
X170375652Y-71840476D01*
X170375652Y-71840476D02*
X170185176Y-71888095D01*
X170185176Y-71888095D02*
X170089938Y-71983333D01*
X170089938Y-71983333D02*
X170042319Y-72078571D01*
X170042319Y-72078571D02*
X170042319Y-72269047D01*
X170042319Y-72269047D02*
X170089938Y-72364285D01*
X170089938Y-72364285D02*
X170185176Y-72459523D01*
X170185176Y-72459523D02*
X170375652Y-72507142D01*
X170375652Y-72507142D02*
X170708985Y-72507142D01*
X170708985Y-72507142D02*
X170899461Y-72459523D01*
X170899461Y-72459523D02*
X170994700Y-72364285D01*
X170994700Y-72364285D02*
X171042319Y-72269047D01*
X171042319Y-72269047D02*
X171042319Y-72078571D01*
X170042319Y-72840476D02*
X170042319Y-73459523D01*
X170042319Y-73459523D02*
X170423271Y-73126190D01*
X170423271Y-73126190D02*
X170423271Y-73269047D01*
X170423271Y-73269047D02*
X170470890Y-73364285D01*
X170470890Y-73364285D02*
X170518509Y-73411904D01*
X170518509Y-73411904D02*
X170613747Y-73459523D01*
X170613747Y-73459523D02*
X170851842Y-73459523D01*
X170851842Y-73459523D02*
X170947080Y-73411904D01*
X170947080Y-73411904D02*
X170994700Y-73364285D01*
X170994700Y-73364285D02*
X171042319Y-73269047D01*
X171042319Y-73269047D02*
X171042319Y-72983333D01*
X171042319Y-72983333D02*
X170994700Y-72888095D01*
X170994700Y-72888095D02*
X170947080Y-72840476D01*
D12*
%TO.C,U3*%
X169388349Y-99014849D02*
X167432549Y-99014849D01*
X167432549Y-102266049D02*
X169388349Y-102266049D01*
%TO.C,U1*%
X192957500Y-44433010D02*
X174542500Y-44433010D01*
X192957500Y-51222760D02*
X192957500Y-44433010D01*
X174542500Y-76233810D02*
X192957500Y-76233810D01*
X174542500Y-75637240D02*
X174542500Y-76233810D01*
X192957500Y-76233810D02*
X192957500Y-75637240D01*
X174542500Y-44433010D02*
X174542500Y-51222760D01*
X194862200Y-52000000D02*
G75*
G02*
X194608200Y-52000000I-127000J0D01*
G01*
X194608200Y-52000000D02*
G75*
G02*
X194862200Y-52000000I127000J0D01*
G01*
%TO.C,J2*%
X159236000Y-80543985D02*
X159236000Y-81940985D01*
X158220000Y-81178985D02*
X159236000Y-80543985D01*
X158220000Y-81178985D02*
X159236000Y-81940985D01*
X155220040Y-84099985D02*
X157150000Y-84099985D01*
X151850000Y-69600015D02*
X151850000Y-84099985D01*
X153279961Y-69600015D02*
X151850000Y-69600015D01*
X157150000Y-72129958D02*
X157150000Y-69600015D01*
X157150000Y-84099985D02*
X157150000Y-81570039D01*
X151850000Y-84099985D02*
X153279961Y-84099985D01*
X157150000Y-69600015D02*
X155220040Y-69600015D01*
D13*
%TO.C,TP11*%
X156450000Y-110500000D02*
G75*
G02*
X154550000Y-110500000I-950000J0D01*
G01*
X154550000Y-110500000D02*
G75*
G02*
X156450000Y-110500000I950000J0D01*
G01*
%TO.C,TP13*%
X164450000Y-129000000D02*
G75*
G02*
X162550000Y-129000000I-950000J0D01*
G01*
X162550000Y-129000000D02*
G75*
G02*
X164450000Y-129000000I950000J0D01*
G01*
%TO.C,C20*%
X196596267Y-64690000D02*
X196303733Y-64690000D01*
X196596267Y-65710000D02*
X196303733Y-65710000D01*
%TO.C,R10*%
X163245276Y-121477500D02*
X163754724Y-121477500D01*
X163245276Y-122522500D02*
X163754724Y-122522500D01*
%TO.C,C3*%
X172900449Y-95494182D02*
X172900449Y-95786716D01*
X173920449Y-95494182D02*
X173920449Y-95786716D01*
%TO.C,FB2*%
X136490000Y-123328733D02*
X136490000Y-123671267D01*
X137510000Y-123328733D02*
X137510000Y-123671267D01*
%TO.C,D1*%
X157222949Y-96790449D02*
X159882949Y-96790449D01*
X157222949Y-98490449D02*
X159882949Y-98490449D01*
X159882949Y-98490449D02*
X159882949Y-96790449D01*
D12*
%TO.C,U4*%
X156323600Y-116971300D02*
X156323600Y-119028700D01*
X158363261Y-116971300D02*
X157636739Y-116971300D01*
X159676400Y-119028700D02*
X159676400Y-116971300D01*
D13*
%TO.C,C14*%
X132990000Y-123646267D02*
X132990000Y-123353733D01*
X134010000Y-123646267D02*
X134010000Y-123353733D01*
%TO.C,TP14*%
X137450000Y-65500000D02*
G75*
G02*
X135550000Y-65500000I-950000J0D01*
G01*
X135550000Y-65500000D02*
G75*
G02*
X137450000Y-65500000I950000J0D01*
G01*
%TO.C,R2*%
X139254724Y-51977500D02*
X138745276Y-51977500D01*
X139254724Y-53022500D02*
X138745276Y-53022500D01*
%TO.C,BT1*%
X155015000Y-128290000D02*
X155015000Y-129740000D01*
X156285000Y-132560000D02*
X159715000Y-132560000D01*
X156815000Y-128290000D02*
X155015000Y-128290000D01*
X159185000Y-127300000D02*
X159185000Y-128290000D01*
X159185000Y-128290000D02*
X160985000Y-128290000D01*
X160985000Y-128290000D02*
X160985000Y-129740000D01*
D14*
%TO.C,J1*%
X127400000Y-59470000D02*
X128680000Y-59470000D01*
X128680000Y-50530000D02*
X127400000Y-50530000D01*
X131400000Y-50530000D02*
X132650000Y-50530000D01*
X131400000Y-59470000D02*
X132650000Y-59470000D01*
X136100000Y-58250000D02*
G75*
G02*
X135900000Y-58250000I-100000J0D01*
G01*
X135900000Y-58250000D02*
G75*
G02*
X136100000Y-58250000I100000J0D01*
G01*
D13*
%TO.C,R21*%
X164254724Y-76477500D02*
X163745276Y-76477500D01*
X164254724Y-77522500D02*
X163745276Y-77522500D01*
%TO.C,C1*%
X142540000Y-60746267D02*
X142540000Y-60453733D01*
X143560000Y-60746267D02*
X143560000Y-60453733D01*
%TO.C,C11*%
X143490000Y-112266233D02*
X143490000Y-112558767D01*
X144510000Y-112266233D02*
X144510000Y-112558767D01*
%TO.C,R25*%
X163832776Y-81477500D02*
X164342224Y-81477500D01*
X163832776Y-82522500D02*
X164342224Y-82522500D01*
%TO.C,TP1*%
X180360449Y-96640449D02*
G75*
G02*
X178460449Y-96640449I-950000J0D01*
G01*
X178460449Y-96640449D02*
G75*
G02*
X180360449Y-96640449I950000J0D01*
G01*
%TO.C,PAM8403*%
X137000000Y-114890000D02*
X138500000Y-114890000D01*
X137000000Y-118110000D02*
X138500000Y-118110000D01*
X140000000Y-114890000D02*
X138500000Y-114890000D01*
X140000000Y-118110000D02*
X138500000Y-118110000D01*
X140712500Y-115065000D02*
X140472500Y-114735000D01*
X140952500Y-114735000D01*
X140712500Y-115065000D01*
G36*
X140712500Y-115065000D02*
G01*
X140472500Y-114735000D01*
X140952500Y-114735000D01*
X140712500Y-115065000D01*
G37*
%TO.C,L1*%
X169885449Y-93915449D02*
X166935449Y-93915449D01*
X169885449Y-97365449D02*
X166935449Y-97365449D01*
%TO.C,R17*%
X196145276Y-59677500D02*
X196654724Y-59677500D01*
X196145276Y-60722500D02*
X196654724Y-60722500D01*
%TO.C,U2*%
X147550000Y-53940000D02*
X149500000Y-53940000D01*
X147550000Y-64060000D02*
X149500000Y-64060000D01*
X151450000Y-53940000D02*
X149500000Y-53940000D01*
X151450000Y-64060000D02*
X149500000Y-64060000D01*
X147040000Y-64335000D02*
X146560000Y-64335000D01*
X146800000Y-64005000D01*
X147040000Y-64335000D01*
G36*
X147040000Y-64335000D02*
G01*
X146560000Y-64335000D01*
X146800000Y-64005000D01*
X147040000Y-64335000D01*
G37*
%TO.C,FB1*%
X139490000Y-123328733D02*
X139490000Y-123671267D01*
X140510000Y-123328733D02*
X140510000Y-123671267D01*
%TO.C,C9*%
X196596267Y-62190000D02*
X196303733Y-62190000D01*
X196596267Y-63210000D02*
X196303733Y-63210000D01*
%TO.C,R6*%
X161754724Y-113977500D02*
X161245276Y-113977500D01*
X161754724Y-115022500D02*
X161245276Y-115022500D01*
%TO.C,R1*%
X139254724Y-56977500D02*
X138745276Y-56977500D01*
X139254724Y-58022500D02*
X138745276Y-58022500D01*
%TO.C,R8*%
X135332776Y-61977500D02*
X135842224Y-61977500D01*
X135332776Y-63022500D02*
X135842224Y-63022500D01*
%TO.C,R20*%
X168245276Y-76477500D02*
X168754724Y-76477500D01*
X168245276Y-77522500D02*
X168754724Y-77522500D01*
%TO.C,C7*%
X194740000Y-52953733D02*
X194740000Y-53246267D01*
X195760000Y-52953733D02*
X195760000Y-53246267D01*
%TO.C,R19*%
X163832776Y-83927500D02*
X164342224Y-83927500D01*
X163832776Y-84972500D02*
X164342224Y-84972500D01*
%TO.C,Q1*%
X159200000Y-58340000D02*
X157800000Y-58340000D01*
X159200000Y-60660000D02*
X157790000Y-60660000D01*
X157660000Y-60940000D02*
X157180000Y-60940000D01*
X157420000Y-60610000D01*
X157660000Y-60940000D01*
G36*
X157660000Y-60940000D02*
G01*
X157180000Y-60940000D01*
X157420000Y-60610000D01*
X157660000Y-60940000D01*
G37*
%TO.C,R24*%
X163745276Y-78977500D02*
X164254724Y-78977500D01*
X163745276Y-80022500D02*
X164254724Y-80022500D01*
%TO.C,C13*%
X138216233Y-111990000D02*
X138508767Y-111990000D01*
X138216233Y-113010000D02*
X138508767Y-113010000D01*
%TO.C,C15*%
X142990000Y-123646267D02*
X142990000Y-123353733D01*
X144010000Y-123646267D02*
X144010000Y-123353733D01*
%TO.C,C8*%
X196890000Y-52953733D02*
X196890000Y-53246267D01*
X197910000Y-52953733D02*
X197910000Y-53246267D01*
%TO.C,JP1*%
X162887500Y-71100000D02*
X164887500Y-71100000D01*
X162887500Y-75200000D02*
X162887500Y-71100000D01*
X164887500Y-71100000D02*
X164887500Y-75200000D01*
X164887500Y-75200000D02*
X162887500Y-75200000D01*
%TO.C,R9*%
X163754724Y-123977500D02*
X163245276Y-123977500D01*
X163754724Y-125022500D02*
X163245276Y-125022500D01*
%TO.C,F1*%
X163073228Y-100630449D02*
X162747670Y-100630449D01*
X163073228Y-101650449D02*
X162747670Y-101650449D01*
%TO.C,Q2*%
X157760449Y-99580449D02*
X158410449Y-99580449D01*
X157760449Y-102700449D02*
X158410449Y-102700449D01*
X159060449Y-99580449D02*
X158410449Y-99580449D01*
X159060449Y-102700449D02*
X158410449Y-102700449D01*
X157487949Y-102980449D02*
X157007949Y-102980449D01*
X157247949Y-102650449D01*
X157487949Y-102980449D01*
G36*
X157487949Y-102980449D02*
G01*
X157007949Y-102980449D01*
X157247949Y-102650449D01*
X157487949Y-102980449D01*
G37*
%TO.C,R26*%
X163782776Y-87077500D02*
X164292224Y-87077500D01*
X163782776Y-88122500D02*
X164292224Y-88122500D01*
%TO.C,C10*%
X160872500Y-74853733D02*
X160872500Y-75146267D01*
X159852500Y-74853733D02*
X159852500Y-75146267D01*
%TO.C,TP2*%
X164090449Y-95140449D02*
G75*
G02*
X162190449Y-95140449I-950000J0D01*
G01*
X162190449Y-95140449D02*
G75*
G02*
X164090449Y-95140449I950000J0D01*
G01*
%TO.C,C16*%
X143490000Y-99508767D02*
X143490000Y-99216233D01*
X144510000Y-99508767D02*
X144510000Y-99216233D01*
%TO.C,R19*%
X167477500Y-81167224D02*
X167477500Y-80657776D01*
X168522500Y-81167224D02*
X168522500Y-80657776D01*
%TO.C,C6*%
X157853733Y-123990000D02*
X158146267Y-123990000D01*
X157853733Y-125010000D02*
X158146267Y-125010000D01*
%TO.C,R4*%
X172887949Y-100895173D02*
X172887949Y-100385725D01*
X173932949Y-100895173D02*
X173932949Y-100385725D01*
%TO.C,C12*%
X132490000Y-112558767D02*
X132490000Y-112266233D01*
X133510000Y-112558767D02*
X133510000Y-112266233D01*
%TO.C,R23*%
X132477500Y-116667224D02*
X132477500Y-116157776D01*
X133522500Y-116667224D02*
X133522500Y-116157776D01*
%TO.C,R3*%
X158527673Y-94617949D02*
X158018225Y-94617949D01*
X158527673Y-95662949D02*
X158018225Y-95662949D01*
%TO.C,R5*%
X175387949Y-100385725D02*
X175387949Y-100895173D01*
X176432949Y-100385725D02*
X176432949Y-100895173D01*
%TO.C,C4*%
X175400449Y-95494182D02*
X175400449Y-95786716D01*
X176420449Y-95494182D02*
X176420449Y-95786716D01*
%TO.C,R22*%
X143477500Y-116157776D02*
X143477500Y-116667224D01*
X144522500Y-116157776D02*
X144522500Y-116667224D01*
%TO.C,R7*%
X158254724Y-121477500D02*
X157745276Y-121477500D01*
X158254724Y-122522500D02*
X157745276Y-122522500D01*
%TO.C,C5*%
X153353733Y-116990000D02*
X153646267Y-116990000D01*
X153353733Y-118010000D02*
X153646267Y-118010000D01*
%TO.C,C2*%
X162764182Y-98630449D02*
X163056716Y-98630449D01*
X162764182Y-99650449D02*
X163056716Y-99650449D01*
%TO.C,J3*%
X135515000Y-128290000D02*
X135515000Y-129740000D01*
X136785000Y-132560000D02*
X140215000Y-132560000D01*
X137315000Y-128290000D02*
X135515000Y-128290000D01*
X139685000Y-127300000D02*
X139685000Y-128290000D01*
X139685000Y-128290000D02*
X141485000Y-128290000D01*
X141485000Y-128290000D02*
X141485000Y-129740000D01*
%TO.C,Q3*%
X167177500Y-71950000D02*
X167177500Y-73350000D01*
X169497500Y-71950000D02*
X169497500Y-73360000D01*
X169777500Y-73970000D02*
X169447500Y-73730000D01*
X169777500Y-73490000D01*
X169777500Y-73970000D01*
G36*
X169777500Y-73970000D02*
G01*
X169447500Y-73730000D01*
X169777500Y-73490000D01*
X169777500Y-73970000D01*
G37*
%TD*%
M02*
