%TF.GenerationSoftware,KiCad,Pcbnew,8.0.7*%
%TF.CreationDate,2025-01-02T12:18:16+01:00*%
%TF.ProjectId,redroid_go,72656472-6f69-4645-9f67-6f2e6b696361,rev?*%
%TF.SameCoordinates,Original*%
%TF.FileFunction,Copper,L2,Bot*%
%TF.FilePolarity,Positive*%
%FSLAX46Y46*%
G04 Gerber Fmt 4.6, Leading zero omitted, Abs format (unit mm)*
G04 Created by KiCad (PCBNEW 8.0.7) date 2025-01-02 12:18:16*
%MOMM*%
%LPD*%
G01*
G04 APERTURE LIST*
G04 Aperture macros list*
%AMRoundRect*
0 Rectangle with rounded corners*
0 $1 Rounding radius*
0 $2 $3 $4 $5 $6 $7 $8 $9 X,Y pos of 4 corners*
0 Add a 4 corners polygon primitive as box body*
4,1,4,$2,$3,$4,$5,$6,$7,$8,$9,$2,$3,0*
0 Add four circle primitives for the rounded corners*
1,1,$1+$1,$2,$3*
1,1,$1+$1,$4,$5*
1,1,$1+$1,$6,$7*
1,1,$1+$1,$8,$9*
0 Add four rect primitives between the rounded corners*
20,1,$1+$1,$2,$3,$4,$5,0*
20,1,$1+$1,$4,$5,$6,$7,0*
20,1,$1+$1,$6,$7,$8,$9,0*
20,1,$1+$1,$8,$9,$2,$3,0*%
%AMFreePoly0*
4,1,11,0.760000,0.825000,0.380000,0.510000,0.380000,-0.510000,0.760000,-0.825000,0.760000,-1.525000,-0.125000,-1.525000,-0.380000,-1.270000,-0.380000,1.270000,-0.125000,1.525000,0.760000,1.525000,0.760000,0.825000,0.760000,0.825000,$1*%
G04 Aperture macros list end*
%TA.AperFunction,EtchedComponent*%
%ADD10C,0.000000*%
%TD*%
%TA.AperFunction,SMDPad,CuDef*%
%ADD11R,1.004699X0.355600*%
%TD*%
%TA.AperFunction,SMDPad,CuDef*%
%ADD12R,1.498600X0.889000*%
%TD*%
%TA.AperFunction,SMDPad,CuDef*%
%ADD13R,0.889000X0.889000*%
%TD*%
%TA.AperFunction,SMDPad,CuDef*%
%ADD14R,1.000000X0.300000*%
%TD*%
%TA.AperFunction,SMDPad,CuDef*%
%ADD15R,1.300000X2.000000*%
%TD*%
%TA.AperFunction,SMDPad,CuDef*%
%ADD16C,1.500000*%
%TD*%
%TA.AperFunction,ComponentPad*%
%ADD17C,3.800000*%
%TD*%
%TA.AperFunction,ComponentPad*%
%ADD18R,1.700000X1.700000*%
%TD*%
%TA.AperFunction,ComponentPad*%
%ADD19O,1.700000X1.700000*%
%TD*%
%TA.AperFunction,ComponentPad*%
%ADD20R,1.800000X1.800000*%
%TD*%
%TA.AperFunction,ComponentPad*%
%ADD21C,1.800000*%
%TD*%
%TA.AperFunction,SMDPad,CuDef*%
%ADD22RoundRect,0.237500X-0.300000X-0.237500X0.300000X-0.237500X0.300000X0.237500X-0.300000X0.237500X0*%
%TD*%
%TA.AperFunction,SMDPad,CuDef*%
%ADD23RoundRect,0.237500X0.250000X0.237500X-0.250000X0.237500X-0.250000X-0.237500X0.250000X-0.237500X0*%
%TD*%
%TA.AperFunction,SMDPad,CuDef*%
%ADD24RoundRect,0.237500X0.237500X-0.300000X0.237500X0.300000X-0.237500X0.300000X-0.237500X-0.300000X0*%
%TD*%
%TA.AperFunction,SMDPad,CuDef*%
%ADD25RoundRect,0.237500X0.237500X-0.287500X0.237500X0.287500X-0.237500X0.287500X-0.237500X-0.287500X0*%
%TD*%
%TA.AperFunction,SMDPad,CuDef*%
%ADD26RoundRect,0.112500X0.187500X0.112500X-0.187500X0.112500X-0.187500X-0.112500X0.187500X-0.112500X0*%
%TD*%
%TA.AperFunction,SMDPad,CuDef*%
%ADD27R,0.508000X0.914400*%
%TD*%
%TA.AperFunction,SMDPad,CuDef*%
%ADD28RoundRect,0.237500X-0.237500X0.300000X-0.237500X-0.300000X0.237500X-0.300000X0.237500X0.300000X0*%
%TD*%
%TA.AperFunction,SMDPad,CuDef*%
%ADD29RoundRect,0.237500X-0.250000X-0.237500X0.250000X-0.237500X0.250000X0.237500X-0.250000X0.237500X0*%
%TD*%
%TA.AperFunction,SMDPad,CuDef*%
%ADD30RoundRect,0.150000X0.150000X0.700000X-0.150000X0.700000X-0.150000X-0.700000X0.150000X-0.700000X0*%
%TD*%
%TA.AperFunction,SMDPad,CuDef*%
%ADD31RoundRect,0.250000X0.250000X1.100000X-0.250000X1.100000X-0.250000X-1.100000X0.250000X-1.100000X0*%
%TD*%
%TA.AperFunction,SMDPad,CuDef*%
%ADD32R,1.150000X0.600000*%
%TD*%
%TA.AperFunction,SMDPad,CuDef*%
%ADD33R,1.150000X0.300000*%
%TD*%
%TA.AperFunction,ComponentPad*%
%ADD34O,2.100000X1.000000*%
%TD*%
%TA.AperFunction,ComponentPad*%
%ADD35O,1.800000X1.000000*%
%TD*%
%TA.AperFunction,SMDPad,CuDef*%
%ADD36RoundRect,0.225000X-0.400000X0.225000X-0.400000X-0.225000X0.400000X-0.225000X0.400000X0.225000X0*%
%TD*%
%TA.AperFunction,SMDPad,CuDef*%
%ADD37RoundRect,0.250000X-0.250000X0.300000X-0.250000X-0.300000X0.250000X-0.300000X0.250000X0.300000X0*%
%TD*%
%TA.AperFunction,SMDPad,CuDef*%
%ADD38RoundRect,0.100000X0.712500X0.100000X-0.712500X0.100000X-0.712500X-0.100000X0.712500X-0.100000X0*%
%TD*%
%TA.AperFunction,SMDPad,CuDef*%
%ADD39FreePoly0,0.000000*%
%TD*%
%TA.AperFunction,SMDPad,CuDef*%
%ADD40FreePoly0,180.000000*%
%TD*%
%TA.AperFunction,SMDPad,CuDef*%
%ADD41RoundRect,0.150000X-0.825000X-0.150000X0.825000X-0.150000X0.825000X0.150000X-0.825000X0.150000X0*%
%TD*%
%TA.AperFunction,SMDPad,CuDef*%
%ADD42RoundRect,0.175000X0.625000X-0.175000X0.625000X0.175000X-0.625000X0.175000X-0.625000X-0.175000X0*%
%TD*%
%TA.AperFunction,SMDPad,CuDef*%
%ADD43RoundRect,0.300000X0.450000X-0.300000X0.450000X0.300000X-0.450000X0.300000X-0.450000X-0.300000X0*%
%TD*%
%TA.AperFunction,SMDPad,CuDef*%
%ADD44RoundRect,0.375000X0.375000X-0.425000X0.375000X0.425000X-0.375000X0.425000X-0.375000X-0.425000X0*%
%TD*%
%TA.AperFunction,SMDPad,CuDef*%
%ADD45RoundRect,0.300000X0.800000X-0.300000X0.800000X0.300000X-0.800000X0.300000X-0.800000X-0.300000X0*%
%TD*%
%TA.AperFunction,SMDPad,CuDef*%
%ADD46RoundRect,0.100000X-0.650000X-0.100000X0.650000X-0.100000X0.650000X0.100000X-0.650000X0.100000X0*%
%TD*%
%TA.AperFunction,SMDPad,CuDef*%
%ADD47RoundRect,0.237500X0.300000X0.237500X-0.300000X0.237500X-0.300000X-0.237500X0.300000X-0.237500X0*%
%TD*%
%TA.AperFunction,SMDPad,CuDef*%
%ADD48R,1.500000X1.000000*%
%TD*%
%TA.AperFunction,SMDPad,CuDef*%
%ADD49RoundRect,0.218750X-0.218750X-0.256250X0.218750X-0.256250X0.218750X0.256250X-0.218750X0.256250X0*%
%TD*%
%TA.AperFunction,SMDPad,CuDef*%
%ADD50RoundRect,0.150000X-0.587500X-0.150000X0.587500X-0.150000X0.587500X0.150000X-0.587500X0.150000X0*%
%TD*%
%TA.AperFunction,SMDPad,CuDef*%
%ADD51RoundRect,0.237500X-0.237500X0.250000X-0.237500X-0.250000X0.237500X-0.250000X0.237500X0.250000X0*%
%TD*%
%TA.AperFunction,SMDPad,CuDef*%
%ADD52RoundRect,0.237500X0.237500X-0.250000X0.237500X0.250000X-0.237500X0.250000X-0.237500X-0.250000X0*%
%TD*%
%TA.AperFunction,SMDPad,CuDef*%
%ADD53RoundRect,0.100000X0.100000X-0.650000X0.100000X0.650000X-0.100000X0.650000X-0.100000X-0.650000X0*%
%TD*%
%TA.AperFunction,ViaPad*%
%ADD54C,0.600000*%
%TD*%
%TA.AperFunction,Conductor*%
%ADD55C,0.200000*%
%TD*%
G04 APERTURE END LIST*
D10*
%TA.AperFunction,EtchedComponent*%
%TO.C,JP1*%
G36*
X164187500Y-74050000D02*
G01*
X163587500Y-74050000D01*
X163587500Y-73550000D01*
X164187500Y-73550000D01*
X164187500Y-74050000D01*
G37*
%TD.AperFunction*%
%TD*%
D11*
%TO.P,U3,1,PG*%
%TO.N,unconnected-(U3-PG-Pad1)*%
X167057201Y-101615448D03*
%TO.P,U3,2,VIN*%
%TO.N,Net-(SW11-B)*%
X167057201Y-100965450D03*
%TO.P,U3,3,SW*%
%TO.N,Net-(U3-SW)*%
X167057201Y-100315448D03*
%TO.P,U3,4,PGND*%
%TO.N,GND*%
X167057201Y-99665450D03*
%TO.P,U3,5,OUT*%
%TO.N,P3V3*%
X169763697Y-99665450D03*
%TO.P,U3,6,AGND*%
%TO.N,GND*%
X169763697Y-100315448D03*
%TO.P,U3,7,FB*%
%TO.N,Net-(U3-FB)*%
X169763697Y-100965450D03*
%TO.P,U3,8,EN*%
%TO.N,Net-(SW11-A)*%
X169763697Y-101615448D03*
%TD*%
D12*
%TO.P,U1,1,GND*%
%TO.N,GND*%
X192500000Y-52000000D03*
%TO.P,U1,2,3V3*%
%TO.N,P3V3*%
X192500000Y-53270000D03*
%TO.P,U1,3,EN*%
%TO.N,RESET*%
X192500000Y-54540000D03*
%TO.P,U1,4,SENSOR_VP*%
%TO.N,IO36*%
X192500000Y-55810000D03*
%TO.P,U1,5,SENSOR_VN*%
%TO.N,IO39*%
X192500000Y-57080000D03*
%TO.P,U1,6,IO34*%
%TO.N,IO34*%
X192500000Y-58350000D03*
%TO.P,U1,7,IO35*%
%TO.N,IO35*%
X192500000Y-59620000D03*
%TO.P,U1,8,IO32*%
%TO.N,IO32*%
X192500000Y-60890000D03*
%TO.P,U1,9,IO33*%
%TO.N,IO33*%
X192500000Y-62160000D03*
%TO.P,U1,10,IO25*%
%TO.N,IO25*%
X192500000Y-63430000D03*
%TO.P,U1,11,IO26*%
%TO.N,IO26*%
X192500000Y-64700000D03*
%TO.P,U1,12,IO27*%
%TO.N,IO27*%
X192500000Y-65970000D03*
%TO.P,U1,13,IO14*%
%TO.N,IO14*%
X192500000Y-67240000D03*
%TO.P,U1,14,IO12*%
%TO.N,IO12*%
X192500000Y-68510000D03*
%TO.P,U1,15,GND*%
%TO.N,unconnected-(U1-GND-Pad15)*%
X192500000Y-69780000D03*
%TO.P,U1,16,IO13*%
%TO.N,IO13*%
X192500000Y-71050000D03*
%TO.P,U1,17,NC*%
%TO.N,unconnected-(U1-NC-Pad17)*%
X192500000Y-72320000D03*
%TO.P,U1,18,NC*%
%TO.N,unconnected-(U1-NC-Pad18)*%
X192500000Y-73590000D03*
%TO.P,U1,19,NC*%
%TO.N,unconnected-(U1-NC-Pad19)*%
X192500000Y-74860000D03*
%TO.P,U1,20,NC*%
%TO.N,unconnected-(U1-NC-Pad20)*%
X175000000Y-74860000D03*
%TO.P,U1,21,NC*%
%TO.N,unconnected-(U1-NC-Pad21)*%
X175000000Y-73590000D03*
%TO.P,U1,22,NC*%
%TO.N,unconnected-(U1-NC-Pad22)*%
X175000000Y-72320000D03*
%TO.P,U1,23,IO15*%
%TO.N,IO15*%
X175000000Y-71050000D03*
%TO.P,U1,24,IO2*%
%TO.N,IO2*%
X175000000Y-69780000D03*
%TO.P,U1,25,IO0*%
%TO.N,IO0*%
X175000000Y-68510000D03*
%TO.P,U1,26,IO4*%
%TO.N,IO4*%
X175000000Y-67240000D03*
%TO.P,U1,27,NC*%
%TO.N,unconnected-(U1-NC-Pad27)*%
X175000000Y-65970000D03*
%TO.P,U1,28,NC*%
%TO.N,unconnected-(U1-NC-Pad28)*%
X175000000Y-64700000D03*
%TO.P,U1,29,IO5*%
%TO.N,CS0*%
X175000000Y-63430000D03*
%TO.P,U1,30,IO18*%
%TO.N,SCK*%
X175000000Y-62160000D03*
%TO.P,U1,31,IO19*%
%TO.N,MISO*%
X175000000Y-60890000D03*
%TO.P,U1,32,NC*%
%TO.N,unconnected-(U1-NC-Pad32)*%
X175000000Y-59620000D03*
%TO.P,U1,33,IO21*%
%TO.N,IO21*%
X175000000Y-58350000D03*
%TO.P,U1,34,RXD0*%
%TO.N,RX0*%
X175000000Y-57080000D03*
%TO.P,U1,35,TXD0*%
%TO.N,TX0*%
X175000000Y-55810000D03*
%TO.P,U1,36,IO22*%
%TO.N,CS1*%
X175000000Y-54540000D03*
%TO.P,U1,37,IO23*%
%TO.N,MOSI*%
X175000000Y-53270000D03*
%TO.P,U1,38,GND*%
%TO.N,GND*%
X175000000Y-52000000D03*
D13*
%TO.P,U1,42,EPAD*%
%TO.N,unconnected-(U1-EPAD-Pad42)*%
X185330500Y-61335936D03*
%TO.P,U1,39,EPAD*%
%TO.N,unconnected-(U1-EPAD-Pad39)*%
X185330500Y-59946810D03*
%TO.P,U1,46,EPAD*%
%TO.N,unconnected-(U1-EPAD-Pad46)*%
X185330500Y-58557684D03*
%TO.P,U1,40,EPAD*%
%TO.N,unconnected-(U1-EPAD-Pad40)*%
X186719626Y-59946810D03*
%TO.P,U1,47,EPAD*%
%TO.N,unconnected-(U1-EPAD-Pad47)*%
X186719626Y-58557684D03*
%TO.P,U1,41,EPAD*%
%TO.N,unconnected-(U1-EPAD-Pad41)*%
X186719626Y-61335936D03*
%TO.P,U1,45,EPAD*%
%TO.N,unconnected-(U1-EPAD-Pad45)*%
X183941374Y-58557684D03*
%TO.P,U1,44,EPAD*%
%TO.N,unconnected-(U1-EPAD-Pad44)*%
X183941374Y-59946810D03*
%TO.P,U1,43,EPAD*%
%TO.N,unconnected-(U1-EPAD-Pad43)*%
X183941374Y-61335936D03*
%TD*%
D14*
%TO.P,J2,1,YD*%
%TO.N,unconnected-(J2-YD-Pad1)*%
X156950000Y-81099999D03*
%TO.P,J2,2,XR*%
%TO.N,unconnected-(J2-XR-Pad2)*%
X156950000Y-80600000D03*
%TO.P,J2,3,YU*%
%TO.N,unconnected-(J2-YU-Pad3)*%
X156950000Y-80099999D03*
%TO.P,J2,4,XL*%
%TO.N,unconnected-(J2-XL-Pad4)*%
X156950000Y-79600000D03*
%TO.P,J2,5,LEDK4*%
%TO.N,Net-(J2-LEDK4)*%
X156950000Y-79099998D03*
%TO.P,J2,6,LEDK3*%
%TO.N,Net-(J2-LEDK3)*%
X156950000Y-78599999D03*
%TO.P,J2,7,LEDK2*%
%TO.N,Net-(J2-LEDK2)*%
X156950000Y-78100000D03*
%TO.P,J2,8,LEDK1*%
%TO.N,Net-(J2-LEDK1)*%
X156950000Y-77599998D03*
%TO.P,J2,9,LEDA*%
%TO.N,P3V3*%
X156950000Y-77100000D03*
%TO.P,J2,10,VCC*%
X156950000Y-76599998D03*
%TO.P,J2,11,GND*%
%TO.N,GND*%
X156950000Y-76099999D03*
%TO.P,J2,12,SDO*%
%TO.N,MISO*%
X156950000Y-75600000D03*
%TO.P,J2,13,SDA*%
%TO.N,MOSI*%
X156950000Y-75099998D03*
%TO.P,J2,14,CS*%
%TO.N,CS0*%
X156950000Y-74599999D03*
%TO.P,J2,15,D/C*%
%TO.N,IO21*%
X156950000Y-74099998D03*
%TO.P,J2,16,SCL*%
%TO.N,SCK*%
X156950000Y-73599999D03*
%TO.P,J2,17,RST*%
%TO.N,Net-(J2-RST)*%
X156950000Y-73100000D03*
%TO.P,J2,18,GND*%
%TO.N,GND*%
X156950000Y-72599998D03*
D15*
%TO.P,J2,P1*%
%TO.N,unconnected-(J2-PadP1)*%
X154250001Y-83399992D03*
%TO.P,J2,P2*%
%TO.N,unconnected-(J2-PadP2)*%
X154250001Y-70300008D03*
%TD*%
D16*
%TO.P,TP11,1,1*%
%TO.N,GND*%
X155500000Y-110500000D03*
%TD*%
D17*
%TO.P,H4,1,1*%
%TO.N,unconnected-(H4-Pad1)*%
X196050000Y-72500000D03*
%TD*%
%TO.P,H3,1,1*%
%TO.N,unconnected-(H3-Pad1)*%
X131650000Y-130250000D03*
%TD*%
%TO.P,H2,1,1*%
%TO.N,unconnected-(H2-Pad1)*%
X131550000Y-46500000D03*
%TD*%
%TO.P,H1,1,1*%
%TO.N,unconnected-(H1-Pad1)*%
X196000000Y-114500000D03*
%TD*%
D18*
%TO.P,J4,1,Pin_1*%
%TO.N,GND*%
X164000000Y-49500000D03*
D19*
%TO.P,J4,2,Pin_2*%
%TO.N,Net-(J4-Pin_2)*%
X161460000Y-49500000D03*
%TO.P,J4,3,Pin_3*%
%TO.N,Net-(J4-Pin_3)*%
X158920000Y-49500000D03*
%TO.P,J4,4,Pin_4*%
%TO.N,IO15*%
X156380000Y-49500000D03*
%TO.P,J4,5,Pin_5*%
%TO.N,IO4*%
X153840000Y-49500000D03*
%TO.P,J4,6,Pin_6*%
%TO.N,P3V3*%
X151300000Y-49500000D03*
%TO.P,J4,7,Pin_7*%
%TO.N,MISO*%
X148760000Y-49500000D03*
%TO.P,J4,8,Pin_8*%
%TO.N,Net-(J4-Pin_8)*%
X146220000Y-49500000D03*
%TO.P,J4,9,Pin_9*%
%TO.N,unconnected-(J4-Pin_9-Pad9)*%
X143680000Y-49500000D03*
%TO.P,J4,10,Pin_10*%
%TO.N,VBUS*%
X141140000Y-49500000D03*
%TD*%
D20*
%TO.P,D3,1,K*%
%TO.N,GND*%
X163000000Y-106270000D03*
D21*
%TO.P,D3,2,A*%
%TO.N,Net-(D3-A)*%
X163000000Y-103730000D03*
%TD*%
D20*
%TO.P,D2,1,K*%
%TO.N,Net-(D2-K)*%
X131500000Y-65040000D03*
D21*
%TO.P,D2,2,A*%
%TO.N,Net-(D2-A)*%
X131500000Y-62500000D03*
%TD*%
D16*
%TO.P,TP13,1,1*%
%TO.N,VBAT*%
X163500000Y-129000000D03*
%TD*%
D22*
%TO.P,C20,1*%
%TO.N,IO36*%
X195587500Y-65200000D03*
%TO.P,C20,2*%
%TO.N,GND*%
X197312500Y-65200000D03*
%TD*%
D23*
%TO.P,R10,1*%
%TO.N,IO36*%
X164412500Y-122000000D03*
%TO.P,R10,2*%
%TO.N,GND*%
X162587500Y-122000000D03*
%TD*%
D24*
%TO.P,C3,1*%
%TO.N,P3V3*%
X173410449Y-96502949D03*
%TO.P,C3,2*%
%TO.N,GND*%
X173410449Y-94777949D03*
%TD*%
D25*
%TO.P,FB2,1*%
%TO.N,Net-(J3-Pin_2)*%
X137000000Y-124375000D03*
%TO.P,FB2,2*%
%TO.N,Net-(PAM8403-OUT-)*%
X137000000Y-122625000D03*
%TD*%
D26*
%TO.P,D1,1,K*%
%TO.N,Net-(D1-K)*%
X159322949Y-97640449D03*
%TO.P,D1,2,A*%
%TO.N,VBUS*%
X157222949Y-97640449D03*
%TD*%
D27*
%TO.P,U4,1,/CHG*%
%TO.N,Net-(D2-K)*%
X158950001Y-119397000D03*
%TO.P,U4,2,VSS*%
%TO.N,GND*%
X158000000Y-119397000D03*
%TO.P,U4,3,BAT*%
%TO.N,VBAT*%
X157049999Y-119397000D03*
%TO.P,U4,4,VIN*%
%TO.N,VBUS*%
X157049999Y-116603000D03*
%TO.P,U4,5,ISEN*%
%TO.N,Net-(U4-ISEN)*%
X158950001Y-116603000D03*
%TD*%
D28*
%TO.P,C14,1*%
%TO.N,GND*%
X133500000Y-122637500D03*
%TO.P,C14,2*%
%TO.N,Net-(J3-Pin_2)*%
X133500000Y-124362500D03*
%TD*%
D16*
%TO.P,TP14,1,1*%
%TO.N,VBUS*%
X136500000Y-65500000D03*
%TD*%
D29*
%TO.P,R2,1*%
%TO.N,Net-(J1-CC2)*%
X138087500Y-52500000D03*
%TO.P,R2,2*%
%TO.N,GND*%
X139912500Y-52500000D03*
%TD*%
D30*
%TO.P,BT1,1,+*%
%TO.N,VBAT*%
X158625000Y-128150000D03*
%TO.P,BT1,2,-*%
%TO.N,GND*%
X157375000Y-128150000D03*
D31*
%TO.P,BT1,MP*%
%TO.N,N/C*%
X160475000Y-131350000D03*
X155525000Y-131350000D03*
%TD*%
D32*
%TO.P,J1,A1_B12,GND*%
%TO.N,GND*%
X134755000Y-58200000D03*
%TO.P,J1,A4_B9,VBUS*%
%TO.N,VBUS*%
X134755000Y-57400000D03*
D33*
%TO.P,J1,A5,CC1*%
%TO.N,Net-(J1-CC1)*%
X134755000Y-56250000D03*
%TO.P,J1,A6,DP1*%
%TO.N,D+*%
X134755000Y-55250000D03*
%TO.P,J1,A7,DN1*%
%TO.N,D-*%
X134755000Y-54750000D03*
%TO.P,J1,A8,SBU1*%
%TO.N,unconnected-(J1-SBU1-PadA8)*%
X134755000Y-53750000D03*
D32*
%TO.P,J1,B1_A12,GND__1*%
%TO.N,unconnected-(J1-GND__1-PadB1_A12)*%
X134755000Y-51800000D03*
%TO.P,J1,B4_A9,VBUS__1*%
%TO.N,unconnected-(J1-VBUS__1-PadB4_A9)*%
X134755000Y-52600000D03*
D33*
%TO.P,J1,B5,CC2*%
%TO.N,Net-(J1-CC2)*%
X134755000Y-53250000D03*
%TO.P,J1,B6,DP2*%
%TO.N,D+*%
X134755000Y-54250000D03*
%TO.P,J1,B7,DN2*%
%TO.N,D-*%
X134755000Y-55750000D03*
%TO.P,J1,B8,SBU2*%
%TO.N,unconnected-(J1-SBU2-PadB8)*%
X134755000Y-56750000D03*
D34*
%TO.P,J1,SH1,SHELL_GND*%
%TO.N,GND*%
X134180000Y-59320000D03*
%TO.P,J1,SH2,SHELL_GND__1*%
%TO.N,unconnected-(J1-SHELL_GND__1-PadSH2)*%
X134180000Y-50680000D03*
D35*
%TO.P,J1,SH3,SHELL_GND__2*%
%TO.N,unconnected-(J1-SHELL_GND__2-PadSH3)*%
X130000000Y-59320000D03*
%TO.P,J1,SH4,SHELL_GND__3*%
%TO.N,unconnected-(J1-SHELL_GND__3-PadSH4)*%
X130000000Y-50680000D03*
%TD*%
D36*
%TO.P,SW11,1,A*%
%TO.N,Net-(SW11-A)*%
X195425000Y-81000000D03*
%TO.P,SW11,2,B*%
%TO.N,Net-(SW11-B)*%
X195425000Y-85500000D03*
%TO.P,SW11,3,C*%
%TO.N,unconnected-(SW11-C-Pad3)*%
X195425000Y-87000000D03*
D37*
%TO.P,SW11,4*%
%TO.N,N/C*%
X197500000Y-78500000D03*
%TO.P,SW11,5*%
X197500000Y-89500000D03*
%TD*%
D29*
%TO.P,R21,1*%
%TO.N,GND*%
X163087500Y-77000000D03*
%TO.P,R21,2*%
%TO.N,Net-(JP1-A)*%
X164912500Y-77000000D03*
%TD*%
D28*
%TO.P,C1,1*%
%TO.N,P3V3*%
X143050000Y-59737500D03*
%TO.P,C1,2*%
%TO.N,GND*%
X143050000Y-61462500D03*
%TD*%
D24*
%TO.P,C11,1*%
%TO.N,Net-(C11-Pad1)*%
X144000000Y-113275000D03*
%TO.P,C11,2*%
%TO.N,IO25*%
X144000000Y-111550000D03*
%TD*%
D23*
%TO.P,R25,1*%
%TO.N,Net-(Q3A-C1)*%
X165000000Y-82000000D03*
%TO.P,R25,2*%
%TO.N,Net-(J2-LEDK2)*%
X163175000Y-82000000D03*
%TD*%
D16*
%TO.P,TP1,1,1*%
%TO.N,P3V3*%
X179410449Y-96640449D03*
%TD*%
D38*
%TO.P,PAM8403,1,OUT+*%
%TO.N,Net-(PAM8403-OUT+)*%
X140612500Y-115525000D03*
%TO.P,PAM8403,2,PVDD*%
%TO.N,P3V3*%
X140612500Y-116175000D03*
%TO.P,PAM8403,3,VDD*%
X140612500Y-116825000D03*
%TO.P,PAM8403,4,IN-*%
%TO.N,Net-(PAM8403-IN-)*%
X140612500Y-117475000D03*
%TO.P,PAM8403,5,IN+*%
%TO.N,Net-(PAM8403-IN+)*%
X136387500Y-117475000D03*
%TO.P,PAM8403,6,SD*%
%TO.N,IO25*%
X136387500Y-116825000D03*
%TO.P,PAM8403,7,GND*%
%TO.N,GND*%
X136387500Y-116175000D03*
%TO.P,PAM8403,8,OUT-*%
%TO.N,Net-(PAM8403-OUT-)*%
X136387500Y-115525000D03*
%TD*%
D39*
%TO.P,L1,1,1*%
%TO.N,Net-(U3-SW)*%
X167140449Y-95640449D03*
D40*
%TO.P,L1,2,2*%
%TO.N,P3V3*%
X169680449Y-95640449D03*
%TD*%
D23*
%TO.P,R17,1*%
%TO.N,P3V3*%
X197312500Y-60200000D03*
%TO.P,R17,2*%
%TO.N,RESET*%
X195487500Y-60200000D03*
%TD*%
D41*
%TO.P,U2,1,GND*%
%TO.N,GND*%
X147025000Y-63445000D03*
%TO.P,U2,2,TXD*%
%TO.N,RX0*%
X147025000Y-62175000D03*
%TO.P,U2,3,RXD*%
%TO.N,TX0*%
X147025000Y-60905000D03*
%TO.P,U2,4,V3*%
%TO.N,P3V3*%
X147025000Y-59635000D03*
%TO.P,U2,5,UD+*%
%TO.N,D+*%
X147025000Y-58365000D03*
%TO.P,U2,6,UD-*%
%TO.N,D-*%
X147025000Y-57095000D03*
%TO.P,U2,7,NC*%
%TO.N,unconnected-(U2-NC-Pad7)*%
X147025000Y-55825000D03*
%TO.P,U2,8,NC*%
%TO.N,unconnected-(U2-NC-Pad8)*%
X147025000Y-54555000D03*
%TO.P,U2,9,~{CTS}*%
%TO.N,unconnected-(U2-~{CTS}-Pad9)*%
X151975000Y-54555000D03*
%TO.P,U2,10,~{DSR}*%
%TO.N,unconnected-(U2-~{DSR}-Pad10)*%
X151975000Y-55825000D03*
%TO.P,U2,11,~{RI}*%
%TO.N,unconnected-(U2-~{RI}-Pad11)*%
X151975000Y-57095000D03*
%TO.P,U2,12,~{DCD}*%
%TO.N,unconnected-(U2-~{DCD}-Pad12)*%
X151975000Y-58365000D03*
%TO.P,U2,13,~{DTR}*%
%TO.N,Net-(Q1A-B1)*%
X151975000Y-59635000D03*
%TO.P,U2,14,~{RTS}*%
%TO.N,Net-(Q1A-E1)*%
X151975000Y-60905000D03*
%TO.P,U2,15,R232*%
%TO.N,unconnected-(U2-R232-Pad15)*%
X151975000Y-62175000D03*
%TO.P,U2,16,VCC*%
%TO.N,P3V3*%
X151975000Y-63445000D03*
%TD*%
D25*
%TO.P,FB1,1*%
%TO.N,Net-(J3-Pin_1)*%
X140000000Y-124375000D03*
%TO.P,FB1,2*%
%TO.N,Net-(PAM8403-OUT+)*%
X140000000Y-122625000D03*
%TD*%
D22*
%TO.P,C9,1*%
%TO.N,RESET*%
X195587500Y-62700000D03*
%TO.P,C9,2*%
%TO.N,GND*%
X197312500Y-62700000D03*
%TD*%
D42*
%TO.P,U6,1,DAT2*%
%TO.N,unconnected-(U6-DAT2-Pad1)*%
X140950000Y-97250000D03*
%TO.P,U6,2,CD/DAT3*%
%TO.N,CS1*%
X140950000Y-98350000D03*
%TO.P,U6,3,CMD*%
%TO.N,MOSI*%
X140950000Y-99450000D03*
%TO.P,U6,4,VDD*%
%TO.N,P3V3*%
X140950000Y-100550000D03*
%TO.P,U6,5,CLX*%
%TO.N,SCK*%
X140950000Y-101650000D03*
%TO.P,U6,6,VSS*%
%TO.N,GND*%
X140950000Y-102750000D03*
%TO.P,U6,7,DAT0*%
%TO.N,MISO*%
X140950000Y-103850000D03*
%TO.P,U6,8,DAT1*%
%TO.N,unconnected-(U6-DAT1-Pad8)*%
X140950000Y-104950000D03*
%TO.P,U6,9,SD_CD*%
%TO.N,unconnected-(U6-SD_CD-Pad9)*%
X140950000Y-106050000D03*
D43*
%TO.P,U6,10,SHIELD2*%
%TO.N,GND*%
X139950000Y-107250000D03*
D44*
X139950000Y-92650000D03*
D45*
%TO.P,U6,11,SHIELD1*%
X130350000Y-107250000D03*
X130350000Y-91750000D03*
%TD*%
D29*
%TO.P,R6,1*%
%TO.N,Net-(U4-ISEN)*%
X160587500Y-114500000D03*
%TO.P,R6,2*%
%TO.N,GND*%
X162412500Y-114500000D03*
%TD*%
%TO.P,R1,1*%
%TO.N,Net-(J1-CC1)*%
X138087500Y-57500000D03*
%TO.P,R1,2*%
%TO.N,GND*%
X139912500Y-57500000D03*
%TD*%
D23*
%TO.P,R8,1*%
%TO.N,VBUS*%
X136500000Y-62500000D03*
%TO.P,R8,2*%
%TO.N,Net-(D2-A)*%
X134675000Y-62500000D03*
%TD*%
%TO.P,R20,1*%
%TO.N,IO14*%
X169412500Y-77000000D03*
%TO.P,R20,2*%
%TO.N,GND*%
X167587500Y-77000000D03*
%TD*%
D24*
%TO.P,C7,1*%
%TO.N,P3V3*%
X195250000Y-53962500D03*
%TO.P,C7,2*%
%TO.N,GND*%
X195250000Y-52237500D03*
%TD*%
D23*
%TO.P,R19,1*%
%TO.N,Net-(Q3A-C1)*%
X165000000Y-84450000D03*
%TO.P,R19,2*%
%TO.N,Net-(J2-LEDK3)*%
X163175000Y-84450000D03*
%TD*%
D46*
%TO.P,Q1,1,E1*%
%TO.N,Net-(Q1A-E1)*%
X157170000Y-60150000D03*
%TO.P,Q1,2,B1*%
%TO.N,Net-(Q1A-B1)*%
X157170000Y-59500000D03*
%TO.P,Q1,3,C2*%
%TO.N,IO0*%
X157170000Y-58850000D03*
%TO.P,Q1,4,E2*%
%TO.N,Net-(Q1A-B1)*%
X159830000Y-58850000D03*
%TO.P,Q1,5,B2*%
%TO.N,Net-(Q1A-E1)*%
X159830000Y-59500000D03*
%TO.P,Q1,6,C1*%
%TO.N,RESET*%
X159830000Y-60150000D03*
%TD*%
D23*
%TO.P,R24,1*%
%TO.N,Net-(Q3A-C1)*%
X164912500Y-79500000D03*
%TO.P,R24,2*%
%TO.N,Net-(J2-LEDK1)*%
X163087500Y-79500000D03*
%TD*%
D47*
%TO.P,C13,1*%
%TO.N,P3V3*%
X139225000Y-112500000D03*
%TO.P,C13,2*%
%TO.N,GND*%
X137500000Y-112500000D03*
%TD*%
D28*
%TO.P,C15,1*%
%TO.N,GND*%
X143500000Y-122637500D03*
%TO.P,C15,2*%
%TO.N,Net-(J3-Pin_1)*%
X143500000Y-124362500D03*
%TD*%
D24*
%TO.P,C8,1*%
%TO.N,P3V3*%
X197400000Y-53962500D03*
%TO.P,C8,2*%
%TO.N,GND*%
X197400000Y-52237500D03*
%TD*%
D48*
%TO.P,JP1,1,A*%
%TO.N,Net-(JP1-A)*%
X163887500Y-74450000D03*
%TO.P,JP1,2,C*%
%TO.N,Net-(J2-RST)*%
X163887500Y-73150000D03*
%TO.P,JP1,3,B*%
%TO.N,RESET*%
X163887500Y-71850000D03*
%TD*%
D29*
%TO.P,R9,1*%
%TO.N,VBAT*%
X162587500Y-124500000D03*
%TO.P,R9,2*%
%TO.N,IO36*%
X164412500Y-124500000D03*
%TD*%
D49*
%TO.P,F1,1*%
%TO.N,Net-(D1-K)*%
X162122949Y-101140449D03*
%TO.P,F1,2*%
%TO.N,Net-(SW11-B)*%
X163697949Y-101140449D03*
%TD*%
D50*
%TO.P,Q2,1,D*%
%TO.N,VBAT*%
X157472949Y-102090449D03*
%TO.P,Q2,2,G*%
%TO.N,VBUS*%
X157472949Y-100190449D03*
%TO.P,Q2,3,S*%
%TO.N,Net-(D1-K)*%
X159347949Y-101140449D03*
%TD*%
D23*
%TO.P,R26,1*%
%TO.N,Net-(Q3A-C1)*%
X164950000Y-87600000D03*
%TO.P,R26,2*%
%TO.N,Net-(J2-LEDK4)*%
X163125000Y-87600000D03*
%TD*%
D24*
%TO.P,C10,1*%
%TO.N,P3V3*%
X160362500Y-75862500D03*
%TO.P,C10,2*%
%TO.N,GND*%
X160362500Y-74137500D03*
%TD*%
D16*
%TO.P,TP2,1,1*%
%TO.N,Net-(SW11-B)*%
X163140449Y-95140449D03*
%TD*%
D28*
%TO.P,C16,1*%
%TO.N,P3V3*%
X144000000Y-98500000D03*
%TO.P,C16,2*%
%TO.N,GND*%
X144000000Y-100225000D03*
%TD*%
D51*
%TO.P,R19,1*%
%TO.N,Net-(J2-LEDK1)*%
X168000000Y-80000000D03*
%TO.P,R19,2*%
%TO.N,Net-(Q3A-C1)*%
X168000000Y-81825000D03*
%TD*%
D47*
%TO.P,C6,1*%
%TO.N,VBAT*%
X158862500Y-124500000D03*
%TO.P,C6,2*%
%TO.N,GND*%
X157137500Y-124500000D03*
%TD*%
D51*
%TO.P,R4,1*%
%TO.N,P3V3*%
X173410449Y-99727949D03*
%TO.P,R4,2*%
%TO.N,Net-(U3-FB)*%
X173410449Y-101552949D03*
%TD*%
D28*
%TO.P,C12,1*%
%TO.N,IO26*%
X133000000Y-111550000D03*
%TO.P,C12,2*%
%TO.N,Net-(C12-Pad2)*%
X133000000Y-113275000D03*
%TD*%
D51*
%TO.P,R23,1*%
%TO.N,Net-(C12-Pad2)*%
X133000000Y-115500000D03*
%TO.P,R23,2*%
%TO.N,Net-(PAM8403-IN+)*%
X133000000Y-117325000D03*
%TD*%
D29*
%TO.P,R3,1*%
%TO.N,VBUS*%
X157360449Y-95140449D03*
%TO.P,R3,2*%
%TO.N,GND*%
X159185449Y-95140449D03*
%TD*%
D52*
%TO.P,R5,1*%
%TO.N,Net-(U3-FB)*%
X175910449Y-101552949D03*
%TO.P,R5,2*%
%TO.N,GND*%
X175910449Y-99727949D03*
%TD*%
D24*
%TO.P,C4,1*%
%TO.N,P3V3*%
X175910449Y-96502949D03*
%TO.P,C4,2*%
%TO.N,GND*%
X175910449Y-94777949D03*
%TD*%
D52*
%TO.P,R22,1*%
%TO.N,Net-(PAM8403-IN-)*%
X144000000Y-117325000D03*
%TO.P,R22,2*%
%TO.N,Net-(C11-Pad1)*%
X144000000Y-115500000D03*
%TD*%
D29*
%TO.P,R7,1*%
%TO.N,VBUS*%
X157087500Y-122000000D03*
%TO.P,R7,2*%
%TO.N,Net-(D2-K)*%
X158912500Y-122000000D03*
%TD*%
D47*
%TO.P,C5,1*%
%TO.N,VBUS*%
X154362500Y-117500000D03*
%TO.P,C5,2*%
%TO.N,GND*%
X152637500Y-117500000D03*
%TD*%
%TO.P,C2,1*%
%TO.N,Net-(SW11-B)*%
X163772949Y-99140449D03*
%TO.P,C2,2*%
%TO.N,GND*%
X162047949Y-99140449D03*
%TD*%
D30*
%TO.P,J3,1,Pin_1*%
%TO.N,Net-(J3-Pin_1)*%
X139125000Y-128150000D03*
%TO.P,J3,2,Pin_2*%
%TO.N,Net-(J3-Pin_2)*%
X137875000Y-128150000D03*
D31*
%TO.P,J3,MP*%
%TO.N,N/C*%
X140975000Y-131350000D03*
X136025000Y-131350000D03*
%TD*%
D53*
%TO.P,Q3,1,E1*%
%TO.N,GND*%
X168987500Y-73980000D03*
%TO.P,Q3,2,B1*%
%TO.N,IO14*%
X168337500Y-73980000D03*
%TO.P,Q3,3,C2*%
%TO.N,Net-(JP1-A)*%
X167687500Y-73980000D03*
%TO.P,Q3,4,E2*%
%TO.N,P3V3*%
X167687500Y-71320000D03*
%TO.P,Q3,5,B2*%
%TO.N,RESET*%
X168337500Y-71320000D03*
%TO.P,Q3,6,C1*%
%TO.N,Net-(Q3A-C1)*%
X168987500Y-71320000D03*
%TD*%
D54*
%TO.N,IO33*%
X191000000Y-62000000D03*
%TO.N,IO32*%
X190600000Y-61050000D03*
%TO.N,D-*%
X137500000Y-55825000D03*
X137500000Y-54625000D03*
%TO.N,RESET*%
X164250000Y-60250000D03*
X171500000Y-67500000D03*
%TO.N,IO34*%
X194000000Y-58500000D03*
X186500000Y-80500000D03*
X180600000Y-80500000D03*
%TO.N,IO35*%
X190138527Y-64100000D03*
X186500000Y-79500000D03*
X180600000Y-79500000D03*
%TO.N,IO13*%
X179000000Y-89500000D03*
X187500000Y-71000000D03*
X183150000Y-89500000D03*
X171000000Y-89500000D03*
X163500000Y-89500000D03*
X192500000Y-71050000D03*
%TO.N,IO0*%
X176400000Y-68500000D03*
%TO.N,P3V3*%
X179500000Y-98500000D03*
%TO.N,IO39*%
X191000000Y-57500000D03*
%TO.N,IO27*%
X187500000Y-66000000D03*
%TO.N,IO12*%
X184000000Y-68500000D03*
%TO.N,SCK*%
X173500000Y-62000000D03*
%TO.N,MISO*%
X155500000Y-58900000D03*
X155134650Y-65565350D03*
%TO.N,IO0*%
X166000000Y-60000000D03*
X171500000Y-65500000D03*
%TO.N,Net-(J4-Pin_3)*%
X159000000Y-52500000D03*
%TO.N,VBUS*%
X136500000Y-51000000D03*
X136000000Y-57870000D03*
%TO.N,Net-(J4-Pin_8)*%
X152500000Y-53000000D03*
%TO.N,Net-(J4-Pin_3)*%
X159000000Y-55500000D03*
%TO.N,Net-(D2-K)*%
X153000000Y-97500000D03*
X142500000Y-92500000D03*
X153000000Y-106000000D03*
X159000000Y-106000000D03*
%TO.N,VBUS*%
X142500000Y-91000000D03*
X153000000Y-95000000D03*
%TO.N,IO26*%
X179000000Y-76000000D03*
X179000000Y-78000000D03*
X146500000Y-90500000D03*
X154000000Y-90500000D03*
%TO.N,IO25*%
X135000000Y-109500000D03*
X140500000Y-109500000D03*
%TO.N,P3V3*%
X180000000Y-77600000D03*
X180000000Y-75000000D03*
X151500000Y-93500000D03*
X149000000Y-93500000D03*
%TO.N,SCK*%
X150000000Y-70500000D03*
X158041421Y-70541421D03*
%TO.N,MOSI*%
X151424265Y-66924265D03*
X155000000Y-67000000D03*
%TO.N,CS1*%
X154000000Y-65565350D03*
X155000000Y-63900000D03*
%TO.N,Net-(Q3A-C1)*%
X166000000Y-79500000D03*
X166000000Y-73500000D03*
%TO.N,P3V3*%
X162000000Y-74500000D03*
X162000000Y-71500000D03*
%TO.N,MISO*%
X173000000Y-61000000D03*
X171400000Y-61000000D03*
%TO.N,MOSI*%
X163500000Y-63000000D03*
X163500000Y-66199997D03*
%TO.N,CS0*%
X168500000Y-67000000D03*
X163500000Y-67000000D03*
%TD*%
D55*
%TO.N,IO35*%
X180600000Y-79500000D02*
X186500000Y-79500000D01*
%TO.N,IO34*%
X180600000Y-80500000D02*
X186500000Y-80500000D01*
%TO.N,IO33*%
X192500000Y-62160000D02*
X191160000Y-62160000D01*
X191160000Y-62160000D02*
X191000000Y-62000000D01*
%TO.N,IO32*%
X192500000Y-60890000D02*
X190760000Y-60890000D01*
X190760000Y-60890000D02*
X190600000Y-61050000D01*
%TO.N,IO35*%
X190138527Y-64100000D02*
X190000000Y-63961473D01*
X190000000Y-63961473D02*
X190000000Y-60500000D01*
X190880000Y-59620000D02*
X192500000Y-59620000D01*
X190000000Y-60500000D02*
X190880000Y-59620000D01*
%TO.N,P3V3*%
X180000000Y-75000000D02*
X180000000Y-69544562D01*
X180000000Y-69544562D02*
X188000000Y-61544562D01*
X188000000Y-61544562D02*
X188000000Y-57246200D01*
X188000000Y-57246200D02*
X191976200Y-53270000D01*
X191976200Y-53270000D02*
X192500000Y-53270000D01*
%TO.N,IO13*%
X187500000Y-71000000D02*
X187550000Y-71050000D01*
X187550000Y-71050000D02*
X192500000Y-71050000D01*
%TO.N,IO27*%
X187530000Y-65970000D02*
X192500000Y-65970000D01*
X187500000Y-66000000D02*
X187530000Y-65970000D01*
%TO.N,IO13*%
X179000000Y-89500000D02*
X183150000Y-89500000D01*
%TO.N,D+*%
X134755000Y-54250000D02*
X133930000Y-54250000D01*
X133930000Y-54250000D02*
X133880000Y-54300000D01*
X133880000Y-54300000D02*
X133880000Y-55200000D01*
X133880000Y-55200000D02*
X133930000Y-55250000D01*
X133930000Y-55250000D02*
X134755000Y-55250000D01*
%TO.N,D-*%
X137500000Y-55825000D02*
X137425000Y-55750000D01*
X137425000Y-55750000D02*
X134755000Y-55750000D01*
%TO.N,RESET*%
X164250000Y-60250000D02*
X164150000Y-60150000D01*
X164150000Y-60150000D02*
X159830000Y-60150000D01*
X168337500Y-71320000D02*
X168337500Y-70570001D01*
X168337500Y-70570001D02*
X171407501Y-67500000D01*
X171407501Y-67500000D02*
X171500000Y-67500000D01*
%TO.N,IO36*%
X195587500Y-65200000D02*
X193850000Y-66937500D01*
X196350000Y-80551304D02*
X196350000Y-90062500D01*
X193850000Y-66937500D02*
X193850000Y-78051304D01*
X193850000Y-78051304D02*
X196350000Y-80551304D01*
X196350000Y-90062500D02*
X164412500Y-122000000D01*
X192500000Y-55810000D02*
X193449300Y-55810000D01*
X193449300Y-55810000D02*
X194600000Y-56960700D01*
X194600000Y-56960700D02*
X194600000Y-64212500D01*
X194600000Y-64212500D02*
X195587500Y-65200000D01*
%TO.N,IO34*%
X194000000Y-58500000D02*
X192650000Y-58500000D01*
X192650000Y-58500000D02*
X192500000Y-58350000D01*
%TO.N,IO13*%
X163500000Y-89500000D02*
X171000000Y-89500000D01*
%TO.N,IO26*%
X154000000Y-90500000D02*
X172000000Y-90500000D01*
X172000000Y-90500000D02*
X179000000Y-83500000D01*
X179000000Y-83500000D02*
X179000000Y-78000000D01*
%TO.N,IO0*%
X176400000Y-68500000D02*
X175010000Y-68500000D01*
X175010000Y-68500000D02*
X175000000Y-68510000D01*
%TO.N,IO4*%
X153840000Y-49500000D02*
X155595500Y-51255500D01*
X155595500Y-51255500D02*
X176049299Y-51255500D01*
X176500000Y-66263800D02*
X175523800Y-67240000D01*
X176049299Y-51255500D02*
X176500000Y-51706201D01*
X176500000Y-51706201D02*
X176500000Y-66263800D01*
X175523800Y-67240000D02*
X175000000Y-67240000D01*
%TO.N,IO15*%
X156380000Y-49500000D02*
X157735500Y-50855500D01*
X157735500Y-50855500D02*
X176214985Y-50855500D01*
X176214985Y-50855500D02*
X177000000Y-51640515D01*
X177000000Y-51640515D02*
X177000000Y-69573800D01*
X177000000Y-69573800D02*
X175523800Y-71050000D01*
X175523800Y-71050000D02*
X175000000Y-71050000D01*
%TO.N,P3V3*%
X179500000Y-98500000D02*
X179500000Y-96730000D01*
X179500000Y-96730000D02*
X179410449Y-96640449D01*
%TO.N,IO39*%
X191000000Y-57500000D02*
X191420000Y-57080000D01*
X191420000Y-57080000D02*
X192500000Y-57080000D01*
%TO.N,IO12*%
X184000000Y-68500000D02*
X184010000Y-68510000D01*
X184010000Y-68510000D02*
X192500000Y-68510000D01*
%TO.N,IO14*%
X169412500Y-77000000D02*
X179414215Y-77000000D01*
X179414215Y-77000000D02*
X181000000Y-75414215D01*
X181000000Y-75414215D02*
X181000000Y-70500000D01*
X181000000Y-70500000D02*
X184260000Y-67240000D01*
X184260000Y-67240000D02*
X192500000Y-67240000D01*
%TO.N,IO26*%
X179000000Y-76000000D02*
X179848529Y-76000000D01*
X179848529Y-76000000D02*
X180600000Y-75248529D01*
X180600000Y-69900000D02*
X185800000Y-64700000D01*
X180600000Y-75248529D02*
X180600000Y-69900000D01*
X185800000Y-64700000D02*
X192500000Y-64700000D01*
%TO.N,MISO*%
X155400000Y-58900000D02*
X155500000Y-58900000D01*
X153500000Y-57000000D02*
X155400000Y-58900000D01*
X153500000Y-57000000D02*
X153500000Y-53151471D01*
X153500000Y-53151471D02*
X152348529Y-52000000D01*
X152348529Y-52000000D02*
X152065686Y-52000000D01*
X152065686Y-52000000D02*
X149565686Y-49500000D01*
X149565686Y-49500000D02*
X148760000Y-49500000D01*
%TO.N,Net-(J4-Pin_8)*%
X152500000Y-53000000D02*
X151500000Y-52000000D01*
X151500000Y-52000000D02*
X148720000Y-52000000D01*
X148720000Y-52000000D02*
X146220000Y-49500000D01*
%TO.N,IO0*%
X157670000Y-58350000D02*
X157170000Y-58850000D01*
X175000000Y-68510000D02*
X174510000Y-68510000D01*
X174510000Y-68510000D02*
X171500000Y-65500000D01*
X166000000Y-60000000D02*
X164350000Y-58350000D01*
X164350000Y-58350000D02*
X157670000Y-58350000D01*
%TO.N,Net-(J4-Pin_3)*%
X159000000Y-55500000D02*
X159000000Y-52500000D01*
%TO.N,VBUS*%
X138000000Y-49500000D02*
X136500000Y-51000000D01*
X141140000Y-49500000D02*
X138000000Y-49500000D01*
%TO.N,VBAT*%
X162587500Y-124500000D02*
X162587500Y-128087500D01*
X162587500Y-128087500D02*
X163500000Y-129000000D01*
%TO.N,Net-(D2-K)*%
X159000000Y-106000000D02*
X161375000Y-108375000D01*
X161375000Y-108375000D02*
X161375000Y-116972001D01*
X161375000Y-116972001D02*
X158950001Y-119397000D01*
X131500000Y-65040000D02*
X131500000Y-81500000D01*
X131500000Y-81500000D02*
X142500000Y-92500000D01*
X153000000Y-97500000D02*
X153000000Y-106000000D01*
%TO.N,Net-(D2-A)*%
X134675000Y-62500000D02*
X131500000Y-62500000D01*
%TO.N,VBUS*%
X136500000Y-62500000D02*
X136000000Y-62000000D01*
X136000000Y-62000000D02*
X136000000Y-57870000D01*
X136000000Y-57870000D02*
X135530000Y-57400000D01*
X135530000Y-57400000D02*
X134755000Y-57400000D01*
X157360449Y-95140449D02*
X153140449Y-95140449D01*
X136500000Y-85000000D02*
X136500000Y-62500000D01*
X153140449Y-95140449D02*
X153000000Y-95000000D01*
X142500000Y-91000000D02*
X136500000Y-85000000D01*
%TO.N,Net-(SW11-B)*%
X195425000Y-85500000D02*
X178184551Y-102740449D01*
X165297949Y-102740449D02*
X163697949Y-101140449D01*
X178184551Y-102740449D02*
X165297949Y-102740449D01*
%TO.N,Net-(SW11-A)*%
X195425000Y-81000000D02*
X195425000Y-84075000D01*
X195425000Y-84075000D02*
X177159551Y-102340449D01*
X177159551Y-102340449D02*
X170488698Y-102340449D01*
X170488698Y-102340449D02*
X169763697Y-101615448D01*
%TO.N,Net-(J3-Pin_1)*%
X143500000Y-124362500D02*
X140012500Y-124362500D01*
X140012500Y-124362500D02*
X140000000Y-124375000D01*
%TO.N,IO26*%
X133000000Y-111550000D02*
X133000000Y-103723398D01*
X133000000Y-103723398D02*
X146223398Y-90500000D01*
X146223398Y-90500000D02*
X146500000Y-90500000D01*
%TO.N,IO25*%
X144000000Y-111550000D02*
X142550000Y-111550000D01*
X142550000Y-111550000D02*
X140500000Y-109500000D01*
X135000000Y-109500000D02*
X135000000Y-116249999D01*
X135000000Y-116249999D02*
X135575001Y-116825000D01*
X135575001Y-116825000D02*
X136387500Y-116825000D01*
%TO.N,Net-(PAM8403-IN+)*%
X133000000Y-117325000D02*
X136237500Y-117325000D01*
X136237500Y-117325000D02*
X136387500Y-117475000D01*
%TO.N,Net-(PAM8403-IN-)*%
X144000000Y-117325000D02*
X140762500Y-117325000D01*
X140762500Y-117325000D02*
X140612500Y-117475000D01*
%TO.N,VBUS*%
X157087500Y-122000000D02*
X154362500Y-119275000D01*
X154362500Y-119275000D02*
X154362500Y-117500000D01*
%TO.N,VBAT*%
X157472949Y-102090449D02*
X157772948Y-102390448D01*
X157772948Y-102390448D02*
X157772948Y-118227052D01*
X157049999Y-118950001D02*
X157049999Y-119397000D01*
X157772948Y-118227052D02*
X157049999Y-118950001D01*
%TO.N,VBUS*%
X154362500Y-117500000D02*
X154362500Y-103300898D01*
X154362500Y-103300898D02*
X157472949Y-100190449D01*
%TO.N,P3V3*%
X139225000Y-112500000D02*
X138900000Y-112175000D01*
X138900000Y-101800000D02*
X140150000Y-100550000D01*
X140150000Y-100550000D02*
X140950000Y-100550000D01*
X138900000Y-112175000D02*
X138900000Y-101800000D01*
X169535000Y-93965000D02*
X169680449Y-94110449D01*
X169070000Y-93500000D02*
X169535000Y-93965000D01*
X169535000Y-93965000D02*
X180000000Y-83500000D01*
X180000000Y-83500000D02*
X180000000Y-77600000D01*
X151500000Y-93500000D02*
X169070000Y-93500000D01*
X169680449Y-94110449D02*
X169680449Y-95640449D01*
X151500000Y-93500000D02*
X151500000Y-81799998D01*
X144000000Y-98500000D02*
X149000000Y-93500000D01*
X151500000Y-81799998D02*
X156199998Y-77100000D01*
X156199998Y-77100000D02*
X156950000Y-77100000D01*
X140950000Y-100550000D02*
X141750000Y-100550000D01*
X141750000Y-100550000D02*
X143800000Y-98500000D01*
X143800000Y-98500000D02*
X144000000Y-98500000D01*
%TO.N,SCK*%
X140950000Y-101650000D02*
X141850000Y-101650000D01*
X141850000Y-101650000D02*
X143225000Y-100275000D01*
X143225000Y-100275000D02*
X143225000Y-99695778D01*
X143225000Y-99695778D02*
X143583278Y-99337500D01*
X143583278Y-99337500D02*
X144662500Y-99337500D01*
X144662500Y-99337500D02*
X150000000Y-94000000D01*
X150000000Y-94000000D02*
X150000000Y-70500000D01*
%TO.N,MISO*%
X156950000Y-75600000D02*
X156500000Y-75600000D01*
X156500000Y-75600000D02*
X155937256Y-75600000D01*
X140950000Y-103850000D02*
X141750000Y-103850000D01*
X141750000Y-103850000D02*
X150500000Y-95100000D01*
X150500000Y-81299999D02*
X156199999Y-75600000D01*
X150500000Y-95100000D02*
X150500000Y-81299999D01*
X156199999Y-75600000D02*
X156500000Y-75600000D01*
%TO.N,MOSI*%
X140950000Y-99450000D02*
X141326602Y-99450000D01*
X151141421Y-66924265D02*
X151424265Y-66924265D01*
X141326602Y-99450000D02*
X149032843Y-91743759D01*
X149032843Y-69032843D02*
X151141421Y-66924265D01*
X149032843Y-91743759D02*
X149032843Y-69032843D01*
X155000000Y-67000000D02*
X153300001Y-68699999D01*
X155500000Y-66500000D02*
X155000000Y-67000000D01*
%TO.N,MISO*%
X155937256Y-75600000D02*
X152500000Y-72162744D01*
X152500000Y-68000000D02*
X155134650Y-65365350D01*
X152500000Y-72162744D02*
X152500000Y-68000000D01*
X155134650Y-65365350D02*
X167034650Y-65365350D01*
X167034650Y-65365350D02*
X171400000Y-61000000D01*
%TO.N,CS1*%
X148500000Y-69000000D02*
X151934650Y-65565350D01*
X141750000Y-98350000D02*
X148500000Y-91600000D01*
X151934650Y-65565350D02*
X154000000Y-65565350D01*
X140950000Y-98350000D02*
X141750000Y-98350000D01*
X148500000Y-91600000D02*
X148500000Y-69000000D01*
X155000000Y-63900000D02*
X164690700Y-63900000D01*
X164690700Y-63900000D02*
X174050700Y-54540000D01*
X174050700Y-54540000D02*
X175000000Y-54540000D01*
%TO.N,Net-(Q3A-C1)*%
X168987500Y-71320000D02*
X169083750Y-71416250D01*
X169083750Y-71416250D02*
X169083750Y-72916250D01*
X169083750Y-72916250D02*
X166583750Y-72916250D01*
X166583750Y-72916250D02*
X166000000Y-73500000D01*
X166000000Y-79500000D02*
X164912500Y-79500000D01*
%TO.N,IO14*%
X168337500Y-73980000D02*
X168337500Y-75596814D01*
X168337500Y-75596814D02*
X169412500Y-76671814D01*
X169412500Y-76671814D02*
X169412500Y-77000000D01*
%TO.N,Net-(Q3A-C1)*%
X168000000Y-81825000D02*
X165175000Y-81825000D01*
X165175000Y-81825000D02*
X165000000Y-82000000D01*
%TO.N,Net-(J2-LEDK1)*%
X163087500Y-79500000D02*
X163862500Y-78725000D01*
X163862500Y-78725000D02*
X166725000Y-78725000D01*
X166725000Y-78725000D02*
X168000000Y-80000000D01*
%TO.N,P3V3*%
X160362500Y-75862500D02*
X161725000Y-74500000D01*
X161725000Y-74500000D02*
X162000000Y-74500000D01*
X163000000Y-70500000D02*
X162000000Y-71500000D01*
X167687500Y-71320000D02*
X166867500Y-70500000D01*
X166867500Y-70500000D02*
X163000000Y-70500000D01*
%TO.N,SCK*%
X156950000Y-73599999D02*
X156199999Y-73599999D01*
X156199999Y-73599999D02*
X156000000Y-73400000D01*
X156000000Y-73400000D02*
X156000000Y-72299998D01*
X156000000Y-72299998D02*
X159299998Y-69000000D01*
X159299998Y-69000000D02*
X165000000Y-69000000D01*
X165000000Y-69000000D02*
X171840000Y-62160000D01*
X171840000Y-62160000D02*
X175000000Y-62160000D01*
%TO.N,IO21*%
X156950000Y-74099998D02*
X156134312Y-74099998D01*
X156134312Y-74099998D02*
X155600000Y-73565686D01*
X155600000Y-73565686D02*
X155600000Y-72134312D01*
X155600000Y-72134312D02*
X159234312Y-68500000D01*
X164934314Y-68500000D02*
X171934314Y-61500000D01*
X159234312Y-68500000D02*
X164934314Y-68500000D01*
X174050700Y-58350000D02*
X175000000Y-58350000D01*
X171934314Y-61500000D02*
X172000000Y-61500000D01*
X172000000Y-61500000D02*
X172000000Y-60400700D01*
X172000000Y-60400700D02*
X174050700Y-58350000D01*
%TO.N,P3V3*%
X156950000Y-77000000D02*
X156950000Y-77100000D01*
X156950000Y-76599998D02*
X156950000Y-77000000D01*
X156950000Y-77000000D02*
X159225000Y-77000000D01*
X159225000Y-77000000D02*
X160362500Y-75862500D01*
%TO.N,Net-(J2-LEDK4)*%
X156950000Y-79099998D02*
X157699998Y-79099998D01*
X157699998Y-79099998D02*
X162387500Y-83787500D01*
X162387500Y-83787500D02*
X162387500Y-86862500D01*
X162387500Y-86862500D02*
X163125000Y-87600000D01*
%TO.N,Net-(J2-LEDK3)*%
X156950000Y-78599999D02*
X157799999Y-78599999D01*
X157799999Y-78599999D02*
X163175000Y-83975000D01*
X163175000Y-83975000D02*
X163175000Y-84450000D01*
%TO.N,Net-(J2-LEDK2)*%
X156950000Y-78100000D02*
X159275000Y-78100000D01*
X159275000Y-78100000D02*
X163175000Y-82000000D01*
%TO.N,Net-(J2-LEDK1)*%
X156950000Y-77599998D02*
X161187498Y-77599998D01*
X161187498Y-77599998D02*
X163087500Y-79500000D01*
%TO.N,MISO*%
X173000000Y-61000000D02*
X174890000Y-61000000D01*
X174890000Y-61000000D02*
X175000000Y-60890000D01*
%TO.N,MOSI*%
X163500000Y-66199997D02*
X163451474Y-66199997D01*
X163451474Y-66199997D02*
X163151471Y-66500000D01*
X163151471Y-66500000D02*
X155500000Y-66500000D01*
X153300001Y-68699999D02*
X153300001Y-72397059D01*
X153300001Y-72397059D02*
X156002940Y-75099998D01*
X156002940Y-75099998D02*
X156950000Y-75099998D01*
%TO.N,Net-(JP1-A)*%
X163887500Y-74450000D02*
X163887500Y-75975000D01*
X163887500Y-75975000D02*
X164912500Y-77000000D01*
%TO.N,MOSI*%
X163500000Y-63000000D02*
X164320700Y-63000000D01*
X174050700Y-53270000D02*
X175000000Y-53270000D01*
X164320700Y-63000000D02*
X174050700Y-53270000D01*
%TO.N,CS0*%
X168500000Y-67000000D02*
X172070000Y-63430000D01*
X172070000Y-63430000D02*
X175000000Y-63430000D01*
X156950000Y-74599999D02*
X156068627Y-74599999D01*
X156068627Y-74599999D02*
X155200000Y-73731372D01*
X155200000Y-73731372D02*
X155200000Y-71800000D01*
X155200000Y-71800000D02*
X160000000Y-67000000D01*
X160000000Y-67000000D02*
X163500000Y-67000000D01*
%TO.N,RESET*%
X168337500Y-71320000D02*
X168337500Y-72250000D01*
X168337500Y-72250000D02*
X168087500Y-72500000D01*
X166899044Y-71850000D02*
X163887500Y-71850000D01*
X168087500Y-72500000D02*
X167549044Y-72500000D01*
X167549044Y-72500000D02*
X166899044Y-71850000D01*
%TO.N,Net-(Q3A-C1)*%
X164950000Y-87600000D02*
X164950000Y-84500000D01*
X164950000Y-84500000D02*
X165000000Y-84450000D01*
X165000000Y-84450000D02*
X165000000Y-82000000D01*
X164912500Y-79500000D02*
X164912500Y-81912500D01*
X164912500Y-81912500D02*
X165000000Y-82000000D01*
%TO.N,Net-(JP1-A)*%
X163887500Y-74450000D02*
X167217500Y-74450000D01*
X167217500Y-74450000D02*
X167687500Y-73980000D01*
%TO.N,Net-(J2-RST)*%
X163300000Y-73150000D02*
X157000000Y-73150000D01*
X157000000Y-73150000D02*
X156950000Y-73100000D01*
%TO.N,VBAT*%
X158000000Y-123000000D02*
X158000000Y-121000000D01*
X157049999Y-120049999D02*
X157049999Y-119397000D01*
X158862500Y-124500000D02*
X158862500Y-123862500D01*
X158000000Y-121000000D02*
X157049999Y-120049999D01*
X162587500Y-124500000D02*
X158862500Y-124500000D01*
X158862500Y-124500000D02*
X158862500Y-127912500D01*
X158862500Y-127912500D02*
X158625000Y-128150000D01*
X158862500Y-123862500D02*
X158000000Y-123000000D01*
%TO.N,P3V3*%
X176047949Y-96640449D02*
X175910449Y-96502949D01*
X141500000Y-112500000D02*
X142500000Y-113500000D01*
X173347950Y-99665450D02*
X173410449Y-99727949D01*
X143152500Y-59635000D02*
X143050000Y-59737500D01*
X140612500Y-116825000D02*
X140612500Y-116175000D01*
X173410449Y-96502949D02*
X173410449Y-99727949D01*
X169763697Y-99665450D02*
X173347950Y-99665450D01*
X141825000Y-116175000D02*
X140612500Y-116175000D01*
X147819448Y-59635000D02*
X147025000Y-59635000D01*
X139225000Y-112500000D02*
X141500000Y-112500000D01*
X179410449Y-96640449D02*
X176047949Y-96640449D01*
X147025000Y-59635000D02*
X143152500Y-59635000D01*
X194557500Y-53270000D02*
X192500000Y-53270000D01*
X169680449Y-99582202D02*
X169763697Y-99665450D01*
X142500000Y-113500000D02*
X142500000Y-115500000D01*
X197312500Y-54050000D02*
X197400000Y-53962500D01*
X169680449Y-96640449D02*
X169680449Y-99582202D01*
X195250000Y-53962500D02*
X197400000Y-53962500D01*
X151975000Y-63445000D02*
X151629448Y-63445000D01*
X195250000Y-53962500D02*
X194557500Y-53270000D01*
X197312500Y-60200000D02*
X197312500Y-54050000D01*
X142500000Y-115500000D02*
X141825000Y-116175000D01*
X151629448Y-63445000D02*
X147819448Y-59635000D01*
X175910449Y-96502949D02*
X173410449Y-96502949D01*
%TO.N,Net-(SW11-B)*%
X163140449Y-97140449D02*
X163772949Y-97772949D01*
X163772949Y-101065449D02*
X163697949Y-101140449D01*
X163140449Y-95140449D02*
X163140449Y-97140449D01*
X163697949Y-101140449D02*
X163872948Y-100965450D01*
X163772949Y-97772949D02*
X163772949Y-99140449D01*
X163872948Y-100965450D02*
X167057201Y-100965450D01*
X163772949Y-99140449D02*
X163772949Y-101065449D01*
%TO.N,VBUS*%
X157472949Y-99307949D02*
X157222949Y-99057949D01*
X157049999Y-116603000D02*
X157049999Y-117603000D01*
X157472949Y-100190449D02*
X157472949Y-99307949D01*
X157360449Y-97502949D02*
X157222949Y-97640449D01*
X157360449Y-95140449D02*
X157360449Y-97502949D01*
X157049999Y-117603000D02*
X154465500Y-117603000D01*
X157222949Y-99057949D02*
X157222949Y-97640449D01*
X154465500Y-117603000D02*
X154362500Y-117500000D01*
%TO.N,RESET*%
X192500000Y-54540000D02*
X193449300Y-54540000D01*
X195450000Y-62700000D02*
X195450000Y-60250000D01*
X193449300Y-54540000D02*
X195487500Y-56578200D01*
X195487500Y-56578200D02*
X195487500Y-60200000D01*
%TO.N,Net-(C11-Pad1)*%
X144000000Y-113275000D02*
X144000000Y-115500000D01*
%TO.N,Net-(C12-Pad2)*%
X132500000Y-115500000D02*
X132500000Y-113275000D01*
%TO.N,Net-(J3-Pin_1)*%
X139125000Y-126875000D02*
X140000000Y-126000000D01*
X139125000Y-128150000D02*
X139125000Y-126875000D01*
X140000000Y-126000000D02*
X140000000Y-124375000D01*
%TO.N,Net-(J3-Pin_2)*%
X137875000Y-128150000D02*
X137875000Y-126875000D01*
X137000000Y-126000000D02*
X137000000Y-124375000D01*
X137875000Y-126875000D02*
X137000000Y-126000000D01*
X136875000Y-124500000D02*
X137000000Y-124375000D01*
X134000000Y-124500000D02*
X136875000Y-124500000D01*
%TO.N,IO36*%
X164412500Y-122500000D02*
X164412500Y-124500000D01*
%TO.N,Net-(D1-K)*%
X159322949Y-101115449D02*
X159347949Y-101140449D01*
X162122949Y-101140449D02*
X159347949Y-101140449D01*
X159322949Y-97640449D02*
X159322949Y-101115449D01*
%TO.N,Net-(D2-K)*%
X158950001Y-119397000D02*
X158950001Y-121462499D01*
X158950001Y-121462499D02*
X158912500Y-121500000D01*
%TO.N,Net-(PAM8403-OUT+)*%
X139800001Y-115525000D02*
X140612500Y-115525000D01*
X139500000Y-115825001D02*
X139800001Y-115525000D01*
X140000000Y-122625000D02*
X140000000Y-118500000D01*
X140000000Y-118500000D02*
X139500000Y-118000000D01*
X139500000Y-118000000D02*
X139500000Y-115825001D01*
%TO.N,Net-(PAM8403-OUT-)*%
X137500000Y-115825001D02*
X137199999Y-115525000D01*
X137199999Y-115525000D02*
X136387500Y-115525000D01*
X137000000Y-122625000D02*
X137000000Y-118500000D01*
X137500000Y-118000000D02*
X137500000Y-115825001D01*
X137000000Y-118500000D02*
X137500000Y-118000000D01*
%TO.N,D+*%
X147025000Y-58365000D02*
X146355000Y-57695000D01*
X146009448Y-57695000D02*
X145750000Y-57435552D01*
X145750000Y-57090000D02*
X143885000Y-55225000D01*
X143885000Y-55225000D02*
X135642501Y-55225000D01*
X145750000Y-57435552D02*
X145750000Y-57090000D01*
X146355000Y-57695000D02*
X146009448Y-57695000D01*
X135617501Y-55250000D02*
X134755000Y-55250000D01*
X135642501Y-55225000D02*
X135617501Y-55250000D01*
%TO.N,D-*%
X147025000Y-57095000D02*
X146391397Y-57095000D01*
X135617501Y-54750000D02*
X134755000Y-54750000D01*
X146391397Y-57095000D02*
X144071397Y-54775000D01*
X135642501Y-54775000D02*
X135617501Y-54750000D01*
X144071397Y-54775000D02*
X135642501Y-54775000D01*
%TO.N,Net-(J1-CC1)*%
X138087500Y-57500000D02*
X136837500Y-56250000D01*
X136837500Y-56250000D02*
X134755000Y-56250000D01*
%TO.N,Net-(J1-CC2)*%
X138087500Y-52500000D02*
X137500000Y-52500000D01*
X136750000Y-53250000D02*
X134755000Y-53250000D01*
X137500000Y-52500000D02*
X136750000Y-53250000D01*
%TO.N,Net-(U3-SW)*%
X167759550Y-100315448D02*
X167057201Y-100315448D01*
X167859550Y-100215448D02*
X167759550Y-100315448D01*
X167859550Y-97359550D02*
X167859550Y-100215448D01*
X167140449Y-96640449D02*
X167859550Y-97359550D01*
%TO.N,Net-(Q1A-B1)*%
X154850000Y-59635000D02*
X154985000Y-59500000D01*
X159830000Y-58850000D02*
X158488456Y-58850000D01*
X151975000Y-59635000D02*
X154850000Y-59635000D01*
X158488456Y-58850000D02*
X157838456Y-59500000D01*
X154985000Y-59500000D02*
X157170000Y-59500000D01*
X157838456Y-59500000D02*
X157170000Y-59500000D01*
X154850000Y-59635000D02*
X155066544Y-59635000D01*
%TO.N,Net-(Q1A-E1)*%
X158488456Y-59500000D02*
X157838456Y-60150000D01*
X157838456Y-60150000D02*
X157170000Y-60150000D01*
X151975000Y-60905000D02*
X154950000Y-60905000D01*
X159830000Y-59500000D02*
X158488456Y-59500000D01*
X154950000Y-60905000D02*
X155705000Y-60150000D01*
X155705000Y-60150000D02*
X157170000Y-60150000D01*
%TO.N,Net-(U3-FB)*%
X172322949Y-101552949D02*
X171735450Y-100965450D01*
X175910449Y-101552949D02*
X173410449Y-101552949D01*
X173410449Y-101552949D02*
X172322949Y-101552949D01*
X171735450Y-100965450D02*
X169763697Y-100965450D01*
%TO.N,Net-(U4-ISEN)*%
X158950001Y-116137499D02*
X160587500Y-114500000D01*
%TO.N,TX0*%
X165950700Y-64500000D02*
X174640700Y-55810000D01*
X149500000Y-64000000D02*
X150000000Y-64500000D01*
X147025000Y-60905000D02*
X147999999Y-60905000D01*
X174640700Y-55810000D02*
X175000000Y-55810000D01*
X147999999Y-60905000D02*
X149500000Y-62405001D01*
X149500000Y-62405001D02*
X149500000Y-64000000D01*
X150000000Y-64500000D02*
X165950700Y-64500000D01*
%TO.N,RX0*%
X149899664Y-64965350D02*
X166165350Y-64965350D01*
X149100000Y-63275001D02*
X149100000Y-64165686D01*
X147025000Y-62175000D02*
X147999999Y-62175000D01*
X174050700Y-57080000D02*
X175000000Y-57080000D01*
X149100000Y-64165686D02*
X149899664Y-64965350D01*
X166165350Y-64965350D02*
X174050700Y-57080000D01*
X147999999Y-62175000D02*
X149100000Y-63275001D01*
%TD*%
M02*
