%TF.GenerationSoftware,KiCad,Pcbnew,8.0.7*%
%TF.CreationDate,2025-01-02T12:18:16+01:00*%
%TF.ProjectId,redroid_go,72656472-6f69-4645-9f67-6f2e6b696361,rev?*%
%TF.SameCoordinates,Original*%
%TF.FileFunction,Copper,L1,Top*%
%TF.FilePolarity,Positive*%
%FSLAX46Y46*%
G04 Gerber Fmt 4.6, Leading zero omitted, Abs format (unit mm)*
G04 Created by KiCad (PCBNEW 8.0.7) date 2025-01-02 12:18:16*
%MOMM*%
%LPD*%
G01*
G04 APERTURE LIST*
G04 Aperture macros list*
%AMRoundRect*
0 Rectangle with rounded corners*
0 $1 Rounding radius*
0 $2 $3 $4 $5 $6 $7 $8 $9 X,Y pos of 4 corners*
0 Add a 4 corners polygon primitive as box body*
4,1,4,$2,$3,$4,$5,$6,$7,$8,$9,$2,$3,0*
0 Add four circle primitives for the rounded corners*
1,1,$1+$1,$2,$3*
1,1,$1+$1,$4,$5*
1,1,$1+$1,$6,$7*
1,1,$1+$1,$8,$9*
0 Add four rect primitives between the rounded corners*
20,1,$1+$1,$2,$3,$4,$5,0*
20,1,$1+$1,$4,$5,$6,$7,0*
20,1,$1+$1,$6,$7,$8,$9,0*
20,1,$1+$1,$8,$9,$2,$3,0*%
G04 Aperture macros list end*
%TA.AperFunction,EtchedComponent*%
%ADD10C,0.000000*%
%TD*%
%TA.AperFunction,EtchedComponent*%
%ADD11C,0.254000*%
%TD*%
%TA.AperFunction,SMDPad,CuDef*%
%ADD12RoundRect,0.250000X-0.258809X-0.965928X0.258829X0.965923X0.258809X0.965928X-0.258829X-0.965923X0*%
%TD*%
%TA.AperFunction,SMDPad,CuDef*%
%ADD13RoundRect,0.250000X-0.258829X0.965923X0.258809X-0.965928X0.258829X-0.965923X-0.258809X0.965928X0*%
%TD*%
%TA.AperFunction,SMDPad,CuDef*%
%ADD14RoundRect,0.250000X0.965923X0.258829X-0.965928X-0.258809X-0.965923X-0.258829X0.965928X0.258809X0*%
%TD*%
%TA.AperFunction,SMDPad,CuDef*%
%ADD15RoundRect,0.250000X-0.965928X0.258809X0.965923X-0.258829X0.965928X-0.258809X-0.965923X0.258829X0*%
%TD*%
%TA.AperFunction,SMDPad,CuDef*%
%ADD16C,1.500000*%
%TD*%
%TA.AperFunction,ComponentPad*%
%ADD17C,3.800000*%
%TD*%
%TA.AperFunction,ComponentPad*%
%ADD18R,1.700000X1.700000*%
%TD*%
%TA.AperFunction,ComponentPad*%
%ADD19O,1.700000X1.700000*%
%TD*%
%TA.AperFunction,SMDPad,CuDef*%
%ADD20RoundRect,0.250000X0.965928X-0.258809X-0.965923X0.258829X-0.965928X0.258809X0.965923X-0.258829X0*%
%TD*%
%TA.AperFunction,SMDPad,CuDef*%
%ADD21RoundRect,0.250000X-0.965923X-0.258829X0.965928X0.258809X0.965923X0.258829X-0.965928X-0.258809X0*%
%TD*%
%TA.AperFunction,SMDPad,CuDef*%
%ADD22RoundRect,0.127000X-0.623000X-0.127000X0.623000X-0.127000X0.623000X0.127000X-0.623000X0.127000X0*%
%TD*%
%TA.AperFunction,SMDPad,CuDef*%
%ADD23RoundRect,0.127000X0.623000X0.127000X-0.623000X0.127000X-0.623000X-0.127000X0.623000X-0.127000X0*%
%TD*%
%TA.AperFunction,SMDPad,CuDef*%
%ADD24RoundRect,0.237500X-0.237500X0.250000X-0.237500X-0.250000X0.237500X-0.250000X0.237500X0.250000X0*%
%TD*%
%TA.AperFunction,ComponentPad*%
%ADD25R,1.800000X1.800000*%
%TD*%
%TA.AperFunction,ComponentPad*%
%ADD26C,1.800000*%
%TD*%
%TA.AperFunction,SMDPad,CuDef*%
%ADD27RoundRect,0.250000X0.258809X0.965928X-0.258829X-0.965923X-0.258809X-0.965928X0.258829X0.965923X0*%
%TD*%
%TA.AperFunction,SMDPad,CuDef*%
%ADD28RoundRect,0.250000X0.258829X-0.965923X-0.258809X0.965928X-0.258829X0.965923X0.258809X-0.965928X0*%
%TD*%
%TA.AperFunction,SMDPad,CuDef*%
%ADD29RoundRect,0.237500X-0.250000X-0.237500X0.250000X-0.237500X0.250000X0.237500X-0.250000X0.237500X0*%
%TD*%
%TA.AperFunction,SMDPad,CuDef*%
%ADD30RoundRect,0.162500X-0.617500X-0.162500X0.617500X-0.162500X0.617500X0.162500X-0.617500X0.162500X0*%
%TD*%
%TA.AperFunction,SMDPad,CuDef*%
%ADD31RoundRect,0.237500X0.237500X-0.250000X0.237500X0.250000X-0.237500X0.250000X-0.237500X-0.250000X0*%
%TD*%
%TA.AperFunction,SMDPad,CuDef*%
%ADD32RoundRect,0.237500X0.250000X0.237500X-0.250000X0.237500X-0.250000X-0.237500X0.250000X-0.237500X0*%
%TD*%
%TA.AperFunction,ComponentPad*%
%ADD33O,2.100000X1.000000*%
%TD*%
%TA.AperFunction,ComponentPad*%
%ADD34O,1.800000X1.000000*%
%TD*%
%TA.AperFunction,ViaPad*%
%ADD35C,0.600000*%
%TD*%
%TA.AperFunction,Conductor*%
%ADD36C,0.200000*%
%TD*%
G04 APERTURE END LIST*
D10*
%TA.AperFunction,EtchedComponent*%
%TO.C,SW3*%
G36*
X137576790Y-118056160D02*
G01*
X138707921Y-118193046D01*
X138754203Y-118638249D01*
X138828972Y-119025248D01*
X138937190Y-119404273D01*
X139078027Y-119772411D01*
X139250418Y-120126886D01*
X139495430Y-120535706D01*
X139069933Y-120674267D01*
X138706960Y-120751667D01*
X138337885Y-120790703D01*
X137966752Y-120790946D01*
X137597626Y-120752394D01*
X137234552Y-120675468D01*
X136881508Y-120561013D01*
X136542362Y-120410281D01*
X136220829Y-120224924D01*
X135920433Y-120006975D01*
X135644465Y-119758818D01*
X135395948Y-119483175D01*
X135176622Y-119181714D01*
X134808815Y-118461021D01*
X135404196Y-118282723D01*
X135939161Y-118165246D01*
X136481408Y-118088075D01*
X137027907Y-118051642D01*
X137576790Y-118056160D01*
G37*
%TD.AperFunction*%
%TA.AperFunction,EtchedComponent*%
G36*
X138337885Y-114609297D02*
G01*
X138706960Y-114648333D01*
X139069933Y-114725733D01*
X139495430Y-114864294D01*
X139250418Y-115273114D01*
X139078027Y-115627589D01*
X138937190Y-115995727D01*
X138828972Y-116374752D01*
X138754203Y-116761751D01*
X138707921Y-117206954D01*
X137576790Y-117343840D01*
X137027907Y-117348358D01*
X136481408Y-117311925D01*
X135939161Y-117234754D01*
X135404196Y-117117277D01*
X134808815Y-116938979D01*
X135176622Y-116218286D01*
X135395948Y-115916825D01*
X135644465Y-115641182D01*
X135920433Y-115393025D01*
X136220829Y-115175076D01*
X136542362Y-114989719D01*
X136881508Y-114838987D01*
X137234552Y-114724532D01*
X137597626Y-114647606D01*
X137966752Y-114609054D01*
X138337885Y-114609297D01*
G37*
%TD.AperFunction*%
%TA.AperFunction,EtchedComponent*%
%TO.C,SW1*%
G36*
X146881714Y-107576622D02*
G01*
X147183175Y-107795948D01*
X147458818Y-108044465D01*
X147706975Y-108320433D01*
X147924924Y-108620829D01*
X148110281Y-108942362D01*
X148261013Y-109281508D01*
X148375468Y-109634552D01*
X148452394Y-109997626D01*
X148490946Y-110366752D01*
X148490703Y-110737885D01*
X148451667Y-111106960D01*
X148374267Y-111469933D01*
X148235706Y-111895430D01*
X147826886Y-111650418D01*
X147472411Y-111478027D01*
X147104273Y-111337190D01*
X146725248Y-111228972D01*
X146338249Y-111154203D01*
X145893046Y-111107921D01*
X145756160Y-109976790D01*
X145751642Y-109427907D01*
X145788075Y-108881408D01*
X145865246Y-108339161D01*
X145982723Y-107804196D01*
X146161021Y-107208815D01*
X146881714Y-107576622D01*
G37*
%TD.AperFunction*%
%TA.AperFunction,EtchedComponent*%
G36*
X144817277Y-107804196D02*
G01*
X144934754Y-108339161D01*
X145011925Y-108881408D01*
X145048358Y-109427907D01*
X145043840Y-109976790D01*
X144906954Y-111107921D01*
X144461751Y-111154203D01*
X144074752Y-111228972D01*
X143695727Y-111337190D01*
X143327589Y-111478027D01*
X142973114Y-111650418D01*
X142564294Y-111895430D01*
X142425733Y-111469933D01*
X142348333Y-111106960D01*
X142309297Y-110737885D01*
X142309054Y-110366752D01*
X142347606Y-109997626D01*
X142424532Y-109634552D01*
X142538987Y-109281508D01*
X142689719Y-108942362D01*
X142875076Y-108620829D01*
X143093025Y-108320433D01*
X143341182Y-108044465D01*
X143616825Y-107795948D01*
X143918286Y-107576622D01*
X144638979Y-107208815D01*
X144817277Y-107804196D01*
G37*
%TD.AperFunction*%
%TA.AperFunction,EtchedComponent*%
%TO.C,SW2*%
G36*
X142973114Y-122949582D02*
G01*
X143327589Y-123121973D01*
X143695727Y-123262810D01*
X144074752Y-123371028D01*
X144461751Y-123445797D01*
X144906954Y-123492079D01*
X145043840Y-124623210D01*
X145048358Y-125172093D01*
X145011925Y-125718592D01*
X144934754Y-126260839D01*
X144817277Y-126795804D01*
X144638979Y-127391185D01*
X143918286Y-127023378D01*
X143616825Y-126804052D01*
X143341182Y-126555535D01*
X143093025Y-126279567D01*
X142875076Y-125979171D01*
X142689719Y-125657638D01*
X142538987Y-125318492D01*
X142424532Y-124965448D01*
X142347606Y-124602374D01*
X142309054Y-124233248D01*
X142309297Y-123862115D01*
X142348333Y-123493040D01*
X142425733Y-123130067D01*
X142564294Y-122704570D01*
X142973114Y-122949582D01*
G37*
%TD.AperFunction*%
%TA.AperFunction,EtchedComponent*%
G36*
X148374267Y-123130067D02*
G01*
X148451667Y-123493040D01*
X148490703Y-123862115D01*
X148490946Y-124233248D01*
X148452394Y-124602374D01*
X148375468Y-124965448D01*
X148261013Y-125318492D01*
X148110281Y-125657638D01*
X147924924Y-125979171D01*
X147706975Y-126279567D01*
X147458818Y-126555535D01*
X147183175Y-126804052D01*
X146881714Y-127023378D01*
X146161021Y-127391185D01*
X145982723Y-126795804D01*
X145865246Y-126260839D01*
X145788075Y-125718592D01*
X145751642Y-125172093D01*
X145756160Y-124623210D01*
X145893046Y-123492079D01*
X146338249Y-123445797D01*
X146725248Y-123371028D01*
X147104273Y-123262810D01*
X147472411Y-123121973D01*
X147826886Y-122949582D01*
X148235706Y-122704570D01*
X148374267Y-123130067D01*
G37*
%TD.AperFunction*%
D11*
%TO.C,SW8*%
X189100000Y-99650000D02*
X186200000Y-99650000D01*
X190300000Y-102650000D02*
X185600000Y-102650000D01*
X190500000Y-103150000D02*
X187600000Y-103150000D01*
X190600000Y-100650000D02*
X185400000Y-100650000D01*
X190700000Y-101650000D02*
X185300000Y-101650000D01*
X191100000Y-100150000D02*
X186400000Y-100150000D01*
X191300000Y-102150000D02*
X186100000Y-102150000D01*
X191500000Y-101150000D02*
X186000000Y-101150000D01*
X186850000Y-103400000D02*
G75*
G02*
X186850000Y-99400000I352654J2000000D01*
G01*
X189850000Y-99400000D02*
G75*
G02*
X189850000Y-103400000I-352654J-2000000D01*
G01*
%TO.C,SW9*%
X175500000Y-117250000D02*
X180900000Y-117250000D01*
X176100000Y-119250000D02*
X179900000Y-119250000D01*
X176500000Y-116750000D02*
X181400000Y-116750000D01*
X176600000Y-118750000D02*
X181200000Y-118750000D01*
X177500000Y-119750000D02*
X180500000Y-119750000D01*
X179500000Y-115250000D02*
X176500000Y-115250000D01*
X180400000Y-116250000D02*
X175800000Y-116250000D01*
X180500000Y-118250000D02*
X175600000Y-118250000D01*
X180900000Y-115750000D02*
X177100000Y-115750000D01*
X181500000Y-117750000D02*
X176100000Y-117750000D01*
X178000000Y-120500000D02*
G75*
G02*
X177999998Y-114500000I528980J3000000D01*
G01*
X179000000Y-114500000D02*
G75*
G02*
X179000002Y-120500000I-528980J-3000000D01*
G01*
%TO.C,SW7*%
X176550000Y-99800000D02*
X173650000Y-99800000D01*
X177750000Y-102800000D02*
X173050000Y-102800000D01*
X177950000Y-103300000D02*
X175050000Y-103300000D01*
X178050000Y-100800000D02*
X172850000Y-100800000D01*
X178150000Y-101800000D02*
X172750000Y-101800000D01*
X178550000Y-100300000D02*
X173850000Y-100300000D01*
X178750000Y-102300000D02*
X173550000Y-102300000D01*
X178950000Y-101300000D02*
X173450000Y-101300000D01*
X174300000Y-103550000D02*
G75*
G02*
X174300000Y-99550000I352654J2000000D01*
G01*
X177300000Y-99550000D02*
G75*
G02*
X177300000Y-103550000I-352654J-2000000D01*
G01*
D10*
%TA.AperFunction,EtchedComponent*%
%TO.C,SW4*%
G36*
X154018592Y-118088075D02*
G01*
X154560839Y-118165246D01*
X155095804Y-118282723D01*
X155691185Y-118461021D01*
X155323378Y-119181714D01*
X155104052Y-119483175D01*
X154855535Y-119758818D01*
X154579567Y-120006975D01*
X154279171Y-120224924D01*
X153957638Y-120410281D01*
X153618492Y-120561013D01*
X153265448Y-120675468D01*
X152902374Y-120752394D01*
X152533248Y-120790946D01*
X152162115Y-120790703D01*
X151793040Y-120751667D01*
X151430067Y-120674267D01*
X151004570Y-120535706D01*
X151249582Y-120126886D01*
X151421973Y-119772411D01*
X151562810Y-119404273D01*
X151671028Y-119025248D01*
X151745797Y-118638249D01*
X151792079Y-118193046D01*
X152923210Y-118056160D01*
X153472093Y-118051642D01*
X154018592Y-118088075D01*
G37*
%TD.AperFunction*%
%TA.AperFunction,EtchedComponent*%
G36*
X152902374Y-114647606D02*
G01*
X153265448Y-114724532D01*
X153618492Y-114838987D01*
X153957638Y-114989719D01*
X154279171Y-115175076D01*
X154579567Y-115393025D01*
X154855535Y-115641182D01*
X155104052Y-115916825D01*
X155323378Y-116218286D01*
X155691185Y-116938979D01*
X155095804Y-117117277D01*
X154560839Y-117234754D01*
X154018592Y-117311925D01*
X153472093Y-117348358D01*
X152923210Y-117343840D01*
X151792079Y-117206954D01*
X151745797Y-116761751D01*
X151671028Y-116374752D01*
X151562810Y-115995727D01*
X151421973Y-115627589D01*
X151249582Y-115273114D01*
X151004570Y-114864294D01*
X151430067Y-114725733D01*
X151793040Y-114648333D01*
X152162115Y-114609297D01*
X152533248Y-114609054D01*
X152902374Y-114647606D01*
G37*
%TD.AperFunction*%
D11*
%TO.C,SW5*%
X138250000Y-100250000D02*
X135350000Y-100250000D01*
X139450000Y-103250000D02*
X134750000Y-103250000D01*
X139650000Y-103750000D02*
X136750000Y-103750000D01*
X139750000Y-101250000D02*
X134550000Y-101250000D01*
X139850000Y-102250000D02*
X134450000Y-102250000D01*
X140250000Y-100750000D02*
X135550000Y-100750000D01*
X140450000Y-102750000D02*
X135250000Y-102750000D01*
X140650000Y-101750000D02*
X135150000Y-101750000D01*
X136000000Y-104000000D02*
G75*
G02*
X136000000Y-100000000I352654J2000000D01*
G01*
X139000000Y-100000000D02*
G75*
G02*
X139000000Y-104000000I-352654J-2000000D01*
G01*
%TO.C,SW10*%
X186375000Y-114375000D02*
X191775000Y-114375000D01*
X186975000Y-116375000D02*
X190775000Y-116375000D01*
X187375000Y-113875000D02*
X192275000Y-113875000D01*
X187475000Y-115875000D02*
X192075000Y-115875000D01*
X188375000Y-116875000D02*
X191375000Y-116875000D01*
X190375000Y-112375000D02*
X187375000Y-112375000D01*
X191275000Y-113375000D02*
X186675000Y-113375000D01*
X191375000Y-115375000D02*
X186475000Y-115375000D01*
X191775000Y-112875000D02*
X187975000Y-112875000D01*
X192375000Y-114875000D02*
X186975000Y-114875000D01*
X188875000Y-117625000D02*
G75*
G02*
X188874998Y-111625000I528980J3000000D01*
G01*
X189875000Y-111625000D02*
G75*
G02*
X189875002Y-117625000I-528980J-3000000D01*
G01*
%TO.C,SW6*%
X148825000Y-100075000D02*
X145925000Y-100075000D01*
X150025000Y-103075000D02*
X145325000Y-103075000D01*
X150225000Y-103575000D02*
X147325000Y-103575000D01*
X150325000Y-101075000D02*
X145125000Y-101075000D01*
X150425000Y-102075000D02*
X145025000Y-102075000D01*
X150825000Y-100575000D02*
X146125000Y-100575000D01*
X151025000Y-102575000D02*
X145825000Y-102575000D01*
X151225000Y-101575000D02*
X145725000Y-101575000D01*
X146575000Y-103825000D02*
G75*
G02*
X146575000Y-99825000I352654J2000000D01*
G01*
X149575000Y-99825000D02*
G75*
G02*
X149575000Y-103825000I-352654J-2000000D01*
G01*
%TD*%
D12*
%TO.P,SW3,P$ACTIVE,P$ACTIVE*%
%TO.N,IO34*%
X139000000Y-116000000D03*
D13*
%TO.P,SW3,P$GND,P$GND*%
%TO.N,P3V3*%
X138000000Y-119400000D03*
%TD*%
D14*
%TO.P,SW1,P$GND,P$GND*%
%TO.N,P3V3*%
X143700000Y-110400000D03*
D15*
%TO.P,SW1,P$ACTIVE,P$ACTIVE*%
%TO.N,N/C*%
X147100000Y-111400000D03*
%TD*%
D16*
%TO.P,TP12,1,1*%
%TO.N,GND*%
X163000000Y-111000000D03*
%TD*%
D17*
%TO.P,H4,1,1*%
%TO.N,unconnected-(H4-Pad1)*%
X196050000Y-72500000D03*
%TD*%
%TO.P,H3,1,1*%
%TO.N,unconnected-(H3-Pad1)*%
X131650000Y-130250000D03*
%TD*%
%TO.P,H2,1,1*%
%TO.N,unconnected-(H2-Pad1)*%
X131550000Y-46500000D03*
%TD*%
%TO.P,H1,1,1*%
%TO.N,unconnected-(H1-Pad1)*%
X196000000Y-114500000D03*
%TD*%
D18*
%TO.P,J4,1,Pin_1*%
%TO.N,GND*%
X164000000Y-49500000D03*
D19*
%TO.P,J4,2,Pin_2*%
%TO.N,Net-(J4-Pin_2)*%
X161460000Y-49500000D03*
%TO.P,J4,3,Pin_3*%
%TO.N,Net-(J4-Pin_3)*%
X158920000Y-49500000D03*
%TO.P,J4,4,Pin_4*%
%TO.N,IO15*%
X156380000Y-49500000D03*
%TO.P,J4,5,Pin_5*%
%TO.N,IO4*%
X153840000Y-49500000D03*
%TO.P,J4,6,Pin_6*%
%TO.N,P3V3*%
X151300000Y-49500000D03*
%TO.P,J4,7,Pin_7*%
%TO.N,MISO*%
X148760000Y-49500000D03*
%TO.P,J4,8,Pin_8*%
%TO.N,Net-(J4-Pin_8)*%
X146220000Y-49500000D03*
%TO.P,J4,9,Pin_9*%
%TO.N,unconnected-(J4-Pin_9-Pad9)*%
X143680000Y-49500000D03*
%TO.P,J4,10,Pin_10*%
%TO.N,VBUS*%
X141140000Y-49500000D03*
%TD*%
D20*
%TO.P,SW2,P$ACTIVE,P$ACTIVE*%
%TO.N,Net-(R11-Pad2)*%
X143700000Y-123200000D03*
D21*
%TO.P,SW2,P$GND,P$GND*%
%TO.N,P3V3*%
X147100000Y-124200000D03*
%TD*%
D22*
%TO.P,SW8,P$ACTIVE,P$ACTIVE*%
%TO.N,GND*%
X190475000Y-99275000D03*
D23*
%TO.P,SW8,P$GND,P$GND*%
%TO.N,IO39*%
X186225000Y-103525000D03*
%TD*%
D24*
%TO.P,R15,1*%
%TO.N,IO39*%
X186100000Y-105487500D03*
%TO.P,R15,2*%
%TO.N,P3V3*%
X186100000Y-107312500D03*
%TD*%
D22*
%TO.P,SW9,P$ACTIVE,P$ACTIVE*%
%TO.N,GND*%
X179625000Y-114375000D03*
D23*
%TO.P,SW9,P$GND,P$GND*%
%TO.N,IO33*%
X177375000Y-120625000D03*
%TD*%
D22*
%TO.P,SW7,P$ACTIVE,P$ACTIVE*%
%TO.N,GND*%
X177925000Y-99425000D03*
D23*
%TO.P,SW7,P$GND,P$GND*%
%TO.N,IO27*%
X173675000Y-103675000D03*
%TD*%
D16*
%TO.P,TP9,1,1*%
%TO.N,IO33*%
X173500000Y-118500000D03*
%TD*%
D25*
%TO.P,D3,1,K*%
%TO.N,GND*%
X163000000Y-106270000D03*
D26*
%TO.P,D3,2,A*%
%TO.N,Net-(D3-A)*%
X163000000Y-103730000D03*
%TD*%
D16*
%TO.P,TP8,1,1*%
%TO.N,IO39*%
X182550000Y-101550000D03*
%TD*%
D27*
%TO.P,SW4,P$ACTIVE,P$ACTIVE*%
%TO.N,Net-(R12-Pad2)*%
X151500000Y-119400000D03*
D28*
%TO.P,SW4,P$GND,P$GND*%
%TO.N,P3V3*%
X152500000Y-116000000D03*
%TD*%
D22*
%TO.P,SW5,P$ACTIVE,P$ACTIVE*%
%TO.N,GND*%
X139625000Y-99875000D03*
D23*
%TO.P,SW5,P$GND,P$GND*%
%TO.N,IO13*%
X135375000Y-104125000D03*
%TD*%
D29*
%TO.P,R13,1*%
%TO.N,GND*%
X137587500Y-110500000D03*
%TO.P,R13,2*%
%TO.N,IO35*%
X139412500Y-110500000D03*
%TD*%
D22*
%TO.P,SW10,P$ACTIVE,P$ACTIVE*%
%TO.N,GND*%
X190500000Y-111500000D03*
D23*
%TO.P,SW10,P$GND,P$GND*%
%TO.N,IO32*%
X188250000Y-117750000D03*
%TD*%
D16*
%TO.P,TP5,1,1*%
%TO.N,IO35*%
X140000000Y-107500000D03*
%TD*%
%TO.P,TP6,1,1*%
%TO.N,IO34*%
X139500000Y-125500000D03*
%TD*%
D22*
%TO.P,SW6,P$ACTIVE,P$ACTIVE*%
%TO.N,GND*%
X150200000Y-99700000D03*
D23*
%TO.P,SW6,P$GND,P$GND*%
%TO.N,IO0*%
X145950000Y-103950000D03*
%TD*%
D30*
%TO.P,U9,1,~{OE}*%
%TO.N,MOSI*%
X148150000Y-53550000D03*
%TO.P,U9,2,A*%
%TO.N,P3V3*%
X148150000Y-54500000D03*
%TO.P,U9,3,GND*%
%TO.N,GND*%
X148150000Y-55450000D03*
%TO.P,U9,4,Y*%
%TO.N,Net-(J4-Pin_8)*%
X150850000Y-55450000D03*
%TO.P,U9,5,VCC*%
%TO.N,P3V3*%
X150850000Y-53550000D03*
%TD*%
D29*
%TO.P,R11,1*%
%TO.N,IO35*%
X151675000Y-111412500D03*
%TO.P,R11,2*%
%TO.N,Net-(R11-Pad2)*%
X153500000Y-111412500D03*
%TD*%
D31*
%TO.P,R12,1*%
%TO.N,IO34*%
X151500000Y-126912500D03*
%TO.P,R12,2*%
%TO.N,Net-(R12-Pad2)*%
X151500000Y-125087500D03*
%TD*%
D25*
%TO.P,D2,1,K*%
%TO.N,Net-(D2-K)*%
X131500000Y-65040000D03*
D26*
%TO.P,D2,2,A*%
%TO.N,Net-(D2-A)*%
X131500000Y-62500000D03*
%TD*%
D24*
%TO.P,R16,1*%
%TO.N,IO0*%
X150000000Y-105675000D03*
%TO.P,R16,2*%
%TO.N,P3V3*%
X150000000Y-107500000D03*
%TD*%
D29*
%TO.P,R14,1*%
%TO.N,GND*%
X136175000Y-123500000D03*
%TO.P,R14,2*%
%TO.N,IO34*%
X138000000Y-123500000D03*
%TD*%
D16*
%TO.P,TP7,1,1*%
%TO.N,IO27*%
X170350000Y-101750000D03*
%TD*%
%TO.P,TP10,1,1*%
%TO.N,IO32*%
X184000000Y-115500000D03*
%TD*%
D30*
%TO.P,U8,1,~{OE}*%
%TO.N,IO12*%
X154800000Y-53500000D03*
%TO.P,U8,2,A*%
%TO.N,P3V3*%
X154800000Y-54450000D03*
%TO.P,U8,3,GND*%
%TO.N,GND*%
X154800000Y-55400000D03*
%TO.P,U8,4,Y*%
%TO.N,Net-(J4-Pin_3)*%
X157500000Y-55400000D03*
%TO.P,U8,5,VCC*%
%TO.N,P3V3*%
X157500000Y-53500000D03*
%TD*%
%TO.P,U7,1,~{OE}*%
%TO.N,SCK*%
X161300000Y-53500000D03*
%TO.P,U7,2,A*%
%TO.N,P3V3*%
X161300000Y-54450000D03*
%TO.P,U7,3,GND*%
%TO.N,GND*%
X161300000Y-55400000D03*
%TO.P,U7,4,Y*%
%TO.N,Net-(J4-Pin_2)*%
X164000000Y-55400000D03*
%TO.P,U7,5,VCC*%
%TO.N,P3V3*%
X164000000Y-53500000D03*
%TD*%
D32*
%TO.P,R18,1*%
%TO.N,Net-(D3-A)*%
X157912500Y-103750000D03*
%TO.P,R18,2*%
%TO.N,IO2*%
X156087500Y-103750000D03*
%TD*%
D16*
%TO.P,TP3,1,1*%
%TO.N,IO13*%
X132150000Y-102100000D03*
%TD*%
%TO.P,TP4,1,1*%
%TO.N,IO0*%
X142650000Y-101950000D03*
%TD*%
D33*
%TO.P,J1,SH1,SHELL_GND*%
%TO.N,GND*%
X134180000Y-59320000D03*
%TO.P,J1,SH2,SHELL_GND__1*%
%TO.N,unconnected-(J1-SHELL_GND__1-PadSH2)*%
X134180000Y-50680000D03*
D34*
%TO.P,J1,SH3,SHELL_GND__2*%
%TO.N,unconnected-(J1-SHELL_GND__2-PadSH3)*%
X130000000Y-59320000D03*
%TO.P,J1,SH4,SHELL_GND__3*%
%TO.N,unconnected-(J1-SHELL_GND__3-PadSH4)*%
X130000000Y-50680000D03*
%TD*%
D35*
%TO.N,IO33*%
X191000000Y-62000000D03*
%TO.N,IO32*%
X190600000Y-61050000D03*
%TO.N,D-*%
X137500000Y-55825000D03*
X137500000Y-54625000D03*
%TO.N,RESET*%
X164250000Y-60250000D03*
X171500000Y-67500000D03*
%TO.N,IO34*%
X194000000Y-58500000D03*
X186500000Y-80500000D03*
X180600000Y-80500000D03*
%TO.N,IO35*%
X190138527Y-64100000D03*
X186500000Y-79500000D03*
X180600000Y-79500000D03*
%TO.N,IO13*%
X179000000Y-89500000D03*
X187500000Y-71000000D03*
X183150000Y-89500000D03*
X171000000Y-89500000D03*
X163500000Y-89500000D03*
X192500000Y-71050000D03*
%TO.N,IO0*%
X176400000Y-68500000D03*
%TO.N,P3V3*%
X179500000Y-98500000D03*
%TO.N,IO39*%
X191000000Y-57500000D03*
%TO.N,IO27*%
X187500000Y-66000000D03*
%TO.N,IO12*%
X184000000Y-68500000D03*
%TO.N,SCK*%
X173500000Y-62000000D03*
%TO.N,MISO*%
X155500000Y-58900000D03*
X155134650Y-65565350D03*
%TO.N,IO0*%
X166000000Y-60000000D03*
X171500000Y-65500000D03*
%TO.N,Net-(J4-Pin_3)*%
X159000000Y-52500000D03*
%TO.N,VBUS*%
X136500000Y-51000000D03*
X136000000Y-57870000D03*
%TO.N,Net-(J4-Pin_8)*%
X152500000Y-53000000D03*
%TO.N,Net-(J4-Pin_3)*%
X159000000Y-55500000D03*
%TO.N,Net-(D2-K)*%
X153000000Y-97500000D03*
X142500000Y-92500000D03*
X153000000Y-106000000D03*
X159000000Y-106000000D03*
%TO.N,VBUS*%
X142500000Y-91000000D03*
X153000000Y-95000000D03*
%TO.N,IO26*%
X179000000Y-76000000D03*
X179000000Y-78000000D03*
X146500000Y-90500000D03*
X154000000Y-90500000D03*
%TO.N,IO25*%
X135000000Y-109500000D03*
X140500000Y-109500000D03*
%TO.N,P3V3*%
X180000000Y-77600000D03*
X180000000Y-75000000D03*
X151500000Y-93500000D03*
X149000000Y-93500000D03*
%TO.N,SCK*%
X150000000Y-70500000D03*
X158041421Y-70541421D03*
%TO.N,MOSI*%
X151424265Y-66924265D03*
X155000000Y-67000000D03*
%TO.N,CS1*%
X154000000Y-65565350D03*
X155000000Y-63900000D03*
%TO.N,Net-(Q3A-C1)*%
X166000000Y-79500000D03*
X166000000Y-73500000D03*
%TO.N,P3V3*%
X162000000Y-74500000D03*
X162000000Y-71500000D03*
%TO.N,MISO*%
X173000000Y-61000000D03*
X171400000Y-61000000D03*
%TO.N,MOSI*%
X163500000Y-63000000D03*
X163500000Y-66199997D03*
%TO.N,CS0*%
X168500000Y-67000000D03*
X163500000Y-67000000D03*
%TD*%
D36*
%TO.N,IO35*%
X139107930Y-112195430D02*
X140500000Y-112195430D01*
X139412500Y-110500000D02*
X139412500Y-111107930D01*
X140500000Y-112195430D02*
X150892070Y-112195430D01*
X139412500Y-111107930D02*
X140500000Y-112195430D01*
%TO.N,Net-(R11-Pad2)*%
X153500000Y-111412500D02*
X143700000Y-121212500D01*
X143700000Y-121212500D02*
X143700000Y-122404570D01*
%TO.N,IO34*%
X139500000Y-125500000D02*
X139795430Y-125204570D01*
X139795430Y-125204570D02*
X139795430Y-116000000D01*
%TO.N,IO33*%
X185500000Y-77000000D02*
X185500000Y-80934314D01*
X185500000Y-80934314D02*
X193000000Y-88434314D01*
X193000000Y-88434314D02*
X193000000Y-115894494D01*
X193000000Y-115894494D02*
X187894494Y-121000000D01*
X187894494Y-121000000D02*
X177556193Y-121000000D01*
X177556193Y-121000000D02*
X177317642Y-120761449D01*
%TO.N,IO35*%
X186500000Y-79500000D02*
X190000000Y-76000000D01*
X190000000Y-76000000D02*
X190000000Y-64238527D01*
X190000000Y-64238527D02*
X190138527Y-64100000D01*
%TO.N,IO34*%
X186500000Y-80500000D02*
X187000000Y-80500000D01*
X187000000Y-80500000D02*
X193850000Y-73650000D01*
X193850000Y-73650000D02*
X193850000Y-58650000D01*
X193850000Y-58650000D02*
X194000000Y-58500000D01*
%TO.N,IO32*%
X190600000Y-61000000D02*
X189000000Y-62600000D01*
X189000000Y-62600000D02*
X189000000Y-70500000D01*
X189000000Y-70500000D02*
X184500000Y-75000000D01*
X184500000Y-75000000D02*
X184500000Y-80500000D01*
X184000000Y-114439340D02*
X184000000Y-115500000D01*
X184500000Y-80500000D02*
X191963533Y-87963533D01*
X191963533Y-87963533D02*
X191963533Y-106475807D01*
X191963533Y-106475807D02*
X184000000Y-114439340D01*
%TO.N,IO33*%
X189400000Y-63600000D02*
X189400000Y-73100000D01*
X191000000Y-62000000D02*
X189400000Y-63600000D01*
X189400000Y-73100000D02*
X185500000Y-77000000D01*
%TO.N,IO39*%
X191000000Y-57500000D02*
X188500000Y-60000000D01*
X188500000Y-60000000D02*
X188500000Y-66000000D01*
X188500000Y-66000000D02*
X182550000Y-71950000D01*
X182550000Y-71950000D02*
X182550000Y-101550000D01*
%TO.N,IO13*%
X187500000Y-71000000D02*
X187000000Y-71000000D01*
X187000000Y-71000000D02*
X183500000Y-74500000D01*
X183500000Y-74500000D02*
X183500000Y-89150000D01*
X183500000Y-89150000D02*
X183150000Y-89500000D01*
%TO.N,IO27*%
X187500000Y-66000000D02*
X181500000Y-72000000D01*
X181500000Y-72000000D02*
X181500000Y-90600000D01*
X181500000Y-90600000D02*
X170350000Y-101750000D01*
%TO.N,IO35*%
X140000000Y-107500000D02*
X140750000Y-106750000D01*
X140750000Y-106750000D02*
X147012500Y-106750000D01*
X147012500Y-106750000D02*
X151675000Y-111412500D01*
X138412500Y-111500000D02*
X139107930Y-112195430D01*
X150892070Y-112195430D02*
X151675000Y-111412500D01*
%TO.N,IO34*%
X139500000Y-125500000D02*
X141691185Y-127691185D01*
X141691185Y-127691185D02*
X150721315Y-127691185D01*
X150721315Y-127691185D02*
X151500000Y-126912500D01*
%TO.N,Net-(R12-Pad2)*%
X151500000Y-125087500D02*
X150288464Y-123875964D01*
X150288464Y-123875964D02*
X150288464Y-119816106D01*
X150288464Y-119816106D02*
X150704570Y-119400000D01*
%TO.N,IO34*%
X151500000Y-124000000D02*
X151662500Y-124000000D01*
X151500000Y-124000000D02*
X151666722Y-124000000D01*
X151175000Y-124000000D02*
X151500000Y-124000000D01*
X151666722Y-124000000D02*
X152275000Y-124608278D01*
X152275000Y-124608278D02*
X152275000Y-126137500D01*
X152275000Y-126137500D02*
X151500000Y-126912500D01*
X169300000Y-90351471D02*
X179151471Y-80500000D01*
X151662500Y-124000000D02*
X169300000Y-106362500D01*
X169300000Y-106362500D02*
X169300000Y-90351471D01*
X179151471Y-80500000D02*
X179500000Y-80500000D01*
%TO.N,D-*%
X137500000Y-55825000D02*
X137500000Y-54625000D01*
%TO.N,RESET*%
X164250000Y-60250000D02*
X171500000Y-67500000D01*
%TO.N,IO34*%
X179151471Y-80500000D02*
X180600000Y-80500000D01*
X151175000Y-124000000D02*
X150688464Y-123513464D01*
%TO.N,IO35*%
X178575736Y-79575736D02*
X178651471Y-79500000D01*
X151675000Y-106476471D02*
X178575736Y-79575736D01*
X178575736Y-79575736D02*
X178651472Y-79500000D01*
X178651472Y-79500000D02*
X180600000Y-79500000D01*
X151675000Y-111412500D02*
X151675000Y-106476471D01*
%TO.N,IO13*%
X171000000Y-89500000D02*
X179000000Y-89500000D01*
X132150000Y-100501471D02*
X143151471Y-89500000D01*
X132150000Y-102100000D02*
X132150000Y-100501471D01*
X143151471Y-89500000D02*
X163500000Y-89500000D01*
X132150000Y-102100000D02*
X134285133Y-104235133D01*
X134285133Y-104235133D02*
X135323084Y-104235133D01*
%TO.N,IO0*%
X178000000Y-70100000D02*
X176400000Y-68500000D01*
X178000000Y-71000000D02*
X178000000Y-70100000D01*
X178000000Y-77000000D02*
X178000000Y-71000000D01*
X144983014Y-104283014D02*
X150716986Y-104283014D01*
X150716986Y-104283014D02*
X178000000Y-77000000D01*
X142650000Y-101950000D02*
X144983014Y-104283014D01*
X150000000Y-105675000D02*
X147512951Y-105675000D01*
X147512951Y-105675000D02*
X145898084Y-104060133D01*
X142650000Y-101950000D02*
X144760133Y-104060133D01*
X144760133Y-104060133D02*
X145898084Y-104060133D01*
%TO.N,P3V3*%
X179500000Y-100640221D02*
X179500000Y-98500000D01*
X186100000Y-107240221D02*
X179500000Y-100640221D01*
X186100000Y-107312500D02*
X186100000Y-107240221D01*
%TO.N,IO12*%
X184000000Y-68500000D02*
X181500000Y-66000000D01*
X181500000Y-66000000D02*
X181500000Y-60500000D01*
X181500000Y-60500000D02*
X168950000Y-47950000D01*
X168950000Y-47950000D02*
X156050000Y-47950000D01*
X156050000Y-47950000D02*
X155125000Y-48875000D01*
X155125000Y-48875000D02*
X155125000Y-53175000D01*
X155125000Y-53175000D02*
X154800000Y-53500000D01*
%TO.N,*%
X137188464Y-119421294D02*
X137188464Y-119400000D01*
X137152122Y-119421294D02*
X137188464Y-119421294D01*
%TO.N,IO34*%
X138000000Y-123500000D02*
X138000000Y-124000000D01*
X138000000Y-124000000D02*
X139500000Y-125500000D01*
%TO.N,IO27*%
X170350000Y-101750000D02*
X172385133Y-103785133D01*
X172385133Y-103785133D02*
X173623084Y-103785133D01*
%TO.N,IO39*%
X182550000Y-101550000D02*
X184635133Y-103635133D01*
X184635133Y-103635133D02*
X186173084Y-103635133D01*
X186100000Y-105487500D02*
X186100000Y-103708217D01*
X186100000Y-103708217D02*
X186173084Y-103635133D01*
%TO.N,IO33*%
X173500000Y-118500000D02*
X175761449Y-120761449D01*
X175761449Y-120761449D02*
X177317642Y-120761449D01*
%TO.N,IO32*%
X184000000Y-115500000D02*
X186386449Y-117886449D01*
X186386449Y-117886449D02*
X188192642Y-117886449D01*
%TO.N,MOSI*%
X148150000Y-53550000D02*
X147370001Y-53550000D01*
X147370001Y-53550000D02*
X147070000Y-53850001D01*
X147070000Y-53850001D02*
X147070000Y-62570000D01*
X147070000Y-62570000D02*
X151424265Y-66924265D01*
%TO.N,SCK*%
X173600000Y-61900000D02*
X173500000Y-62000000D01*
X173600000Y-56800000D02*
X173600000Y-61900000D01*
X165150000Y-48350000D02*
X173600000Y-56800000D01*
X160983654Y-48350000D02*
X165150000Y-48350000D01*
X160310000Y-49023654D02*
X160983654Y-48350000D01*
X160310000Y-52510000D02*
X160310000Y-49023654D01*
X161300000Y-53500000D02*
X160310000Y-52510000D01*
X173500000Y-62000000D02*
X173000000Y-62000000D01*
%TO.N,MISO*%
X155500000Y-58900000D02*
X155600000Y-59000000D01*
X155600000Y-59000000D02*
X155600000Y-65100000D01*
X155600000Y-65100000D02*
X155134650Y-65565350D01*
%TO.N,Net-(J4-Pin_8)*%
X152500000Y-53000000D02*
X152500000Y-53800000D01*
X152500000Y-53800000D02*
X150850000Y-55450000D01*
%TO.N,IO0*%
X171500000Y-65500000D02*
X166000000Y-60000000D01*
%TO.N,Net-(J4-Pin_3)*%
X159000000Y-52500000D02*
X159000000Y-51500000D01*
X159000000Y-51500000D02*
X158920000Y-51420000D01*
X158920000Y-51420000D02*
X158920000Y-49500000D01*
%TO.N,VBUS*%
X136500000Y-51000000D02*
X136500000Y-57370000D01*
X136500000Y-57370000D02*
X136000000Y-57870000D01*
%TO.N,Net-(J4-Pin_3)*%
X158900000Y-55400000D02*
X159000000Y-55500000D01*
X157500000Y-55400000D02*
X158900000Y-55400000D01*
%TO.N,P3V3*%
X157500000Y-53500000D02*
X158450000Y-54450000D01*
X158450000Y-54450000D02*
X161300000Y-54450000D01*
X150850000Y-53550000D02*
X151300000Y-53100000D01*
X151300000Y-53100000D02*
X151300000Y-49500000D01*
X150850000Y-53550000D02*
X149900000Y-54500000D01*
X149900000Y-54500000D02*
X148150000Y-54500000D01*
X157500000Y-53500000D02*
X156550000Y-54450000D01*
X156550000Y-54450000D02*
X154800000Y-54450000D01*
%TO.N,Net-(J4-Pin_2)*%
X164000000Y-55400000D02*
X165080000Y-54320000D01*
X165080000Y-54320000D02*
X165080000Y-53120000D01*
X165080000Y-53120000D02*
X161460000Y-49500000D01*
%TO.N,P3V3*%
X164000000Y-53500000D02*
X163050000Y-54450000D01*
X163050000Y-54450000D02*
X161300000Y-54450000D01*
%TO.N,Net-(D2-K)*%
X147500000Y-97500000D02*
X153000000Y-97500000D01*
X142500000Y-92500000D02*
X147500000Y-97500000D01*
X153000000Y-106000000D02*
X159000000Y-106000000D01*
%TO.N,VBUS*%
X146500000Y-95000000D02*
X142500000Y-91000000D01*
X153000000Y-95000000D02*
X146500000Y-95000000D01*
%TO.N,IO26*%
X146500000Y-90500000D02*
X154000000Y-90500000D01*
X179000000Y-78000000D02*
X179000000Y-76000000D01*
%TO.N,IO25*%
X140500000Y-109500000D02*
X135000000Y-109500000D01*
%TO.N,P3V3*%
X180000000Y-77600000D02*
X180000000Y-75000000D01*
X149000000Y-93500000D02*
X151500000Y-93500000D01*
%TO.N,SCK*%
X150000000Y-70500000D02*
X158000000Y-70500000D01*
X158000000Y-70500000D02*
X158041421Y-70541421D01*
%TO.N,MOSI*%
X151424265Y-66924265D02*
X154924265Y-66924265D01*
X154924265Y-66924265D02*
X155000000Y-67000000D01*
%TO.N,CS1*%
X154000000Y-65565350D02*
X154000000Y-64900000D01*
X154000000Y-64900000D02*
X155000000Y-63900000D01*
%TO.N,Net-(Q3A-C1)*%
X166000000Y-73500000D02*
X166000000Y-79500000D01*
%TO.N,P3V3*%
X162000000Y-71500000D02*
X162000000Y-74500000D01*
%TO.N,MISO*%
X171400000Y-61000000D02*
X173000000Y-61000000D01*
%TO.N,MOSI*%
X163500000Y-66199997D02*
X163500000Y-63000000D01*
%TO.N,CS0*%
X163500000Y-67000000D02*
X168500000Y-67000000D01*
%TD*%
M02*
