%TF.GenerationSoftware,KiCad,Pcbnew,8.0.7*%
%TF.CreationDate,2025-01-02T12:18:17+01:00*%
%TF.ProjectId,redroid_go,72656472-6f69-4645-9f67-6f2e6b696361,rev?*%
%TF.SameCoordinates,Original*%
%TF.FileFunction,Soldermask,Bot*%
%TF.FilePolarity,Negative*%
%FSLAX46Y46*%
G04 Gerber Fmt 4.6, Leading zero omitted, Abs format (unit mm)*
G04 Created by KiCad (PCBNEW 8.0.7) date 2025-01-02 12:18:17*
%MOMM*%
%LPD*%
G01*
G04 APERTURE LIST*
G04 Aperture macros list*
%AMRoundRect*
0 Rectangle with rounded corners*
0 $1 Rounding radius*
0 $2 $3 $4 $5 $6 $7 $8 $9 X,Y pos of 4 corners*
0 Add a 4 corners polygon primitive as box body*
4,1,4,$2,$3,$4,$5,$6,$7,$8,$9,$2,$3,0*
0 Add four circle primitives for the rounded corners*
1,1,$1+$1,$2,$3*
1,1,$1+$1,$4,$5*
1,1,$1+$1,$6,$7*
1,1,$1+$1,$8,$9*
0 Add four rect primitives between the rounded corners*
20,1,$1+$1,$2,$3,$4,$5,0*
20,1,$1+$1,$4,$5,$6,$7,0*
20,1,$1+$1,$6,$7,$8,$9,0*
20,1,$1+$1,$8,$9,$2,$3,0*%
%AMFreePoly0*
4,1,11,0.760000,0.825000,0.380000,0.510000,0.380000,-0.510000,0.760000,-0.825000,0.760000,-1.525000,-0.125000,-1.525000,-0.380000,-1.270000,-0.380000,1.270000,-0.125000,1.525000,0.760000,1.525000,0.760000,0.825000,0.760000,0.825000,$1*%
G04 Aperture macros list end*
%ADD10C,0.010000*%
%ADD11R,1.004699X0.355600*%
%ADD12R,1.498600X0.889000*%
%ADD13R,0.889000X0.889000*%
%ADD14R,1.000000X0.300000*%
%ADD15R,1.300000X2.000000*%
%ADD16C,1.500000*%
%ADD17C,3.800000*%
%ADD18R,1.700000X1.700000*%
%ADD19O,1.700000X1.700000*%
%ADD20R,1.800000X1.800000*%
%ADD21C,1.800000*%
%ADD22RoundRect,0.237500X-0.300000X-0.237500X0.300000X-0.237500X0.300000X0.237500X-0.300000X0.237500X0*%
%ADD23RoundRect,0.237500X0.250000X0.237500X-0.250000X0.237500X-0.250000X-0.237500X0.250000X-0.237500X0*%
%ADD24RoundRect,0.237500X0.237500X-0.300000X0.237500X0.300000X-0.237500X0.300000X-0.237500X-0.300000X0*%
%ADD25RoundRect,0.237500X0.237500X-0.287500X0.237500X0.287500X-0.237500X0.287500X-0.237500X-0.287500X0*%
%ADD26RoundRect,0.112500X0.187500X0.112500X-0.187500X0.112500X-0.187500X-0.112500X0.187500X-0.112500X0*%
%ADD27R,0.508000X0.914400*%
%ADD28RoundRect,0.237500X-0.237500X0.300000X-0.237500X-0.300000X0.237500X-0.300000X0.237500X0.300000X0*%
%ADD29RoundRect,0.237500X-0.250000X-0.237500X0.250000X-0.237500X0.250000X0.237500X-0.250000X0.237500X0*%
%ADD30RoundRect,0.150000X0.150000X0.700000X-0.150000X0.700000X-0.150000X-0.700000X0.150000X-0.700000X0*%
%ADD31RoundRect,0.250000X0.250000X1.100000X-0.250000X1.100000X-0.250000X-1.100000X0.250000X-1.100000X0*%
%ADD32C,0.650000*%
%ADD33O,2.304000X1.204000*%
%ADD34O,2.004000X1.204000*%
%ADD35C,0.900000*%
%ADD36RoundRect,0.225000X-0.400000X0.225000X-0.400000X-0.225000X0.400000X-0.225000X0.400000X0.225000X0*%
%ADD37RoundRect,0.250000X-0.250000X0.300000X-0.250000X-0.300000X0.250000X-0.300000X0.250000X0.300000X0*%
%ADD38RoundRect,0.100000X0.712500X0.100000X-0.712500X0.100000X-0.712500X-0.100000X0.712500X-0.100000X0*%
%ADD39FreePoly0,0.000000*%
%ADD40FreePoly0,180.000000*%
%ADD41RoundRect,0.150000X-0.825000X-0.150000X0.825000X-0.150000X0.825000X0.150000X-0.825000X0.150000X0*%
%ADD42C,1.000000*%
%ADD43RoundRect,0.175000X0.625000X-0.175000X0.625000X0.175000X-0.625000X0.175000X-0.625000X-0.175000X0*%
%ADD44RoundRect,0.300000X0.450000X-0.300000X0.450000X0.300000X-0.450000X0.300000X-0.450000X-0.300000X0*%
%ADD45RoundRect,0.375000X0.375000X-0.425000X0.375000X0.425000X-0.375000X0.425000X-0.375000X-0.425000X0*%
%ADD46RoundRect,0.300000X0.800000X-0.300000X0.800000X0.300000X-0.800000X0.300000X-0.800000X-0.300000X0*%
%ADD47RoundRect,0.100000X-0.650000X-0.100000X0.650000X-0.100000X0.650000X0.100000X-0.650000X0.100000X0*%
%ADD48RoundRect,0.237500X0.300000X0.237500X-0.300000X0.237500X-0.300000X-0.237500X0.300000X-0.237500X0*%
%ADD49R,1.500000X1.000000*%
%ADD50RoundRect,0.218750X-0.218750X-0.256250X0.218750X-0.256250X0.218750X0.256250X-0.218750X0.256250X0*%
%ADD51RoundRect,0.150000X-0.587500X-0.150000X0.587500X-0.150000X0.587500X0.150000X-0.587500X0.150000X0*%
%ADD52RoundRect,0.237500X-0.237500X0.250000X-0.237500X-0.250000X0.237500X-0.250000X0.237500X0.250000X0*%
%ADD53RoundRect,0.237500X0.237500X-0.250000X0.237500X0.250000X-0.237500X0.250000X-0.237500X-0.250000X0*%
%ADD54RoundRect,0.100000X0.100000X-0.650000X0.100000X0.650000X-0.100000X0.650000X-0.100000X-0.650000X0*%
G04 APERTURE END LIST*
D10*
%TO.C,J1*%
X135380000Y-52150000D02*
X134130000Y-52150000D01*
X134130000Y-51450000D01*
X135380000Y-51450000D01*
X135380000Y-52150000D01*
G36*
X135380000Y-52150000D02*
G01*
X134130000Y-52150000D01*
X134130000Y-51450000D01*
X135380000Y-51450000D01*
X135380000Y-52150000D01*
G37*
X135380000Y-52950000D02*
X134130000Y-52950000D01*
X134130000Y-52250000D01*
X135380000Y-52250000D01*
X135380000Y-52950000D01*
G36*
X135380000Y-52950000D02*
G01*
X134130000Y-52950000D01*
X134130000Y-52250000D01*
X135380000Y-52250000D01*
X135380000Y-52950000D01*
G37*
X135380000Y-53450000D02*
X134130000Y-53450000D01*
X134130000Y-53050000D01*
X135380000Y-53050000D01*
X135380000Y-53450000D01*
G36*
X135380000Y-53450000D02*
G01*
X134130000Y-53450000D01*
X134130000Y-53050000D01*
X135380000Y-53050000D01*
X135380000Y-53450000D01*
G37*
X135380000Y-53950000D02*
X134130000Y-53950000D01*
X134130000Y-53550000D01*
X135380000Y-53550000D01*
X135380000Y-53950000D01*
G36*
X135380000Y-53950000D02*
G01*
X134130000Y-53950000D01*
X134130000Y-53550000D01*
X135380000Y-53550000D01*
X135380000Y-53950000D01*
G37*
X135380000Y-54450000D02*
X134130000Y-54450000D01*
X134130000Y-54050000D01*
X135380000Y-54050000D01*
X135380000Y-54450000D01*
G36*
X135380000Y-54450000D02*
G01*
X134130000Y-54450000D01*
X134130000Y-54050000D01*
X135380000Y-54050000D01*
X135380000Y-54450000D01*
G37*
X135380000Y-54950000D02*
X134130000Y-54950000D01*
X134130000Y-54550000D01*
X135380000Y-54550000D01*
X135380000Y-54950000D01*
G36*
X135380000Y-54950000D02*
G01*
X134130000Y-54950000D01*
X134130000Y-54550000D01*
X135380000Y-54550000D01*
X135380000Y-54950000D01*
G37*
X135380000Y-55450000D02*
X134130000Y-55450000D01*
X134130000Y-55050000D01*
X135380000Y-55050000D01*
X135380000Y-55450000D01*
G36*
X135380000Y-55450000D02*
G01*
X134130000Y-55450000D01*
X134130000Y-55050000D01*
X135380000Y-55050000D01*
X135380000Y-55450000D01*
G37*
X135380000Y-55950000D02*
X134130000Y-55950000D01*
X134130000Y-55550000D01*
X135380000Y-55550000D01*
X135380000Y-55950000D01*
G36*
X135380000Y-55950000D02*
G01*
X134130000Y-55950000D01*
X134130000Y-55550000D01*
X135380000Y-55550000D01*
X135380000Y-55950000D01*
G37*
X135380000Y-56450000D02*
X134130000Y-56450000D01*
X134130000Y-56050000D01*
X135380000Y-56050000D01*
X135380000Y-56450000D01*
G36*
X135380000Y-56450000D02*
G01*
X134130000Y-56450000D01*
X134130000Y-56050000D01*
X135380000Y-56050000D01*
X135380000Y-56450000D01*
G37*
X135380000Y-56950000D02*
X134130000Y-56950000D01*
X134130000Y-56550000D01*
X135380000Y-56550000D01*
X135380000Y-56950000D01*
G36*
X135380000Y-56950000D02*
G01*
X134130000Y-56950000D01*
X134130000Y-56550000D01*
X135380000Y-56550000D01*
X135380000Y-56950000D01*
G37*
X135380000Y-57750000D02*
X134130000Y-57750000D01*
X134130000Y-57050000D01*
X135380000Y-57050000D01*
X135380000Y-57750000D01*
G36*
X135380000Y-57750000D02*
G01*
X134130000Y-57750000D01*
X134130000Y-57050000D01*
X135380000Y-57050000D01*
X135380000Y-57750000D01*
G37*
X135380000Y-58550000D02*
X134130000Y-58550000D01*
X134130000Y-57850000D01*
X135380000Y-57850000D01*
X135380000Y-58550000D01*
G36*
X135380000Y-58550000D02*
G01*
X134130000Y-58550000D01*
X134130000Y-57850000D01*
X135380000Y-57850000D01*
X135380000Y-58550000D01*
G37*
%TD*%
D11*
%TO.C,U3*%
X167057201Y-101615448D03*
X167057201Y-100965450D03*
X167057201Y-100315448D03*
X167057201Y-99665450D03*
X169763697Y-99665450D03*
X169763697Y-100315448D03*
X169763697Y-100965450D03*
X169763697Y-101615448D03*
%TD*%
D12*
%TO.C,U1*%
X192500000Y-52000000D03*
X192500000Y-53270000D03*
X192500000Y-54540000D03*
X192500000Y-55810000D03*
X192500000Y-57080000D03*
X192500000Y-58350000D03*
X192500000Y-59620000D03*
X192500000Y-60890000D03*
X192500000Y-62160000D03*
X192500000Y-63430000D03*
X192500000Y-64700000D03*
X192500000Y-65970000D03*
X192500000Y-67240000D03*
X192500000Y-68510000D03*
X192500000Y-69780000D03*
X192500000Y-71050000D03*
X192500000Y-72320000D03*
X192500000Y-73590000D03*
X192500000Y-74860000D03*
X175000000Y-74860000D03*
X175000000Y-73590000D03*
X175000000Y-72320000D03*
X175000000Y-71050000D03*
X175000000Y-69780000D03*
X175000000Y-68510000D03*
X175000000Y-67240000D03*
X175000000Y-65970000D03*
X175000000Y-64700000D03*
X175000000Y-63430000D03*
X175000000Y-62160000D03*
X175000000Y-60890000D03*
X175000000Y-59620000D03*
X175000000Y-58350000D03*
X175000000Y-57080000D03*
X175000000Y-55810000D03*
X175000000Y-54540000D03*
X175000000Y-53270000D03*
X175000000Y-52000000D03*
D13*
X185330500Y-61335936D03*
X185330500Y-59946810D03*
X185330500Y-58557684D03*
X186719626Y-59946810D03*
X186719626Y-58557684D03*
X186719626Y-61335936D03*
X183941374Y-58557684D03*
X183941374Y-59946810D03*
X183941374Y-61335936D03*
%TD*%
D14*
%TO.C,J2*%
X156950000Y-81099999D03*
X156950000Y-80600000D03*
X156950000Y-80099999D03*
X156950000Y-79600000D03*
X156950000Y-79099998D03*
X156950000Y-78599999D03*
X156950000Y-78100000D03*
X156950000Y-77599998D03*
X156950000Y-77100000D03*
X156950000Y-76599998D03*
X156950000Y-76099999D03*
X156950000Y-75600000D03*
X156950000Y-75099998D03*
X156950000Y-74599999D03*
X156950000Y-74099998D03*
X156950000Y-73599999D03*
X156950000Y-73100000D03*
X156950000Y-72599998D03*
D15*
X154250001Y-83399992D03*
X154250001Y-70300008D03*
%TD*%
D16*
%TO.C,TP11*%
X155500000Y-110500000D03*
%TD*%
D17*
%TO.C,H4*%
X196050000Y-72500000D03*
%TD*%
%TO.C,H3*%
X131650000Y-130250000D03*
%TD*%
%TO.C,H2*%
X131550000Y-46500000D03*
%TD*%
%TO.C,H1*%
X196000000Y-114500000D03*
%TD*%
D18*
%TO.C,J4*%
X164000000Y-49500000D03*
D19*
X161460000Y-49500000D03*
X158920000Y-49500000D03*
X156380000Y-49500000D03*
X153840000Y-49500000D03*
X151300000Y-49500000D03*
X148760000Y-49500000D03*
X146220000Y-49500000D03*
X143680000Y-49500000D03*
X141140000Y-49500000D03*
%TD*%
D20*
%TO.C,D3*%
X163000000Y-106270000D03*
D21*
X163000000Y-103730000D03*
%TD*%
D20*
%TO.C,D2*%
X131500000Y-65040000D03*
D21*
X131500000Y-62500000D03*
%TD*%
D16*
%TO.C,TP13*%
X163500000Y-129000000D03*
%TD*%
D22*
%TO.C,C20*%
X195587500Y-65200000D03*
X197312500Y-65200000D03*
%TD*%
D23*
%TO.C,R10*%
X164412500Y-122000000D03*
X162587500Y-122000000D03*
%TD*%
D24*
%TO.C,C3*%
X173410449Y-96502949D03*
X173410449Y-94777949D03*
%TD*%
D25*
%TO.C,FB2*%
X137000000Y-124375000D03*
X137000000Y-122625000D03*
%TD*%
D26*
%TO.C,D1*%
X159322949Y-97640449D03*
X157222949Y-97640449D03*
%TD*%
D27*
%TO.C,U4*%
X158950001Y-119397000D03*
X158000000Y-119397000D03*
X157049999Y-119397000D03*
X157049999Y-116603000D03*
X158950001Y-116603000D03*
%TD*%
D28*
%TO.C,C14*%
X133500000Y-122637500D03*
X133500000Y-124362500D03*
%TD*%
D16*
%TO.C,TP14*%
X136500000Y-65500000D03*
%TD*%
D29*
%TO.C,R2*%
X138087500Y-52500000D03*
X139912500Y-52500000D03*
%TD*%
D30*
%TO.C,BT1*%
X158625000Y-128150000D03*
X157375000Y-128150000D03*
D31*
X160475000Y-131350000D03*
X155525000Y-131350000D03*
%TD*%
D32*
%TO.C,J1*%
X133680000Y-57890000D03*
X133680000Y-52110000D03*
D33*
X134180000Y-59320000D03*
X134180000Y-50680000D03*
D34*
X130000000Y-59320000D03*
X130000000Y-50680000D03*
%TD*%
D35*
%TO.C,SW11*%
X197500000Y-81500000D03*
X197500000Y-86500000D03*
D36*
X195425000Y-81000000D03*
X195425000Y-85500000D03*
X195425000Y-87000000D03*
D37*
X197500000Y-78500000D03*
X197500000Y-89500000D03*
%TD*%
D29*
%TO.C,R21*%
X163087500Y-77000000D03*
X164912500Y-77000000D03*
%TD*%
D28*
%TO.C,C1*%
X143050000Y-59737500D03*
X143050000Y-61462500D03*
%TD*%
D24*
%TO.C,C11*%
X144000000Y-113275000D03*
X144000000Y-111550000D03*
%TD*%
D23*
%TO.C,R25*%
X165000000Y-82000000D03*
X163175000Y-82000000D03*
%TD*%
D16*
%TO.C,TP1*%
X179410449Y-96640449D03*
%TD*%
D38*
%TO.C,PAM8403*%
X140612500Y-115525000D03*
X140612500Y-116175000D03*
X140612500Y-116825000D03*
X140612500Y-117475000D03*
X136387500Y-117475000D03*
X136387500Y-116825000D03*
X136387500Y-116175000D03*
X136387500Y-115525000D03*
%TD*%
D39*
%TO.C,L1*%
X167140449Y-95640449D03*
D40*
X169680449Y-95640449D03*
%TD*%
D23*
%TO.C,R17*%
X197312500Y-60200000D03*
X195487500Y-60200000D03*
%TD*%
D41*
%TO.C,U2*%
X147025000Y-63445000D03*
X147025000Y-62175000D03*
X147025000Y-60905000D03*
X147025000Y-59635000D03*
X147025000Y-58365000D03*
X147025000Y-57095000D03*
X147025000Y-55825000D03*
X147025000Y-54555000D03*
X151975000Y-54555000D03*
X151975000Y-55825000D03*
X151975000Y-57095000D03*
X151975000Y-58365000D03*
X151975000Y-59635000D03*
X151975000Y-60905000D03*
X151975000Y-62175000D03*
X151975000Y-63445000D03*
%TD*%
D25*
%TO.C,FB1*%
X140000000Y-124375000D03*
X140000000Y-122625000D03*
%TD*%
D22*
%TO.C,C9*%
X195587500Y-62700000D03*
X197312500Y-62700000D03*
%TD*%
D42*
%TO.C,U6*%
X129950000Y-104450000D03*
X129950000Y-96450000D03*
D43*
X140950000Y-97250000D03*
X140950000Y-98350000D03*
X140950000Y-99450000D03*
X140950000Y-100550000D03*
X140950000Y-101650000D03*
X140950000Y-102750000D03*
X140950000Y-103850000D03*
X140950000Y-104950000D03*
X140950000Y-106050000D03*
D44*
X139950000Y-107250000D03*
D45*
X139950000Y-92650000D03*
D46*
X130350000Y-107250000D03*
X130350000Y-91750000D03*
%TD*%
D29*
%TO.C,R6*%
X160587500Y-114500000D03*
X162412500Y-114500000D03*
%TD*%
%TO.C,R1*%
X138087500Y-57500000D03*
X139912500Y-57500000D03*
%TD*%
D23*
%TO.C,R8*%
X136500000Y-62500000D03*
X134675000Y-62500000D03*
%TD*%
%TO.C,R20*%
X169412500Y-77000000D03*
X167587500Y-77000000D03*
%TD*%
D24*
%TO.C,C7*%
X195250000Y-53962500D03*
X195250000Y-52237500D03*
%TD*%
D23*
%TO.C,R19*%
X165000000Y-84450000D03*
X163175000Y-84450000D03*
%TD*%
D47*
%TO.C,Q1*%
X157170000Y-60150000D03*
X157170000Y-59500000D03*
X157170000Y-58850000D03*
X159830000Y-58850000D03*
X159830000Y-59500000D03*
X159830000Y-60150000D03*
%TD*%
D23*
%TO.C,R24*%
X164912500Y-79500000D03*
X163087500Y-79500000D03*
%TD*%
D48*
%TO.C,C13*%
X139225000Y-112500000D03*
X137500000Y-112500000D03*
%TD*%
D28*
%TO.C,C15*%
X143500000Y-122637500D03*
X143500000Y-124362500D03*
%TD*%
D24*
%TO.C,C8*%
X197400000Y-53962500D03*
X197400000Y-52237500D03*
%TD*%
D49*
%TO.C,JP1*%
X163887500Y-74450000D03*
X163887500Y-73150000D03*
X163887500Y-71850000D03*
%TD*%
D29*
%TO.C,R9*%
X162587500Y-124500000D03*
X164412500Y-124500000D03*
%TD*%
D50*
%TO.C,F1*%
X162122949Y-101140449D03*
X163697949Y-101140449D03*
%TD*%
D51*
%TO.C,Q2*%
X157472949Y-102090449D03*
X157472949Y-100190449D03*
X159347949Y-101140449D03*
%TD*%
D23*
%TO.C,R26*%
X164950000Y-87600000D03*
X163125000Y-87600000D03*
%TD*%
D24*
%TO.C,C10*%
X160362500Y-75862500D03*
X160362500Y-74137500D03*
%TD*%
D16*
%TO.C,TP2*%
X163140449Y-95140449D03*
%TD*%
D28*
%TO.C,C16*%
X144000000Y-98500000D03*
X144000000Y-100225000D03*
%TD*%
D52*
%TO.C,R19*%
X168000000Y-80000000D03*
X168000000Y-81825000D03*
%TD*%
D48*
%TO.C,C6*%
X158862500Y-124500000D03*
X157137500Y-124500000D03*
%TD*%
D52*
%TO.C,R4*%
X173410449Y-99727949D03*
X173410449Y-101552949D03*
%TD*%
D28*
%TO.C,C12*%
X133000000Y-111550000D03*
X133000000Y-113275000D03*
%TD*%
D52*
%TO.C,R23*%
X133000000Y-115500000D03*
X133000000Y-117325000D03*
%TD*%
D29*
%TO.C,R3*%
X157360449Y-95140449D03*
X159185449Y-95140449D03*
%TD*%
D53*
%TO.C,R5*%
X175910449Y-101552949D03*
X175910449Y-99727949D03*
%TD*%
D24*
%TO.C,C4*%
X175910449Y-96502949D03*
X175910449Y-94777949D03*
%TD*%
D53*
%TO.C,R22*%
X144000000Y-117325000D03*
X144000000Y-115500000D03*
%TD*%
D29*
%TO.C,R7*%
X157087500Y-122000000D03*
X158912500Y-122000000D03*
%TD*%
D48*
%TO.C,C5*%
X154362500Y-117500000D03*
X152637500Y-117500000D03*
%TD*%
%TO.C,C2*%
X163772949Y-99140449D03*
X162047949Y-99140449D03*
%TD*%
D30*
%TO.C,J3*%
X139125000Y-128150000D03*
X137875000Y-128150000D03*
D31*
X140975000Y-131350000D03*
X136025000Y-131350000D03*
%TD*%
D54*
%TO.C,Q3*%
X168987500Y-73980000D03*
X168337500Y-73980000D03*
X167687500Y-73980000D03*
X167687500Y-71320000D03*
X168337500Y-71320000D03*
X168987500Y-71320000D03*
%TD*%
M02*
